<?xml version="1.0" encoding="UTF-8"?>
<svg id="Layer_2" data-name="Layer 2" xmlns="http://www.w3.org/2000/svg" xmlns:xlink="http://www.w3.org/1999/xlink" viewBox="0 0 870.3 148.65">
  <defs>
    <style>
      .cls-1 {
        opacity: .7;
      }

      .cls-2 {
        fill: #fff;
      }

      .cls-2, .cls-3, .cls-4 {
        stroke-width: 0px;
      }

      .cls-3 {
        fill: url(#radial-gradient);
      }

      .cls-4 {
        fill: #232020;
      }
    </style>
    <radialGradient id="radial-gradient" cx="43.01" cy="30.35" fx="85.87" fy="-7.56" r="57.22" gradientUnits="userSpaceOnUse">
      <stop offset=".47" stop-color="#818181"/>
      <stop offset=".58" stop-color="#7d7c7c"/>
      <stop offset=".68" stop-color="#717070"/>
      <stop offset=".79" stop-color="#5d5b5c"/>
      <stop offset=".9" stop-color="#413e3f"/>
      <stop offset="1" stop-color="#231f20"/>
    </radialGradient>
  </defs>
  <g id="Layer_1-2" data-name="Layer 1">
    <g>
      <g>
        <circle class="cls-3" cx="57.3" cy="57.21" r="57.21"/>
        <g class="cls-1">
          <path class="cls-2" d="m44.66,64.3s-.04.07-.06.11c-.03.05-.07.08-.12.11-.01,0-.03.01-.04.02-.01.01-.02.03-.02.05,0,.06.02.11.02.17,0,.04-.02.09,0,.12.02.03.06.04.1.03.03-.01.06-.04.09-.06.05-.05.09-.09.14-.14.07-.06.14-.14.13-.23,0-.1-.12-.27-.23-.17Z"/>
          <path class="cls-2" d="m78.25,74.44s0,.07-.01.1c0,.01-.02.03-.03.04-.01.03,0,.07.02.1.02.03.04.06.05.09,0,.01,0,.03.01.04,0,0,.01,0,.02,0,.07,0,.14,0,.21-.02.04-.01.07-.03.1-.05.03-.03.04-.07.03-.11-.01-.04-.06-.07-.1-.07-.03,0-.07,0-.09-.03-.01-.02-.01-.04-.01-.06,0-.08.04-.26-.07-.28-.12-.02-.14.16-.13.23Z"/>
          <path class="cls-2" d="m86.8,80.32c-.03.07-.02.16-.03.24-.02.32-.26.58-.49.81.01-.15-.23-.18-.32-.07-.1.11-.1.27-.13.41-.06.35-.28.64-.49.92-.06-.07-.17-.1-.25-.06.07.17-.11.34-.27.44-.14.09-.29.18-.43.27-.06.04-.13.08-.17.14-.05.07-.09.16-.18.17-.05,0-.09-.02-.13-.04-.13-.03-.24.07-.34.15-.1.08-.26.15-.35.06-.03.08-.07.15-.1.23-.11-.02-.22-.04-.32,0-.1.04-.18.17-.12.26-.17,0-.34-.01-.51-.02.09.2.06.44-.07.61-.06.08-.14.14-.2.21-.09.12-.12.26-.16.4-.07.28-.13.55-.2.83-.01.06-.03.11,0,.17.01.05.05.09.08.14.06.11.04.25-.04.34.29.27.22.82-.13,1.02-.12.06-.26.1-.33.21-.06.08-.06.19-.1.28-.1.22-.39.27-.54.46-.08.1-.11.22-.13.35-.07.32-.15.64-.22.96-.01.04-.02.09,0,.13.02.05.07.08.11.11.21.17.17.51.07.76s-.23.54-.12.79c.09.2.31.31.52.38.12.04.26.06.35-.02.04.11.13.25.25.21.09-.03.11-.16.19-.22.09-.06.21-.02.31-.03.07,0,.13-.04.19-.07.25-.12.49-.24.74-.36.11-.05.22-.11.3-.19.05-.05.1-.11.15-.16.14-.15.32-.28.34-.48.11-.18.21-.36.32-.54.1-.16.19-.34.16-.53.11-.05.22-.11.32-.16-.05-.24.06-.49.22-.69s.34-.36.49-.56c.14-.19.24-.42.33-.64.09-.22.17-.45.25-.67.08-.24.15-.48.29-.69.18-.28.45-.49.57-.79.14-.35.07-.78.3-1.08.06-.08.14-.15.22-.23.31-.33.41-.84.25-1.26-.03-.07-.05-.16,0-.2.1-.08.18.12.27.2.1.09.27.04.35-.07.08-.11.08-.26.07-.39-.03-.34-.14-.68-.06-1,.05-.2.18-.41.13-.61-.02-.07-.05-.13-.08-.19-.04-.1-.05-.2-.07-.31-.03-.2-.12-.83-.35-.89-.17-.04-.64.4-.71.53Z"/>
          <path class="cls-2" d="m69.47,30.42c-.16.01-.32-.02-.48,0-.03,0-.06,0-.08.02-.03.02-.05.05-.07.08-.15.22-.48.26-.63.48-.02.03-.04.08-.02.12.12.04.27-.07.39,0,.04.02.07.06.11.09.12.1.3.09.43.02s.25-.18.36-.28c.03-.03.07-.06.11-.08.05-.02.11-.01.16-.03.07-.02.12-.07.17-.13.08-.08.24-.36.05-.42-.12-.04-.36.14-.5.15Z"/>
          <path class="cls-2" d="m61.74,30.6c-.09.01-.2.02-.27-.05-.02-.02-.04-.06-.07-.08-.1-.09-.25,0-.38.01-.19.02-.37-.14-.55-.08-.06.07-.08.18-.03.27.05.08.15.14.24.12.08-.01.17-.05.22,0,.02.02.02.05.04.07.03.03.09.02.14,0,.17-.05.39-.08.5.06.02.02.03.04.06.05.03.01.05,0,.08,0,.27-.07.55.03.83,0,.01,0,.03,0,.04-.01,0-.01,0-.03,0-.04,0-.06.07-.08.13-.1.06-.01.12-.07.09-.12-.06-.05-.15-.04-.23-.03-.08,0-.1-.03-.16-.07-.08-.05-.02-.06-.15-.07-.17-.01-.36.02-.53.04Z"/>
          <path class="cls-2" d="m53.02,27.95s-.05.05-.07.06c-.06.04-.14.02-.21,0-.2-.03-.4.01-.6-.01-.04,0-.08-.01-.12,0-.08.02-.13.1-.2.13-.08.03-.17-.01-.23-.07-.01-.01-.02-.02-.03-.03-.02,0-.04,0-.05-.01-.03-.01-.05-.04-.06-.06-.05-.07-.15-.1-.23-.07-.05.02-.09.06-.14.08-.08.04-.18.02-.27.04-.07,0-.13.03-.19.06,0,0-.02,0-.03.02,0,0-.01.02-.01.03-.02.06-.03.13-.02.2.14.02.27.07.39.15.02.01.03.02.05.03.02,0,.03,0,.05,0,.1.01.19.07.25.15.03.04.06.08.1.06-.01.03.01.06.05.07.03,0,.06,0,.09,0,.07,0,.15,0,.19.05.01.02.03.04.05.05.01,0,.03,0,.04.02.04.02.04.09.07.13.02.01.04.02.06.03.06.02.11.03.17.05.05.01.1.03.15.03.02,0,.04,0,.05,0,.02,0,.04.02.06.04.06.07.14.13.22.16.08.03.17.03.25,0,.02,0,.05-.02.06-.04.03-.03.04-.07.05-.1.02-.1.04-.2.05-.3,0-.12,0-.24-.02-.36,0-.02,0-.03,0-.05s.01-.03.02-.04c.02-.04.04-.08.06-.11.03-.06.07-.12.12-.16.06-.05.2-.14.11-.24-.07-.07-.21-.02-.28.03Z"/>
          <path class="cls-2" d="m48.42,23.75s-.08.02-.13.03c-.08.02-.15.07-.21.13-.04.03-.07.06-.09.11-.02.05,0,.11,0,.17-.02.07-.1.13-.07.19.03.06.14.06.16.13,0,.03,0,.07,0,.09.02.04.08.04.11.07.02.02.03.06.06.08.01,0,.03.01.05.01.05,0,.1.02.15.03.04,0,.08.01.11-.01.03-.02.03-.05.04-.09,0-.12-.04-.27.04-.36.03-.04.09-.08.09-.13,0-.05-.04-.08-.06-.12-.03-.05-.02-.12-.02-.18,0-.04-.01-.16-.04-.19-.07-.06-.12.02-.18.06Z"/>
          <path class="cls-2" d="m48,25.16s-.04-.01-.05,0c-.02,0-.03.02-.04.03-.05.06-.1.12-.15.17,0,.01-.02.02-.03.03-.04,0-.05-.04-.07-.07-.05-.07-.16-.04-.22,0-.07.05-.13.12-.15.2-.02.08.01.18.08.23.03.02.06.03.09.05.05.05.05.13.03.21-.03.17-.07.35-.1.52-.03.14-.05.28-.08.42,0,.03-.01.07,0,.1,0,.01.02.03.04.04.07.06.16.12.25.1.06-.01.1-.06.15-.1.09-.07.21-.11.33-.1.06,0,.11.02.17,0,.1-.04.12-.18.11-.29.07,0,.12-.06.14-.12.02-.06.02-.13.03-.19,0-.06.03-.13.03-.19,0-.04,0-.08,0-.13.01-.3.23-.56.05-.87-.05-.09-.12-.13-.22-.14-.07,0-.14,0-.2.02-.05.02-.1.1-.16.09Z"/>
          <path class="cls-2" d="m42.76,26.13c-.05.01-.1.03-.14.07-.01.02-.02.04-.04.05-.05.04-.14,0-.19.04-.03.02-.04.06-.04.09,0,.01,0,.02,0,.03,0,0,.01.01.02.01.07.04.15.04.21.09.03.03.06.07.09.09.07.06.17.06.25.01.03-.02.05-.05.08-.07.03-.03.06-.05.1-.06.05-.02.1-.03.12-.07.03-.08-.05-.1-.08-.14-.02-.03-.02-.09-.04-.11-.06-.08-.25-.04-.34-.02Z"/>
          <path class="cls-2" d="m51.03,13.69s-.02.04-.02.06c0,.05.04.09.08.12.04.03.08.06.13.06.02,0,.04,0,.06,0,.02,0,.04.03.06.04.04.02.09,0,.12-.04.02-.04.03-.09.03-.13,0-.05,0-.09.02-.13.06-.12.25-.34-.04-.34-.18,0-.37.22-.43.37Z"/>
          <path class="cls-2" d="m51.8,13.27c-.04.05-.03.12-.05.18-.03.05-.08.09-.08.14,0,.04.03.08.02.12,0,.02-.02.04-.03.06,0,.02,0,.05.01.06.02.01.05,0,.07,0,.01,0,.02.02.03.04.04.05.12.02.18.05.02,0,.04.03.06.02.01,0,.02-.02.03-.03.03-.02.07,0,.1.02.03.02.06.05.1.06.03,0,.06-.01.09-.03.07-.04.14-.09.14-.17,0-.03-.02-.06-.02-.1,0-.03.03-.06.06-.08.05-.05.09-.1.12-.16,0-.01.01-.02,0-.04,0-.01,0-.02-.02-.03-.11-.13-.22-.22-.39-.21-.11,0-.37-.02-.45.09Z"/>
          <path class="cls-2" d="m52,14.06s-.09.05-.13.06c-.06.01-.15,0-.17.06-.01.03,0,.07.04.09.03.02.07.03.1.03.13.02.31.03.36-.13.05-.15-.08-.17-.2-.11Z"/>
          <path class="cls-2" d="m58.59,11.99c.05,0,.09-.04.14-.06.1-.06.21-.1.33-.13.01-.04.03-.08.03-.12s-.03-.09-.07-.1c-.04-.02-.09,0-.13.03-.11.05-.22.06-.34.05-.08,0-.18-.05-.22.04-.09.18.12.31.27.3Z"/>
          <path class="cls-2" d="m56.61,12.12c-.12.06-.29-.04-.39.05-.02.02-.04.05-.06.07-.02.04-.04.07-.07.11-.01.02-.03.04-.03.07-.01.06.03.12.01.18-.02.06-.09.11-.07.17.13,0,.27,0,.36-.09.09-.08.11-.22.19-.32.05-.05.18-.12.19-.2.01-.11-.07-.07-.14-.04Z"/>
          <path class="cls-2" d="m57.24,10.53s-.05.02-.08.04c-.06.04-.14.06-.21.05-.03,0-.07-.01-.08.01-.02.02,0,.06.03.07.03.01.05.01.08.02.04,0,.08.03.12.06s.09.04.13.03c.05,0,.09-.05.08-.09,0-.04-.03-.18-.07-.18Z"/>
          <path class="cls-2" d="m67.63,2.79c.07.04.15.11.11.18-.03.06-.14.06-.17.12-.01.03-.01.06-.03.08-.02.05-.09.07-.14.09-.05.02-.11.07-.09.12.02.05.09.07.09.12,0,.03-.02.06-.03.09-.03.11.12.18.18.28.06.1.03.27.14.32.03.02.06.02.09.04.04.04.03.1.07.14.04.04.11.02.16.04.04.02.07.06.1.09.03.03.07.04.11.05.19.06.39.12.58.19.05.02.1.03.15.07.03.02.05.04.07.06.05.03.1.02.16.02.05,0,.11,0,.16.03.04.03.05.11,0,.14-.02,0-.04,0-.06,0-.13,0-.26-.02-.39-.05-.04,0-.08-.02-.11,0-.02.01-.04.04-.06.05-.08.04-.15-.07-.24-.08-.05,0-.1.03-.15.02-.08,0-.12-.08-.17-.14-.05-.06-.14-.1-.19-.05-.04.04-.03.11-.07.13-.05.03-.11-.02-.13-.07-.03-.05-.06-.11-.11-.12-.04,0-.07.02-.11.02-.07,0-.14-.06-.21-.04-.03,0-.05.03-.08.04-.06.02-.13,0-.18-.03-.09-.04-.19-.11-.17-.21.04-.03.1,0,.14-.01.08-.02.07-.15,0-.19s-.16-.02-.24,0c-.03-.08-.01-.17.06-.23-.07-.03-.11-.11-.1-.18-.06,0-.12,0-.18.01-.01-.05-.02-.11-.02-.17.05-.01.11-.04.15-.08-.06-.07-.13-.15-.19-.22-.06,0-.13.01-.19-.01-.06-.02-.11-.09-.09-.15.06-.01.11-.02.17-.04.04-.06-.05-.14-.04-.21,0-.05.05-.09.11-.1.05,0,.11,0,.16.02.01-.07.11-.1.18-.08.07.01.14.05.22.04.17-.02.04-.19.13-.27.12-.1.39.06.5.12Z"/>
          <path class="cls-2" d="m67.59,5.47c-.05,0-.06.07-.1.11-.05.04-.15.01-.18.07-.02.03-.01.07,0,.1.02.03.06.05.09.06.05.03.11.06.17.07.05,0,.11,0,.16.01.03.01.06.03.09.05.03.02.06.03.1.02.03,0,.06-.05.04-.08.03.06.33-.16.1-.29-.07-.04-.16-.01-.23-.02-.1,0-.16-.1-.24-.1Z"/>
          <path class="cls-2" d="m68.22,1.68c-.06,0-.12.01-.17,0-.05-.01-.09-.04-.13-.06-.08-.03-.16-.04-.25-.05-.12-.01-.23-.02-.35-.03-.03,0-.07,0-.1,0-.08,0-.15.04-.2.09-.07-.08-.17-.13-.28-.16-.2-.06-.42-.05-.61.04-.01,0-.03.01-.03.03-.02.03.03.07.06.08.19.06.39.07.59.07.15,0,.29,0,.44,0,.12.03.25.06.37.09.1.02.21.05.31.03.06-.01.13-.04.19-.05.06-.01.14,0,.18.05.02.02.03.05.05.06.07.06.17-.02.25-.05.18-.05.31.15.47.13-.02-.28-.59-.29-.78-.27Z"/>
          <path class="cls-2" d="m58.01,2c-.13-.01-.29-.01-.36.09,0-.05-.08-.08-.11-.04-.01.01-.01.03-.03.04-.03.03-.07,0-.11-.01-.15-.07-.33-.05-.46.05,0,0-.02.01-.02.02,0,.02,0,.05.03.06s.05,0,.07,0c.08,0,.16.01.23.04.01,0,.03.01.03.02,0,.01,0,.03,0,.04,0,.04.05.06.09.05.04,0,.07-.03.11-.04.08-.02.17.02.26.03.1.02.21.01.32,0,.03,0,.07,0,.09-.03.02-.01.03-.03.04-.05.06-.07.38-.03.34-.17-.03-.1-.43-.1-.52-.11Z"/>
          <path class="cls-2" d="m57.55,2.52s-.07-.03-.11-.04c-.05-.02-.1-.04-.16-.06-.11-.05-.24-.09-.36-.05,0-.11-.1-.2-.21-.23-.11-.03-.22-.01-.33,0-.02,0-.04,0-.06.02-.05.04,0,.13.06.17-.01.03-.04.05-.07.06-.08,0-.07-.12-.11-.18-.03-.04-.09-.05-.15-.05-.1,0-.21,0-.31-.01-.09,0-.18,0-.26.03-.08.04-.14.13-.12.21.07.01.14.02.22.04.03.04-.03.08-.08.08-.05,0-.11-.01-.13.03-.02.03.01.08.05.09.04.01.08.01.11.02.12.01.22.09.26.2,0,.02.02.05.03.07.02.02.05.03.08.03.09.02.19.03.28.05.03,0,.06.01.08.03.03.02.04.06.06.08.05.05.15.03.19-.03.04-.06.05-.14.04-.21.06.02.14-.01.19-.06.05-.05.08-.11.13-.16.08-.07.18-.11.29-.12.05,0,.11,0,.14.03.03.03.03.06.05.09.02.03.07.05.09.02.03.03-.01.07-.05.09-.04.02-.09.05-.06.09.01.02.04.02.06.02.09,0,.18-.01.28-.02-.02-.03.03-.06.07-.05.09.04.13.1.25.06.08-.03.11-.02.07-.1-.06-.13-.39-.18-.51-.23Z"/>
          <path class="cls-2" d="m41.35,6.95c-.12-.05-.25-.12-.38-.08-.06.02-.11.06-.17.08-.13.06-.29.02-.43.03-.15,0-.32.06-.35.2,0,.03,0,.07-.02.11-.04.1-.18.1-.28.1-.11,0-.24.06-.22.16,0,.03.03.05.04.08.06.13-.06.28-.18.37-.12.09-.25.23-.2.37.3-.02.57.19.87.19.32,0,.59-.23.9-.29.34-.07.74.06,1.01-.16.08-.06.13-.15.22-.21.1-.07.23-.08.35-.11.26-.08,1.16-.71.49-.85-.24-.05-.48.07-.7.11-.32.07-.65.04-.95-.09Z"/>
          <path class="cls-2" d="m44.5,11.32c-.32,0-.52,0-.84,0-.06,0-.13,0-.18.04-.06.04-.09.11-.14.17-.04.05-.09.1-.14.14-.21.17-.41.35-.62.52.04-.11.01-.23-.06-.32-.13.06-.27.15-.27.29,0,.06.03.11.05.17.04.13,0,.27-.1.36.12-.02.25.03.33.12-.07.02-.15.03-.2.08-.05.05-.08.14-.03.2.09.1.32,0,.36.13-.2.19-.44.35-.7.46,0,.16.04.35.19.41.07.03.14.02.22,0,.19-.03.37-.09.55-.16.03.08-.05.17-.13.2-.08.03-.17.03-.25.07-.08.04-.14.14-.09.21-.05.03-.09.07-.14.1.07.03.13.06.2.08-.03.13-.2.22-.32.17.01.1-.08.19-.18.21-.1.02-.2-.02-.3-.06-.05,0-.08.05-.07.1.01.05.05.08.07.13.05.1.03.23-.04.32-.06.09-.16.16-.26.22-.09.06-.19.13-.3.16-.06.02-.13.02-.19.06-.11.07-.12.22-.12.35.02.04.09.03.13,0,.04-.03.08-.08.13-.07.07,0,.1.1.1.17.19-.16.48-.09.72,0,.01.05.03.1.04.15-.22,0-.43.01-.65.02-.05,0-.1,0-.15.02-.08.03-.14.1-.2.16-.22.23-.51.38-.82.46-.08.02-.17.04-.23.11-.06.07-.04.19.04.21.03,0,.07,0,.1-.01.2-.06.4-.12.6-.18.05-.02.11-.03.17-.01.05.02.09.08.14.1.1.05.22-.02.29-.1.07-.08.12-.19.21-.25.2-.13.46.03.69.03.12,0,.23-.04.34-.06.25-.03.5.05.75.07.15,0,.3,0,.45-.03.04,0,.07,0,.11-.01.05,0,.09-.01.14-.02.18-.04.35-.12.52-.21.08-.04.17-.09.25-.13.03-.01.05-.03.06-.05.03-.07-.08-.12-.16-.11-.08.01-.18.03-.22-.05.05-.06.13-.1.21-.11.01-.04-.01-.09-.05-.1.25-.02.49-.15.67-.32.13-.13.23-.32.15-.48-.06-.11-.19-.16-.32-.16-.12,0-.24.05-.35.11-.11.06-.28.11-.32,0,.08-.06.17-.12.2-.21.04-.09,0-.22-.1-.24.06-.06.12-.13.18-.19-.07,0-.1-.09-.08-.16.02-.07.06-.15.02-.21-.02-.02-.04-.04-.07-.05-.14-.07-.29-.16-.33-.3-.05-.15.05-.32.03-.48-.02-.18-.16-.32-.32-.38-.16-.07-.34-.07-.52-.08.11-.07.25-.09.38-.13.42-.12.75-.42,1.07-.72.06-.04-.02-.13-.09-.15-.35-.13-.75-.13-1.1-.02.05-.06.12-.1.2-.12,0-.04.01-.09.02-.13.22,0,.44-.06.62-.18.06-.04.12-.08.14-.15.02-.07-.02-.14-.08-.17Z"/>
          <path class="cls-2" d="m40.87,13.47c-.26.05-.5.18-.74.31-.06.03-.12.07-.14.13-.02.04,0,.09-.01.13-.02.14-.14.24-.27.29-.13.05-.27.06-.4.1-.32.1-.55.38-.76.64-.13.16-.26.33-.39.49-.13.16-.26.32-.36.5.44.11.93.12,1.3-.13.13-.09.26-.22.42-.2.09.01.17.08.26.06.09-.02.14-.1.22-.14.06-.03.13-.03.2-.03.19-.02.35-.13.51-.24.09-.06.18-.12.21-.22.02-.05.02-.11.03-.17,0-.13.01-.25.02-.38,0-.05,0-.11.04-.15.03-.04.09-.06.15-.08.26-.08.57-.37.47-.68-.09-.27-.51-.28-.74-.24Z"/>
          <path class="cls-2" d="m42.81,11.59s-.09.05-.13.08c-.05.03-.08.09-.14.11-.02,0-.04,0-.07,0h-.16s-.09,0-.11-.03c-.02-.04.01-.08.05-.1.04-.02.08-.02.12-.02.04,0,.09-.03.13-.05.07-.04.15-.07.21-.12.12-.08.2.04.09.13Z"/>
          <path class="cls-2" d="m42.01,13.21s-.05.04-.05.07c0,.01,0,.02,0,.03,0,.04-.06.07-.06.11,0,0,0,.01,0,.01,0,0,0,0,.01,0,.07,0,.13-.06.2-.08.03-.01.07-.02.1-.04.08-.04.1-.18.02-.23-.08-.05-.16.08-.23.12Z"/>
          <path class="cls-2" d="m41.7,13.1s-.06.04-.08.07,0,.08.03.09c.02,0,.04,0,.05,0,.03,0,.06-.01.09-.02.02,0,.04,0,.06-.02.03-.02.03-.06.06-.09.01-.02.03-.03.05-.04.05-.03.2-.18.04-.14-.05.01-.08.05-.12.08-.06.03-.12.05-.18.07Z"/>
          <path class="cls-2" d="m44.65,11.1s-.04.01-.05.02c-.01.01-.02.03-.01.05.04.02.09.03.14.03.02,0,.03,0,.05,0,.01,0,.02.01.03.02.03.02.08.02.11,0,.08-.04.07-.15-.01-.18-.08-.02-.18.03-.25.05Z"/>
          <path class="cls-2" d="m109.33,52.8c-.02.27-.03.54-.05.8,0,.1-.01.21.02.31.02.07.05.13.05.2,0,.13-.11.24-.08.36.02.08.1.15.1.24,0,.03,0,.06-.01.1,0,.06.02.12.06.16.03.03.06.04.08.08.03.07-.02.14-.03.22-.02.13.11.25.1.39,0,.08-.05.16-.02.23.01.03.04.05.06.08.08.11.05.27.09.4.03.08.09.16.14.22.03.04.07.07.12.07.03,0,.06-.03.08-.05.21-.22.31-.52.34-.82.03-.3,0-.6-.04-.9,0-.06-.01-.12-.04-.17-.04-.07-.1-.12-.12-.19,0-.04,0-.09-.01-.13-.01-.03-.04-.06-.06-.08-.07-.1-.04-.24-.05-.36-.02-.17-.15-.3-.22-.46-.04-.07-.06-.15-.09-.23-.05-.13-.12-.26-.21-.37-.05-.06-.2-.29-.21-.09Z"/>
          <path class="cls-2" d="m114.58,56.2c-.03-.14-.06-.28-.09-.43-.02-.08-.04-.17-.04-.26,0-.09.01-.18.02-.28.02-.26,0-.52-.07-.77-.01.1-.07.19-.15.25-.03-.16-.08-.34-.21-.43.03.22.03.44.02.65,0,.05,0,.1,0,.15.01.05.04.08.06.13.06.14,0,.3.01.44.01.15.11.29.14.44.02.11.01.23.02.34.01.24.11.48.08.72,0,.06-.03.12-.03.19,0,.07.02.13.03.2.15.58.21,1.19.16,1.79,0,.09-.01.18,0,.26.03-.76.05-1.53.05-2.29,0-.37,0-.74-.01-1.11Z"/>
          <path class="cls-2" d="m91.35,52.93c-.06.04-.14.1-.12.17.02.05.07.08.13.08.05,0,.11-.01.16,0,.11.01.19.1.29.13.27.07.5-.23.23-.39-.17-.1-.52-.08-.69.02Z"/>
          <path class="cls-2" d="m114.17,50.31c-.12-.61-.2-1.23-.27-1.85-.01-.11-.03-.23-.04-.34-3.67-22.72-20.69-40.97-42.76-46.43-.06.09-.13.17-.19.25-.04.05-.09.11-.15.14-.06.03-.14.04-.21.04-.18,0-.36-.03-.53-.09.24.22.66.13.91.34.17.15.23.43.45.49.05.02.11.02.15.06.04.05.03.12.07.16.03.03.07.03.1.04.13.02.25.04.38.06.13.02.29.06.31.19-.14-.03-.3.06-.35.2.23.06.45.13.68.19.08.02.16.05.25.07.6.17,1.19.34,1.77.55.38.14.75.3,1.13.45-.38-.03-.76-.15-1.09-.36-.04-.03-.08-.05-.13-.07-.05-.02-.11-.02-.17-.03-.1-.01-.19-.05-.28-.08-.43-.15-.87-.27-1.33-.34-.05,0-.11-.02-.16,0-.05.02-.09.08-.07.13.27.21.66.15,1,.23-.26.17-.6.05-.88-.08-.2-.09-.4-.18-.59-.27-.05-.02-.14-.04-.16.02.21.17.46.29.71.41.18.08.35.17.53.25.13.06.25.12.38.18.26.13.52.25.78.38.05.02.1.05.15.05.07,0,.13-.02.19-.04.28-.08.58,0,.84.11.28.12.55.27.79.47-.37-.21-.77-.38-1.18-.5-.06-.02-.12-.04-.18-.02-.06.01-.11.06-.11.12,0,.07.09.11.16.13.4.15.77.37,1.08.66.04.04.08.08.1.13.01.05,0,.12-.06.14.04.03.08.06.13.08-.34.03-.68,0-1-.07.2,0,.41-.01.61-.02.03-.04,0-.1-.05-.13-.04-.02-.1-.02-.15-.02-.06-.17-.17-.31-.33-.4-.08-.05-.17-.08-.25-.13-.17-.11-.31-.29-.51-.32-.25-.03-.49-.14-.72-.25-.22-.1-.43-.2-.63-.33-.04-.03-.08-.05-.12-.08-.04-.02-.08-.04-.13-.07-.3-.14-.61-.25-.92-.32-.26-.36-.74-.49-1.19-.52-.04,0-.1,0-.11-.05-.01-.02,0-.05-.02-.07-.02-.03-.05-.03-.08-.03-.15,0-.29,0-.44,0,0,.08.1.12.18.12.08,0,.17,0,.22.06.02.02.03.05.04.08.03.04.07.07.12.09.16.08.32.17.48.25.04.02.09.05.11.09.01.03,0,.07.02.11.02.1.11.17.21.2.1.03.2.03.3.05.18.04.34.16.43.32.02.04.04.08.08.1.06.03.17.02.17.09.13-.08.29-.02.43.04.13.07.28.15.42.12.04,0,.08-.03.12-.02.04,0,.06.04.09.06.12.13.24.26.36.38-.17.03-.31-.13-.46-.22-.1-.06-.21-.08-.32-.1-.23-.04-.47-.08-.7-.11-.49-.07-.97-.14-1.46-.21-.06,0-.12-.02-.17,0-.05.02-.1.09-.07.14.02.05.08.06.13.07.17.04.34.07.52.11,0,.04-.02.09-.03.13-.06-.01-.13.01-.16.06.05.04.1.08.15.13-.02.06-.11.03-.16,0-.2-.14-.44-.29-.67-.2-.02.12-.15.17-.27.18-.12,0-.24-.02-.35.02.04.03.04.1,0,.13-.04.03-.1.04-.15.02.05.06,0,.15-.07.2-.06.05-.14.08-.18.14-.02-.09.03-.19.11-.23,0-.05-.01-.09-.02-.14-.06,0-.12.02-.16.06-.04,0-.04-.06-.01-.09.02-.03.06-.06.05-.1-.01-.03-.04-.03-.07-.04-.07-.03-.12-.12-.11-.2-.11.05-.22.11-.33.16-.01.05.06.09.1.06.03.02,0,.07-.03.08-.04,0-.07,0-.11-.02-.19-.06-.41.05-.47.24-.13.02-.25.05-.37.11,0,.04,0,.08,0,.12-.07,0-.14,0-.2,0,.06.11.13.21.19.32-.1.02-.18-.02-.26.04-.11.07-.25.04-.36,0-.12-.05-.22-.12-.34-.15-.07-.02-.17-.06-.14-.12.01-.03.05-.04.09-.05.11-.02.23-.05.34-.07-.17-.19-.42-.29-.67-.33-.25-.04-.51-.02-.76,0,0,.12.17.13.28.18.26.11.29.54.57.6.06.01.12,0,.17.04.1.07.05.26.15.33-.27-.13-.6-.16-.89-.06-.03.01-.07.03-.09.05-.03.04-.03.09-.07.12-.07.06-.2,0-.24.09-.02.04,0,.09-.04.12-.03.02-.07.01-.1.03-.05.03-.04.1,0,.14.03.04.09.06.14.08.12.05.22.12.31.21-.09.03-.2.03-.3.02-.27-.02-.53-.06-.79-.11-.2-.04-.42-.08-.6,0-.05.02-.09.07-.07.11.01.03.05.04.08.05.22.06.44.12.66.18.05.01.11.03.15.07.04.04.05.11,0,.15-.3,0-.59-.09-.87-.17-.15-.04-.31-.09-.45-.16-.19-.1-.34-.24-.49-.38.06-.15-.07-.31-.22-.38-.15-.06-.32-.07-.46-.15-.16-.08-.3-.24-.48-.24.02-.06.11-.05.17-.03.53.16,1.07.25,1.62.27.07,0,.14,0,.21.02.06.01.11.03.17.04.35.09.74.05,1.07-.12.11-.06.23-.17.19-.29-.03-.11-.17-.14-.26-.22-.06-.05-.09-.11-.15-.16-.06-.05-.14-.06-.21-.08-.2-.05-.4-.1-.61-.14-.33-.08-.66-.16-.97-.29-.09-.04-.18-.08-.27-.1-.1-.02-.21-.02-.31-.02-.4,0-.8-.03-1.2-.1.04-.04.02-.11-.03-.14-.05-.03-.1-.03-.16-.03-.09,0-.19,0-.27.06-.02.02-.04.04-.07.06-.02,0-.05,0-.08,0-.18-.02-.37-.04-.55-.06-.02,0-.04,0-.05-.01-.07-.04.03-.15.11-.15.08,0,.19.01.22-.06.02-.05-.01-.11-.07-.14-.05-.02-.11-.02-.17-.02-.08,0-.15.01-.23.02-.07-.14-.3-.15-.38-.01-.07.03-.16,0-.21-.06.05-.05.11-.08.17-.1-.14-.1-.33-.05-.46.05.03.1-.11.21-.2.15.02-.09-.14-.11-.21-.04-.07.07-.12.18-.22.18.04-.11.08-.21.12-.32-.19-.02-.38.06-.52.19-.04-.03-.08-.06-.12-.09-.02.05-.06.09-.11.12-.01-.12-.2-.16-.26-.07.09.05.18.11.27.16-.25.08-.53.08-.78.01,0,.04-.02.09-.02.13-.11,0-.22.09-.26.19-.01-.07-.03-.13-.04-.2-.1.02-.19.08-.25.16-.08-.03-.12-.12-.1-.2-.06-.06-.17-.05-.21.02-.04.07,0,.18.08.2-.05.02-.1.03-.15.02,0-.09-.12-.16-.19-.11.04.06.09.11.13.17-.17-.1-.41-.08-.56.06.06.02.13.04.19.05-.07.12-.22.19-.36.17-.14-.02-.26-.13-.3-.27-.09.04-.17.11-.21.2-.09-.02-.19-.01-.27.01.03.04.07.09.11.12-.21,0-.41.08-.57.21.36-.08.72-.12,1.08-.15.04.02.03.1-.01.12-.04.03-.09.02-.14.02-.18,0-.36.07-.48.2.08.04.16.08.24.11-.12.06-.25.08-.38.06-.32.15-.6.37-.83.65-.04.05-.1.11-.17.11-.06,0-.1-.05-.16-.07-.13-.06-.31.07-.29.21,0,.05.03.1.01.15,0,.03-.03.05-.05.07-.17.18-.36.37-.59.45-.13.04-.26.05-.38.11-.12.06-.22.19-.19.32-.28-.18-.63.04-.89.25-.17-.05-.35-.03-.51.05.02.08.03.16.05.24-.18-.12-.43-.04-.63.04-.12.05-.27.12-.3.25-.01.06,0,.13-.05.17-.07.06-.19,0-.25.07-.04.05,0,.13,0,.19.03.21-.2.34-.4.41,0,.13,0,.25,0,.38.09-.08.23-.1.34-.07-.04.11-.19.13-.31.16-.12.03-.23.19-.13.26.08-.04.17-.06.25-.05-.11,0-.13.19-.03.23-.14,0-.28.06-.37.17.44.39,1.11.5,1.65.26.16-.07.37-.13.51-.24.28-.23.67-.32,1.03-.24-.1.34-.03.71.13,1.03.15.32.38.6.61.87.06.07.12.14.2.18.12.06.25.04.38.02.32-.04.64-.08.96-.12.08,0,.16-.02.22-.06.07-.05.12-.13.16-.21.17-.34.35-.68.52-1.02.07-.13.11-.33-.03-.39.22.05.47-.06.59-.26.05.02.1.04.15.06.08-.1.21-.17.35-.18-.08-.09-.03-.27.1-.3-.07-.15-.17-.3-.28-.43-.03.07-.14.02-.2-.04-.06-.05-.18-.08-.19,0-.04-.1-.14-.16-.25-.16.03-.13.07-.27.1-.4.06-.05.11-.11.14-.18-.03-.03-.06-.07-.09-.1-.02-.11.07-.21.17-.27.1-.06.21-.08.31-.13.19-.09.32-.27.5-.38.12-.07.27-.11.4-.16.44-.16.83-.44,1.11-.81.05-.06.09-.12.15-.16.06-.04.14-.05.21-.06.32-.05.7-.08.93.15-.43.3-.87.59-1.3.89-.17.11-.33.23-.5.33-.12.03-.14.19-.09.3.05.11.15.19.19.3.08.21-.06.43-.12.65-.01.04-.02.08-.01.11.05.23.49.02.61.22.04.07.02.17.08.22.03.02.07.03.11.03.41.03.82-.01,1.21-.14.11-.03.21-.07.32-.1.08-.02.16-.03.25-.04.35-.04.71-.08,1.06-.12.16-.02.4.04.36.2.26-.02.53,0,.78.08,0,.11-.17.1-.28.08-.35-.06-.65.27-1.01.3-.12.01-.24-.01-.36-.03-.61-.09-1.24,0-1.81.24-.06.17.01.37.16.46.12.08.29.1.37.23.04.07.04.16.03.25-.01.17-.04.36-.19.44-.13.07-.3.02-.42-.07-.12-.09-.23-.2-.36-.27-.23-.11-.53-.02-.67.19-.08.12-.12.27-.25.33-.15.15-.05.4.05.59.1.19.19.44.04.59-.17.17-.48.02-.7.12.09,0,.07.15,0,.22-.27.24-.73.23-.98-.03-.05-.05-.1-.12-.17-.15-.06-.03-.13-.03-.19-.02-.33.03-.63.17-.94.28-.39.14-.79.23-1.2.28-.24.03-.49,0-.68-.15,0-.08.04-.15.09-.21-.17-.08-.4-.03-.52.11-.22-.08-.49.04-.57.26-.22.04-.44.02-.65-.03.02-.09.05-.18.11-.25-.23.02-.46-.04-.66-.15.05-.14-.1-.29-.09-.44.01-.2.27-.28.4-.44.02-.03.04-.07.07-.1.04-.05.1-.09.15-.13.19-.16.3-.4.29-.65,0-.05,0-.1,0-.15.03-.08.14-.15.11-.24-.35-.1-.65.39-1.01.34,0,.05-.02.1-.03.15-.05,0-.1-.05-.11-.09-.13.02-.25.1-.32.2.06.05.17.03.21-.04.03.03.03.07.02.11-.08.11-.24.14-.35.07.01.08-.12.1-.13.18,0,.05.03.09.05.14.03.08-.03.16-.05.24-.03.08,0,.2.09.19,0,.1.05.2.13.28-.14.09-.2.28-.14.44.01.04.04.08.03.12,0,.04-.02.08-.03.11s0,.09.05.1c-.02.07-.09.13-.16.14s-.15,0-.22,0c.02.1,0,.2-.02.29-.17.02-.34-.07-.41-.23-.15,0-.3,0-.45,0-.03,0-.07,0-.09.03-.02.03,0,.08-.02.12-.01.03-.05.04-.08.05-.12.04-.25.05-.38.03-.07,0-.14-.03-.22-.03-.11,0-.21.04-.31.08-.05.02-.1.04-.14.08-.04.04-.05.1-.02.15.07,0,.15.03.19.09-.1.12-.25.21-.41.23.08-.15-.03-.37-.2-.4-.02,0-.04,0-.06,0-.02.02-.02.05-.02.07,0,.15.01.36-.13.42-.14.06-.28.11-.38.23-.04.05-.08.12-.15.14-.05.02-.1,0-.15.02-.07.02-.11.08-.16.14-.2.22-.53.28-.82.33-.3.05-.62.15-.77.41-.04.07-.06.14-.11.21-.26.39-1,.23-1.2.65-.22,0-.43,0-.65,0-.04,0-.09,0-.12-.03-.03-.03-.04-.06-.06-.1-.07-.12-.25-.1-.38-.07-.09.11.12.25.11.4,0,.14-.21.21-.22.36-.19-.08-.41.11-.61.07-.16-.03-.25-.19-.33-.33-.26.14-.57.2-.87.15-.06-.01-.13-.03-.19-.01-.06.01-.12.06-.12.13,0,.08.08.13.08.21,0,.07-.07.12-.13.17-.06.05-.1.15-.04.19.43,0,.87.18,1.16.5.03.03.06.07.07.11.02.09-.06.17-.05.26,0,.06.05.11.1.15.12.11.23.22.35.33.02.02.04.04.05.07.02.06-.02.12-.04.17-.06.13-.02.3.08.4-.07.02-.14-.01-.18-.07-.06.13-.05.29.03.4-.1-.04-.2.06-.26.15-.13.17-.26.35-.32.55-.03.08-.05.18-.12.23-.05.04-.12.05-.17.09s-.11.2-.06.23c.04.03.04.09,0,.13-.03.03-.09.05-.13.05-.28.04-.57.03-.85-.05-.04-.01-.09-.02-.12-.05-.04-.02-.07-.05-.1-.07-.08-.04-.17-.02-.26,0-.31.05-.62.01-.94-.02-.21-.02-.41-.05-.62-.07-.07,0-.14-.02-.2-.02-.24-.03-.49-.06-.73-.13-.07-.02-.15-.05-.22-.08-.04-.02-.09-.04-.14-.04-.2-.02-.33.19-.52.27-.14.06-.31.04-.47.06s-.33.1-.35.26c-.01.09.04.18.05.27.06.35-.37.65-.32,1,0,.05.03.11.02.16,0,.13-.12.24-.16.36-.03.07-.03.16-.05.23-.06.15-.22.23-.36.29,0,.16-.05.33-.16.44-.04.04-.09.07-.13.11-.17.13-.33.29-.46.46-.05.07-.1.14-.12.22-.04.17.05.35.07.53.04.25-.04.49-.1.74-.04.17-.07.34-.09.52.19-.11.42.08.64.11.31.04.61-.26.9-.16.03.12.09.23.18.32-.03.05-.06.09-.09.14.06.04.12.09.18.13-.12.13-.07.33,0,.5.28.08.59,0,.81-.18.05-.04.09-.09.15-.12.09-.04.2-.03.29-.06.1-.03.19-.13.14-.22.06,0,.11,0,.17,0,.01.05.03.11.04.16.51-.05,1.03-.04,1.53.06.43-.21.7-.75,1.18-.75.09,0,.19.02.27-.03.04-.03.08-.07.1-.11.07-.1.13-.2.2-.3.16-.24.37-.5.66-.48.06-.14-.05-.3-.09-.45-.05-.23.1-.46.24-.65.04-.05.08-.1.11-.15.35-.08.49-.54.82-.68.07-.03.17-.05.2-.13.02-.04.02-.08.03-.12.05-.12.23-.1.35-.07,0-.11.14-.17.25-.19.13-.02.25-.04.38-.06.07-.01.14-.02.19-.06.04-.03.08-.08.12-.11.21-.18.62-.08.74-.34.06-.11.02-.25,0-.37-.03-.16-.03-.33.04-.48.06-.15.2-.28.36-.3.06,0,.13,0,.18-.03.05-.03.08-.08.12-.12.09-.09.24-.09.36-.05.12.04.22.12.32.2.2-.04.45-.08.59.07.04.04.07.1.12.12.04.02.09.03.14.03.21,0,.44.02.65.03.09-.08.19-.16.28-.25.13-.11.25-.22.38-.33.03-.02.05-.04.08-.06.07-.04.15-.03.23-.04.17-.03.31-.15.45-.26.14-.11.32-.2.49-.13.06.02.11.06.18.07.05,0,.09,0,.14.01.04.01.07.05.11.07.13.1.32.08.45.18.1.08.15.21.19.33.02.05.04.11.04.17,0,.07-.04.15-.01.22.02.06.07.1.09.15.02.04.03.08.04.12.04.12.14.22.26.26.04.01.09.02.13.04.04.02.08.06.11.09.09.09.18.21.27.29.18.15.35.29.53.44.04.03.08.07.14.07.04,0,.08-.01.11,0,.09.01.12.12.2.17.08.05.18.02.28.03.29.03.4.39.62.59.08.07.17.12.26.17.22.12.43.23.65.35.07.04.14.07.19.13.04.05.07.11.09.17.05.11.09.23.13.35.04.11.07.23.07.35,0,.35-.18.59-.26.92.08.02.04.16.06.23.2-.11.39-.23.57-.38.07-.06.14-.12.18-.21.03-.09.02-.2.1-.27.07-.06.17-.04.25-.08.1-.05.15-.17.13-.29s-.08-.21-.16-.29c-.06-.07-.08-.25-.11-.34-.06-.2.03-.29.16-.45.03-.03.05-.06.09-.08.05-.02.12-.01.17,0,.23.06.45.17.65.31.1.07.23.15.33.09.08-.05.09-.16.05-.24-.04-.08-.11-.14-.18-.2-.13-.11-.26-.21-.4-.32-.07-.05-.13-.11-.21-.15-.34-.22-.75-.27-1.15-.32-.06,0-.12-.02-.15-.07.17-.05.2-.31.09-.44-.12-.13-.32-.16-.5-.13-.12.02-.27.06-.36-.03-.03-.03-.04-.06-.07-.09-.04-.04-.08-.06-.13-.08-.2-.09-.39-.17-.59-.26,0-.11,0-.23,0-.34,0-.03,0-.07-.03-.1-.02-.02-.05-.02-.08-.03-.2-.07-.05-.44-.23-.55-.04-.02-.09-.03-.13-.04-.2-.04-.38-.17-.48-.35-.08-.14-.11-.3-.14-.46-.03-.19-.06-.41.07-.56.09-.11.24-.14.38-.17.11-.03.23-.05.34-.08.04,0,.09-.02.12,0,.03.02.05.05.06.08.08.18.16.36.24.53.14-.03.2-.2.32-.29.18-.13.47.02.48.24,0,.11-.06.23-.01.34.05.13.24.17.25.31,0,.04,0,.08,0,.12.02.12.17.16.28.2.14.06.27.17.34.3.18-.03.38.02.53.12.05.03.09.06.14.08.04.01.09.01.13.04.04.03.06.09.08.14.09.17.34.18.46.33.18.06.36.16.51.28.16.13.3.28.49.36.13.05.28.07.39.16.11.09.13.3,0,.35-.03.01-.06.01-.08.03-.03.02-.03.06-.03.1,0,.14,0,.26,0,.4,0,.25-.04.5,0,.74.03.25.14.5.35.62.18.1.42.09.59.22.1.07.16.19.22.3.23.41.45.83.68,1.24.15.28.31.57.38.88,0-.15.18-.26.32-.21.14.05.21.24.15.37.2-.01.35-.24.29-.43.07.17.25.29.43.27-.15-.25-.2-.57-.14-.85.15.1.38.06.48-.08-.15-.13-.25-.31-.28-.51.18.15.44.21.68.16-.15-.22-.19-.51-.11-.76-.1-.27-.3-.5-.55-.64-.06-.03-.13-.07-.16-.13-.08-.16.16-.32.14-.5-.01-.09-.09-.17-.07-.26.03-.19.33-.09.51-.17.13-.05.19-.2.3-.28.12-.08.29-.07.44-.05.26.03.53.06.79.1.13.02.27.03.36.13-.03.04,0,.08.05.09.05,0,.09-.02.13-.03.14-.05.3-.04.44-.05.15-.02.31-.09.36-.23.02-.05.02-.11.05-.15.02-.02.05-.04.07-.05.22-.1.47-.11.7-.02.06.02.12.05.18.05.06,0,.13-.02.16-.08.05-.11-.09-.2-.21-.21-.11,0-.24.02-.33-.06-.07-.06-.13-.18-.21-.15-.02-.17-.08-.33-.16-.48-.02-.04-.05-.08-.09-.11-.07-.06-.18-.1-.17-.18.01-.12.23-.12.24-.24,0-.03,0-.05-.02-.08-.05-.13-.08-.3.02-.39.09-.08.23-.06.32-.14.18-.15-.04-.49.1-.68.03-.03.06-.06.07-.1.01-.05-.02-.1-.02-.16,0-.07.05-.14.12-.17.07-.03.14-.04.22-.04.05,0,.09,0,.14,0,.02,0,.04,0,.05-.01.05-.02.05-.09.03-.14-.02-.05-.04-.1-.03-.15.02-.06.09-.09.1-.15.03-.13-.19-.21-.16-.33.02-.09.13-.1.22-.12.27-.06.46-.36.4-.63.11.02.23,0,.33-.05.02-.01.05-.03.07-.03.04,0,.06.04.1.06.04.03.1.02.15.02.17-.01.34-.03.52-.04-.06.09-.12.19-.19.28.12,0,.24,0,.36.01-.04,0,.48.11.44.11.23.02.45.07.66.16-.13,0-.27.05-.36.15-.03.03-.05.07-.09.09-.06.03-.14.01-.21.04-.07.03-.12.12-.09.19.16-.04.32.04.47.11.22.11.47.24.53.48.02.06.02.13.05.19.03.06.09.11.15.1.03,0,.05-.02.08-.04.16-.11.32-.22.48-.33.02-.02.05-.03.07-.05.13-.09.26-.18.35-.3.01-.02.02-.03.04-.04.04-.03.1,0,.15.03.18.09.4.05.59,0,.08-.09.02-.25-.09-.3-.11-.05-.24-.03-.36-.01-.04,0-.09.02-.12.04-.03.02-.06.06-.09.08-.14.09-.31-.05-.43-.17-.15-.13-.32-.24-.51-.29-.01-.14.13-.25.26-.32.26-.15.53-.3.82-.34.05,0,.11-.01.15-.04.04-.02.06-.06.1-.08.11-.07.26-.03.36-.11.05-.04.08-.1.13-.14.12-.09.29-.03.44-.02.31.02.63-.23.92-.1-.04.18-.27.25-.45.29-.19.04-.41.13-.42.32.11.06.22.12.33.18.05.03.11.1.07.14-.07,0-.15,0-.22-.01.05.08.02.18,0,.28-.02.06-.04.13-.08.18-.11.13-.32.09-.48.05-.02.12.07.22.16.29.13.12.27.25.4.37.03.03.07.06.11.07.05.01.1,0,.15,0,.11,0,.22.09.23.2.1,0,.2,0,.31-.01.03.12.2.13.33.14.21.02.39.15.56.28.26.19.52.39.78.58.05.04.1.07.16.08.04,0,.09,0,.13,0,.22.02.39.27.62.24.12.13.24.26.35.4.04.04.07.08.11.12.03.04.06.07.08.11.06.13-.02.29-.11.41-.13.17-.29.31-.47.42-.05-.03-.11-.03-.17,0,.03.05,0,.12-.04.16-.05.03-.11.04-.17.05-.12.01-.25.02-.36-.03-.03-.01-.06-.03-.09-.05-.05-.02-.1-.02-.15-.02-.43,0-.85,0-1.28,0-.14,0-.29,0-.41-.08-.06-.04-.1-.1-.17-.11-.04,0-.08,0-.12,0-.24.03-.49-.02-.69-.15-.1-.06-.2-.15-.32-.17-.11-.02-.22,0-.33.05-.1-.08-.19-.16-.29-.25-.03-.03-.07-.06-.12-.06-.03,0-.05.02-.08.03-.23.12-.5.11-.76.11-.38,0-.75.06-1.11.17-.04.01-.08.02-.11.04-.05.02-.09.06-.13.09-.1.08-.21.15-.31.23-.03.02-.06.04-.09.06-.12.09-.26.18-.41.18-.15,0-.28-.1-.42-.12-.24-.04-.48.09-.72.07-.07,0-.15-.03-.22-.04-.07,0-.16.01-.21.07s-.04.16.03.19c.07.03.16-.01.21.04,0,.27-.24.51-.5.53-.1,0-.21-.02-.31-.04-.26-.04-.53-.04-.8.01-.1.02-.19.04-.29.03-.08-.02-.16-.06-.25-.07-.12-.01-.24.06-.29.17,0,.07,0,.12-.02.19-.07.36-.14.73-.21,1.09.03.11.22.08.27-.03.05-.11,0-.23,0-.35-.01-.12.03-.26.14-.29.14-.03.23.14.27.28.04.14.08.28.12.41.07.19-.11.43-.31.41-.1.09-.02.27.1.32.12.05.26.02.4.03s.29.07.31.2c.01.07-.02.14-.02.21-.02.19.16.38.35.37-.1.12-.1.32.01.43.17-.15.38-.25.6-.28-.07.06-.13.13-.2.19.15.06.48.02.62.08.22.08.25.25.46.33.28.11.59.22.88.13.06-.02.12-.05.15-.1.05-.09-.01-.21.03-.31.05-.11.19-.12.31-.12.36.01.76-.02,1.07.16.38.23.48.5,1.01.38.39-.08.97-.3,1.1-.67.24-.11.55-.06.74.13.05.04.09.1.14.12.19.08.33-.17.39-.37.14-.02.23.16.2.29s-.12.25-.16.38c-.11.39.28.76.27,1.17,0,.38-.34.7-.31,1.08.01.16.09.31.08.47,0,.16-.18.33-.32.24.16.24.09.56-.04.82-.12.26-.29.5-.33.79,0,.06-.01.13-.04.18-.08.14-.27.13-.43.11-.34-.04-.77-.03-.94.26-.54-.49-1.34-.68-2.04-.5,0,.05-.01.11-.02.16-.34,0-.66.25-.76.57-.02-.13-.21-.15-.33-.09-.12.06-.24.15-.37.14-.18-.02-.26-.23-.42-.31-.32-.15-.79.26-1.01-.01-.06-.08-.08-.19-.16-.26-.06-.05-.14-.05-.22-.05-.59-.02-1.19-.03-1.78-.05.12-.13.02-.35-.14-.43-.16-.07-.34-.04-.52-.02-.17.02-.37.02-.5-.09-.06-.05-.11-.13-.19-.16-.08-.02-.16,0-.24,0-.34,0-.48-.59-.82-.55-.07,0-.13.04-.2.04-.08,0-.15-.06-.22-.1-.17-.08-.37-.04-.55,0-.27.06-.54.12-.81.18-.14.03-.29.06-.4.15-.11.09-.19.25-.13.38-.2.27-.29.61-.27.94.13,0,.21.15.18.28-.02.12-.12.22-.21.31-.21.2-.53.41-.77.24-.11.1-.21.2-.32.29-.14-.32-.41-.58-.72-.72-.16-.07-.33-.12-.49-.16l-1.12-.29c-.3-.08-.65-.22-.68-.52,0-.06-.13-.1-.2-.11.11-.08.03-.31-.11-.3.07-.13-.1-.27-.25-.27-.15,0-.3.06-.45.01-.21-.07-.33-.35-.54-.33-.06,0-.12.03-.17,0-.03-.02-.04-.06-.07-.08-.03-.03-.08-.03-.12-.03-.17,0-.34,0-.52-.01-.05,0-.11,0-.16.02-.04.02-.07.05-.11.07-.12.06-.25-.02-.36-.08-.11-.06-.26-.12-.36-.03-.03-.05-.06-.1-.09-.16-.1.08-.25.02-.36-.06-.11-.07-.23-.16-.35-.13.03-.08.12-.11.18-.16s.12-.15.06-.21c-.25,0-.5,0-.75.01-.08-.16-.15-.37-.03-.51.08-.09.23-.11.31-.21.04-.05.05-.13.11-.17.04-.03.09-.03.13-.05.07-.03.12-.11.15-.19.11-.26.14-.55.1-.82-.16,0-.26-.19-.31-.34-.04-.1-.08-.22-.04-.32.04-.1.19-.16.26-.07.07-.19.2-.35.33-.5-.21-.07-.47.01-.59.2-.07-.03-.07-.14-.05-.21.03-.08.07-.15.05-.23-.04-.15-.25-.14-.4-.1.04-.06-.06-.12-.13-.1s-.12.09-.19.1c-.06.01-.12,0-.17.02-.05.02-.08.07-.12.11-.21.19-.55-.01-.82.06-.11.03-.2.09-.3.11s-.24-.02-.26-.12c-.3.07-.64-.07-.94-.1-.23-.02-.48.04-.67.17-.05.04-.1.08-.16.1-.15.06-.32-.02-.47-.08-.21-.09-.44-.15-.66-.18-.07,0-.14-.02-.21-.01-.06,0-.13.02-.19.03-.08.02-.16.03-.23.05-.39.09-.79.18-1.19.25-.17.03-.35.06-.51.02-.13-.03-.29-.1-.39,0-.03.03-.05.08-.09.11-.08.05-.19,0-.27.02-.07.03-.11.12-.19.14-.05.02-.1,0-.15,0-.17-.01-.33.1-.39.26-.01.03-.02.07-.05.09-.03.02-.07,0-.11,0-.32-.11-.68.01-.97.2.08.07-.02.2-.12.24-.3.14-.63.19-.96.14-.49-.08-.99-.37-1.46-.19-.11.04-.24.08-.29.18-.1-.06-.14-.19-.2-.3s-.17-.21-.28-.17c.01-.12.03-.23.04-.35-.12.04-.23.08-.35.12-.13.04-.27.1-.34.22-.03.06-.04.12-.08.17-.03.04-.08.06-.11.1-.05.05-.08.13-.1.19-.16.42-.49.78-.9.98-.09.04-.18.08-.27.11l-.98.38s-.09.04-.13.06c-.05.03-.09.07-.13.1-.09.07-.21.1-.29.18-.05.05-.09.12-.13.19-.16.23-.42.38-.65.55-.13.1-.26.23-.29.4-.01.09,0,.19-.01.28-.06.27-.42.41-.47.68-.02.09,0,.18.06.26.02.03.06.06.07.1.09.18-.2.4-.1.58-.21.03-.4.18-.47.38-.12.37-.73.42-1.01.7-.18.18-.33.45-.59.44-.08,0-.16-.03-.23,0-.07.02-.11.09-.17.12-.1.05-.22,0-.33,0-.11-.01-.25.04-.25.15-.07-.03-.13-.05-.2-.08-.13.2-.27.4-.4.61-.24.37-.5.75-.88.97-.04-.07-.14-.09-.21-.05-.07.03-.12.1-.17.17-.36.53-.6,1.17-1.09,1.59-.12.1-.25.19-.35.3-.1.12-.17.26-.25.39-.16.3-.35.59-.54.87-.11.17-.23.34-.34.51-.08.12-.16.25-.26.36-.1.11-.2.21-.29.34-.2.29-.22.69-.06,1,.05.1.12.19.16.29.13.27.11.6-.06.85-.06.09-.14.17-.18.27-.09.2-.03.44,0,.66.07.47,0,.95-.17,1.39-.09.23-.29.46-.39.69-.11.24-.14.51-.14.78,0,.1,0,.2-.03.29-.04.09-.11.16-.18.24-.15.16-.28.34-.4.52-.08.11-.16.22-.24.33-.05.06-.09.14-.09.21,0,.07.03.13.07.18.14.24.31.49.27.76-.01.08-.04.16-.01.24.05.14.24.15.39.15.15,0,.34.06.34.2-.22-.04-.44-.08-.65,0-.2.08-.36.33-.25.52.28.12.62.24.87.06.1.07.07.25-.03.32-.1.07-.24.07-.36.04-.12-.03-.24-.07-.37-.06-.04,0-.08.01-.11.04-.06.07-.01.18.06.24.07.06.16.11.18.2.02.09-.04.2,0,.28.07.12.25.04.35-.05.1-.09.26-.19.35-.09.11.12-.09.34.01.47.03.04.08.06.11.1.06.08.01.18,0,.27-.02.16.06.31.14.45.12.21.24.43.36.64.04.07.07.13.13.18.04.04.1.07.15.1.15.09.27.21.36.35.11.19.17.4.22.62.08.33.17.67.25,1,.02.07.03.14.05.21,0,.06.01.12.02.17.05.24.19.46.33.66.03.04.06.08.1.11.05.04.12.04.18.06.17.05.32.19.37.36-.04,0-.08-.02-.12-.03.15.14.38.41.54.55.03.02.05.05.08.07.16.14.31.28.47.42.07.06.14.13.21.19.08.07.17.14.27.13.05.32.37.52.56.79.04.06.08.13.13.19.04.04.08.07.12.1.12.08.23.16.35.24.1.07.21.14.31.21.17.11.34.21.51.31.06.03.11.07.17.1.04.03.09.05.14.05.13,0,.27-.16.37-.08,0-.11.13-.2.23-.16.03.01.07.04.1.01.02-.02.02-.05.03-.07.03-.09.15-.09.24-.06.09.03.2.07.27,0,.04-.04.05-.09.08-.13.08-.11.24-.09.36-.05.12.04.27.09.38.02.06-.04.09-.1.15-.13.09-.05.2-.02.31,0,.32.07.65.04.98.05.33,0,.67.06.92.27.04.03.08.07.13.08.05,0,.09-.02.14-.03.1-.03.21-.03.31,0,.14.05.24.15.37.22.12.07.28.12.41.04.05-.06.08-.14.07-.22.11.06.14-.08.26-.13.13-.05.3.09.42,0,.05-.04.08-.11.13-.13.07-.03.15.04.23.04.11,0,.19-.1.27-.18.08-.08.24-.11.28,0,.03-.07.06-.14.1-.21.26.01.52.03.78.04.02-.1.05-.2.07-.3.22.09.43-.15.66-.18.19-.03.43.07.53-.09.02-.04.03-.1.07-.12.03-.02.07-.02.11-.01.61.06,1.21.11,1.82.17.1,0,.2.02.3.04.32.08.58.32.82.55.14.13.29.29.29.48.19.05.18.31.22.5.04.17.15.31.25.45.12.16.28.34.48.34.07,0,.14-.03.22-.02.07,0,.14.03.2.05.22.07.47.03.66-.1.05-.04.1-.08.16-.1.14-.06.29.01.44.03.28.03.56-.12.84-.1.28.02.54.21.63.48.03.08,0,.15.01.23,0,.03.01.06.03.08.06.06.16,0,.25-.01.12-.02.23.06.3.15.07.09.12.2.21.28.09.09.22.16.27.28.03.06.03.12.03.19,0,.18.01.36.02.54,0,.04,0,.08-.03.11-.02.02-.04.02-.06.04-.12.07-.14.24-.12.38.02.14.04.3-.04.41-.04.05-.09.08-.1.14,0,.04.01.09.01.14,0,.09-.09.15-.16.22-.07.06-.12.18-.06.24.03.03.06.04.09.06.11.09.01.26.01.4,0,.11.07.24,0,.32-.04.04-.1.05-.14.09-.04.04-.04.11-.04.16,0,.14,0,.28,0,.41,0,.05,0,.1-.03.15-.05.08-.17.14-.15.23,0,.04.03.07.03.1,0,.06-.06.1-.1.14-.15.13-.15.4,0,.53.03.03.07.05.1.09.04.06.04.13.04.2-.01.23-.02.5.16.65.05.04.11.07.17.1.18.11.3.29.42.46.26.38.6.68.92,1,.16.16.31.32.48.46.23.19.51.39.53.69.26.15.33.48.38.78.05-.05.15,0,.18.07.03.07.02.15.05.22.04.1.15.18.12.28-.02.04-.06.07-.08.12-.05.09.02.21.1.27.08.07.18.13.2.23.01.06,0,.13.01.19.05.16.29.18.37.33.05.1,0,.23.02.34.05.23.41.35.34.58-.02.07-.09.15-.05.22.02.04.08.06.11.1.04.05.03.13.02.19-.02.21.07.43.24.56-.12-.08-.29.02-.34.16-.05.14-.01.28.03.42.03.13.07.26.1.38.08.28.18.6.45.73.08.04.19.07.23.15.03.06.03.12.03.19,0,.21-.02.41-.02.62,0,.17-.01.35-.1.5-.11.2-.33.33-.36.56-.34.15-.63.4-.83.72.11.22-.17.45-.16.69,0,.11.06.21.07.32.02.3-.38.6-.21.85-.13.21-.29.47-.42.67-.04.06-.08.13-.09.2-.02.16.09.3.16.44.08.16.09.35.04.52-.13.15-.17.37-.1.55.07.02.14.04.2.07-.04.11.03.23.1.33.11.17.23.34.34.52.12.19.26.39.46.49.05.03.11.05.14.09.04.06.03.15.04.22.02.1.12.17.22.18-.07.16.01.38.18.45.04.02.09.03.11.06.06.08-.04.2-.02.3.01.04.04.08.07.11.11.1.21.21.32.31.14.14.29.32.24.5.23.02.34.28.38.51.04.01.07.03.11.04.11.15.22.3.32.44.03.04.05.07.07.11.01.04.01.09.01.13,0,.43,0,.85,0,1.28,0,.04,0,.08.02.11.05.1.22.09.29.18.03.04.04.09.05.13.05.3.05.6,0,.89-.02.14,0,.36.15.35.03,0,.05-.01.08,0,.06,0,.08.09.09.15.02.21.03.42.05.62.09.07.15.16.24.24.18.15.36.3.55.45.25.2.51.41.79.56.1.05.21.11.25.22.04.09.02.23.11.27.04.02.08.01.11.04.05.05,0,.13-.01.2-.05.19.14.34.28.47.14.13.24.29.31.46.02.06.04.13.1.17.07.05.19.03.24.11.02.03.02.07.03.11.02.13.08.24.12.37.03.12.03.27-.05.37-.06.06-.14.09-.2.14-.07.05-.12.14-.08.21.01.03.04.05.06.07.19.15.38.3.57.45-.04.08-.08.18-.01.24.02.02.05.03.08.04.13.04.27.09.4.13.17.06.35.12.48.25.1.1.21.26.35.23.05-.01.1-.05.15-.08.12-.07.28-.09.41-.04.02-.14.17-.22.3-.24.14-.01.28.02.41.02.12,0,.23-.02.34-.05.13-.03.27-.06.4-.09.08-.02.15-.03.23-.06.06-.03.12-.06.19-.09.15-.05.3-.01.46,0,.15.01.33-.02.41-.14.08.16.29.19.47.17.18-.03.36-.09.53-.04.11.03.25.1.31,0,.02-.03.02-.07.05-.1.03-.02.09,0,.06.03.16.05.25-.01.38-.12.05-.05.1-.1.16-.13.08-.03.16-.02.24,0,.33.06.7.07.97-.12.11-.08.19-.18.3-.26.16-.12.35-.17.53-.24.51-.19.99-.48,1.41-.84.1-.09.19-.18.31-.24.1-.05.21-.07.31-.12.11-.06.2-.15.29-.25.21-.22.41-.44.62-.66.33-.35.66-.7,1.06-.96.13-.08.27-.15.39-.25.2-.16.34-.38.48-.6.29-.45.58-.95.5-1.48-.01-.08-.03-.16-.03-.24,0-.39.44-.61.8-.74.41-.15.82-.29,1.23-.44.29-.1.61-.23.76-.51.12-.23.08-.51.11-.77.03-.32.16-.63.29-.93-.08-.02-.16-.03-.24-.05-.09-.03-.1-.16-.07-.24.04-.09.1-.17.11-.26,0-.07-.02-.15-.05-.22-.15-.36-.3-.71-.44-1.07-.05-.13-.04-.24.07-.33.51-.4,1.02-.8,1.53-1.2.12-.09.24-.19.35-.28.26-.21.53-.42.83-.57.13-.07.27-.13.4-.19.22-.1.45-.19.67-.29.28-.12.58-.24.87-.15.68-.86,1.78-1.47,1.99-2.54.11-.55-.05-1.12-.03-1.69.03-.82.44-1.69.06-2.43-.06-.11-.18-.23-.29-.18.08-.14-.04-.31-.15-.44-.11-.13-.21-.33-.09-.44-.09-.13-.17-.26-.26-.38-.1-.15-.2-.35-.1-.49.04-.06.11-.09.15-.15.15-.24-.27-.5-.24-.78.03-.24.36-.37.35-.61-.02-.27-.4-.3-.59-.48-.26-.24-.12-.67.04-.99.31-.61.62-1.22.93-1.83-.11-.17.21-.36.35-.49.15-.14.18-.36.2-.57.02-.2.03-.42.15-.59.12-.16.4-.23.53-.06.17-.44.47-.82.86-1.08.17-.11.37-.28.29-.46,1.19-1.46,2.46-2.86,3.8-4.19.29-.29.58-.57.85-.87.83-.93,1.43-2.03,2.03-3.12.07-.12.14-.25.13-.39,0-.12-.08-.24-.05-.36.03-.13.16-.2.25-.29.22-.23.22-.59.28-.91.14-.69.69-1.24.86-1.93.07-.26.08-.52.09-.79.03-.6.05-1.2.08-1.8-.2-.18-.55-.33-.68-.1-.03.06-.04.13-.07.18-.06.1-.18.15-.29.18-.35.11-.7.22-1.05.33-.53.17-1.06.34-1.59.51-.19.06-.28.29-.51.3-.22,0-.53-.13-.75-.08-.33.07-.57.56-.87.56-.33,0-.58,0-.84-.2-.29-.24-.54-.62-.9-.73-.07-.02-.16-.03-.2-.1-.07-.1.02-.24.09-.34.22-.35.12-.87-.23-1.1-.25-.17-.46-.45-.71-.63-.06-.04-.11-.08-.17-.12-.26-.19-.53-.39-.66-.68-.02-.05-.04-.1-.07-.15-.11-.18-.38-.25-.41-.46-.08.03-.15.05-.23.08-.08-.13-.17-.27-.31-.33-.14-.07-.34-.04-.41.1.05-.16-.1-.32-.26-.39-.16-.07-.34-.09-.47-.21-.09-.08-.14-.19-.18-.3-.11-.26-.21-.53-.32-.79-.03-.08-.06-.15-.09-.23-.09-.24-.19-.49-.31-.72-.17-.32-.4-.6-.67-.84-.19-.17-.4-.31-.62-.43-.1-.05-.2-.1-.27-.18-.08-.08-.13-.19-.18-.29-.22-.52-.34-1.07-.36-1.63,0-.21-.05-.49-.26-.53,0-.13.04-.25.12-.35-.16-.07-.29-.23-.33-.4-.02-.09-.02-.19-.06-.27-.03-.05-.07-.1-.12-.14-.27-.25-.57-.45-.9-.6-.2-.13-.33-.36-.35-.6-.01-.16,0-.37-.15-.44-.05-.02-.12-.04-.13-.09-.01-.04.03-.08.05-.12.06-.13-.05-.27-.15-.37-.23-.25-.42-.54-.57-.85-.25-.56-.63-1.06-.94-1.6-.04-.08-.09-.16-.13-.23-.15-.26-.3-.53-.48-.76-.17-.21-.37-.4-.54-.61-.24-.29-.44-.62-.57-.97-.03-.09-.07-.18-.13-.25-.05-.05-.11-.09-.16-.14s-.06-.15-.01-.19c.13-.06.28.06.36.18.07.13.12.28.23.37.06.05.14.09.19.15.05.07.06.16.08.24.09.34.4.57.69.78.1.07.22.15.35.12.2-.04.26-.3.25-.5,0-.2,0-.46.19-.55-.04.2-.08.4-.04.6.05.2.2.38.4.4.08,0,.16-.02.23.02.05.03.09.09.12.14.2.34.48.63.8.84.09.06.18.11.25.19.07.08.1.19.14.29.29.73.99,1.25,1.19,2.01.02.07.03.13.07.19.11.16.36.13.51.25.1.09.15.25.28.26.06,0,.11-.03.17-.02.13.02.13.2.18.32.06.13.19.2.3.29.06.05.11.11.15.18.11.15.19.33.25.51.04.14.07.29.1.44.02.11.04.23.07.34.1.46.28.91.52,1.31.04.07.09.15.16.2.11.09.27.1.41.14.36.09.68.33.87.65.38.67.74,1.44,1.32,1.95.14.12.31.21.45.33.67.57.65,1.58.83,2.44.09.46.25.9.41,1.33.11.31.22.62.34.93.05.15.11.31.23.42.18.18.47.2.72.22-.03-.22.31-.24.52-.31.24-.08.37-.34.56-.53.55-.54,1.54-.35,2.1-.88.12-.12.25-.28.42-.27.11,0,.23.1.33.05.07-.03.09-.12.12-.19.24-.65.99-.92,1.63-1.16.44-.16.91-.38,1.11-.81.15-.34.11-.76.35-1.04.14-.15.34-.23.53-.3.24-.09.48-.18.72-.26.26-.09.52-.19.72-.38.2-.19.31-.49.21-.74.18.2.53.04.65-.2.13-.24.13-.52.26-.75.13-.23.48-.39.65-.19.02-.33-.18-.63-.21-.95-.08-.82.88-1.43.92-2.26.03-.64-.5-1.15-.98-1.57-.18-.16-.4-.33-.64-.3-.11.01-.21.07-.33.08-.18.02-.34-.08-.48-.18-.45-.33-.79-.81-.96-1.34-.11-.33-.16-.69-.35-.98-.22.44-.44.87-.68,1.3-.13.25-.27.5-.47.69-.56.54-1.43.55-2.21.52-.05-.6-.16-1.2-.35-1.78-.03-.1-.07-.21-.17-.26-.2-.1-.41.16-.42.39-.02.23.04.48-.1.66-.22-.43-.44-.86-.66-1.3-.1-.19-.19-.38-.33-.54-.28-.35-.7-.55-1.06-.81-.67-.51-1.12-1.29-1.23-2.13.26-.07.52-.14.78-.2.11-.03.21-.06.32-.08.04-.01.09-.02.13-.03.08-.07.16-.13.24-.2.21.23.38.51.47.81.23.08.44.22.59.41.21.26.31.6.54.84.48.5,1.33.41,1.9.82.15.1.27.24.43.32.16.08.39.07.49-.07.15.16.36.27.58.3.07-.19.2-.35.38-.46.1.03.18.1.23.2.13-.07.2-.24.16-.39.3-.14.66.04.85.3.19.27.24.6.29.92.25-.07.52-.04.79-.01.68.08,1.36.16,2.04.23.3.03.61.07.9-.04-.1,0-.2.02-.31.03.19-.11.67-.16.88-.14.1.01.19.04.29.02.09-.02.18-.11.16-.2.06-.12.25-.07.36.02.1.09.23.21.36.15.08-.04.11-.14.18-.19.05-.04.11-.05.17-.07.27-.07.54-.13.82-.2,0,.22.04.48.23.59.16.09.4.07.47.24.02.06.02.12.02.18.03.21.22.36.42.43.2.07.41.09.6.18.05.02.09.05.11.1.02.04,0,.09.02.14.03.15.24.17.35.29.09.1.1.26.22.32.06.03.13.02.2,0,.23-.06.43-.25.51-.47.07.35-.21.74-.57.77-.03.14.08.27.18.38.24.26.47.53.71.79.1.11.2.22.33.28.26.12.59,0,.75-.25.16-.24.16-.55.07-.82-.05-.14-.13-.28-.08-.42.04-.14.29-.18.31-.04,0,.04,0,.09-.02.13-.09.3.02.62.17.89.14.27.32.54.37.85.03.16.02.33.04.49.07.52.45.95.53,1.46,0,.03,0,.06-.02.08.87,1.81,1.68,3.71,2.37,5.59.03.09.07.19.12.28.06.11.15.2.23.29.14.03.17.23.1.35.06.02.12.04.17.08.05.04.08.11.06.16-.01.03-.03.06-.02.09.02.03.05.02.08.03.08.02.09.14.07.22-.02.08-.04.19.04.24.02.01.05.02.07.04.09.07-.03.23.03.32.02.03.05.05.07.07.06.06.09.15.07.23,0,.04-.03.07-.02.11.01.09.13.12.18.19.12.15-.11.39-.02.56.04.07.12.11.15.19.03.09.02.22.07.3.18.33.59.65.89.42-.03-.29-.06-.6.09-.85.06-.09.13-.17.18-.27.11-.26-.06-.55,0-.82.04-.24.24-.44.26-.69.01-.17-.07-.34-.13-.5-.2-.52-.18-1.1-.21-1.66-.05-.93-.23-1.86-.53-2.74-.03-.09-.06-.18-.06-.28,0-.12.05-.23.11-.34.12-.26.25-.52.37-.78.07-.16.15-.32.13-.49-.02-.14-.09-.26-.1-.4,0-.12.04-.24.08-.36.24-.7.13-1.46.2-2.19.06-.54.21-1.1.07-1.63-.04-.15-.11-.3-.11-.45,0-.33.27-.59.47-.85.21-.26.36-.65.15-.9.42.47.47,1.16.79,1.71.19.33.47.6.69.91.19.27.33.57.46.87.37.86.65,1.75.82,2.67.27-.47.16-1.06.05-1.59.37,1.32.73,2.65,1.1,3.97.11.39.22.79.27,1.19.05.35.05.7.08,1.04.06.82.22,1.63.43,2.42-.04-.43-.09-.86-.14-1.3ZM53.47,11.63c-.09-.02-.2-.04-.28,0-.08.04-.14.14-.23.13-.02,0-.03,0-.04-.02,0-.01,0-.02,0-.03,0-.06,0-.13.05-.18.05-.06.14-.06.18-.13.01-.02.02-.05.04-.06.03-.02.06,0,.09.01.03.02.05.04.08.05.03,0,.07-.01.07-.05,0-.01-.01-.03-.02-.04-.05-.06-.1-.13-.06-.19.02-.04.51.04.54.1.03.07-.04.09-.07.14-.04.06-.04.14-.08.2-.06.08-.17.08-.26.07Zm.78.22c-.08.02-.16.07-.21.13-.05.06-.09.14-.16.18-.02.01-.05.02-.08,0-.03-.03-.01-.08.01-.11.05-.08.1-.16.15-.24.02-.03.04-.05.06-.08.02-.02.05-.04.07-.07.07-.06.19-.18.28-.07.08.1-.03.22-.12.25Zm1.63-.76c.2.11-.23.12-.3.08-.02,0-.03-.02-.05-.03-.07-.04-.16-.03-.25-.03-.03,0-.08-.02-.07-.05,0-.02.04-.03.06-.03.17,0,.44-.03.6.06Zm4.22-1.11s0,.04-.02.05c-.02.02-.05,0-.08,0-.05-.02-.1-.04-.12-.09-.01-.02-.01-.05-.01-.08,0-.08.08-.25.19-.22.11.03.06.26.05.34Zm.23-4.02s-.08.06-.13.09c-.04.03-.1.02-.15,0-.02,0-.04-.01-.05-.03,0-.02.02-.04.04-.06.06-.03.3-.21.34-.07.02.07-.02.03-.06.06Zm-14.93,16.09c-.04.1-.02.21-.06.31-.02.07-.07.13-.08.19,0,.03,0,.07,0,.1,0,.03-.03.06-.06.07-.05,0-.08-.06-.08-.11,0-.09.06-.16.07-.25,0-.06,0-.11.01-.17,0-.05.03-.1.04-.15.02-.07.13-.46.22-.21.03.09-.03.15-.06.22Zm16.51-9.88s-.05-.02-.07-.03c-.08-.05-.16-.08-.25-.1-.03,0-.07-.01-.09-.04-.03-.04-.02-.09-.04-.14-.02-.05-.09-.07-.11-.12-.02-.04,0-.08-.02-.12-.03-.07-.15-.07-.16-.15,0-.03.01-.07.04-.09.18-.13.44-.03.48.19.02.12-.08.1-.11.19-.04.11.09.16.17.18.05.01.11.03.15.07.04.04.06.1.02.14Zm1.62-3.45s.05-.03.08-.03c.06,0,.11,0,.17,0,.07,0,.2.03.13.12-.05.07-.23,0-.3-.01-.02,0-.04-.01-.06-.03-.02-.02-.02-.04-.01-.06Zm-1.57.3s-.05-.01-.07-.03c-.02-.03-.06-.04-.09-.06-.07-.03-.14-.07-.21-.1-.02-.01-.05-.02-.06-.04s-.02-.05,0-.07c.02-.03.06-.02.09,0,.06.02.1.03.15.05.03.02.04.04.07.06.03.02.07.05.09.08.02.03.04.08.02.12Zm.09-1.55s-.02,0-.03,0c-.04-.01-.09-.02-.13-.05-.02-.02-.04-.04-.07-.05-.04,0-.09,0-.1-.03,0-.03.02-.05.04-.06.05-.03.13-.06.18-.02.02.02.06.02.06.02.02.02,0,.06.05.1.01.01.03.03.03.05,0,.02,0,.04-.02.05Zm.02-.82s.03-.02.05-.02c.07,0,.17,0,.21-.05.04-.05-.01-.12.07-.15.15-.06.03.2.21.17.02.02,0,.05,0,.06-.02.01-.04.02-.07.02-.03,0-.07,0-.1-.02-.02-.02-.02-.05-.05-.05-.02,0-.03.03-.02.05,0,.02,0,.04,0,.06-.01.01-.04.01-.06,0l-.18-.03s-.05-.01-.05-.03Zm1.83,3.95c-.07.07-.18.05-.27.04-.1-.01-.22,0-.25.09,0,.02,0,.04-.02.06-.03.03-.07,0-.1-.01-.22-.13-.41-.3-.59-.48-.11-.1-.23-.21-.34-.31,0,0-.01-.01-.02-.02-.01-.03.01-.06.04-.07.03,0,.06,0,.09.01-.05-.02,0-.12.03-.14.05-.03.11,0,.15-.02.05-.04.03-.08.1-.12.04-.02.12-.02.17-.02.11,0,.17.02.21.12.03.07,0,.1.08.13.06.03.13.02.2.05.1.04.19.08.29.13.03.01.06.02.07.05.03.04.02.1.06.13.02.02.06.01.08.03.02.01.03.03.03.05.04.1.07.22,0,.3Zm.27-1.84s-.02-.01-.03-.02c-.05-.04-.09-.09-.14-.13-.04-.04-.09-.09-.07-.14.04-.01.08,0,.12.02.09.05.15.08.25.1.05.01.17.03.2.07.12.15-.23.11-.3.1-.01,0-.02,0-.03,0Zm1.39,1.23c-.03.08-.11.06-.18.08-.06.02-.13.08-.18.04-.03-.02-.03-.07-.05-.09-.07-.08-.23.07-.3-.01,0,0-.01-.02,0-.03.08.02.16-.01.22-.07.02-.05-.03-.1-.08-.12-.05-.02-.11-.02-.16-.04-.06-.02-.11-.08-.17-.08-.06,0-.14.02-.17-.03,0-.02,0-.04,0-.06.01-.07.02-.13.03-.2.08-.03.18.03.19.12.06-.03.11-.07.15-.11.01-.01.02-.03.02-.04,0-.01,0-.02-.01-.03-.05-.08-.15-.12-.24-.1-.07.01-.15.05-.21.02-.02-.01-.04-.03-.05-.05-.04-.05-.09-.11-.13-.16.11.02.21.04.32.06.03,0,.06.01.08.03.01.01.02.03.03.03.02,0,.03,0,.05,0,.11,0,.22.06.27.16.01.02.02.05.04.07.02.03.06.04.09.06.09.06.13.18.21.25.05.04.12.07.17.11.04.04.09.12.07.18Zm.51,8.27s-.03,0-.04,0c-.02,0-.03-.02-.04-.03-.06-.06-.13-.12-.2-.15-.02-.01-.05-.02-.07-.04s-.02-.05,0-.07c.01,0,.03,0,.05,0,.14.02.25.15.39.14.08,0,.32-.09.3.08-.01.14-.29.08-.38.08Zm.4-7.59s-.03,0-.04,0c-.01,0-.02-.01-.03-.02-.04-.03-.08-.06-.12-.07-.03-.01-.07-.03-.09-.05-.02-.03-.03-.07,0-.09.03-.01.07,0,.1.01s.06.04.1.05c.09.02.3,0,.33.14.02.11-.16.05-.24.05Zm.66,1.02s-.04-.02-.05-.04c-.01-.02-.01-.04,0-.06.01-.01.03,0,.05-.01.06-.01.09-.1.05-.15-.03-.05-.1-.08-.16-.09-.06,0-.13,0-.19,0,0-.07.09-.11.15-.11.07,0,.13.04.19.08.06.04.11.08.18.1.03,0,.06.01.08.03.02.02.02.04.04.05.03.02.06,0,.09.01.02,0,.03.03.05.04.08.04.12-.04.18.03.02.03.07.14.07.18.01.1-.02.11-.09.1-.07,0-.14-.02-.22-.02-.05,0-.09-.02-.13-.04-.1-.04-.2-.08-.29-.12Zm1.11,7.97s-.04.01-.07.02c-.14,0-.28,0-.41-.02-.02,0-.04,0-.05,0-.04.02-.03.08-.07.11-.1.08-.12-.07-.13-.12,0-.03,0-.07.03-.09.02,0,.03,0,.05,0,.02,0,.03-.02.04-.02.05-.03.11-.02.17-.01.08,0,.16,0,.23-.01.03,0,.05-.01.08,0,.03.01.05.05.08.07.02.01.05.01.06.03.01.02,0,.05-.02.06Zm5.38-.82c.02.06.03.13.02.19-.01.06-.06.12-.12.14-.02,0-.05,0-.06-.02,0,0,0-.02,0-.03.03-.07.03-.14.02-.21-.01-.07-.05-.15,0-.22.03-.05.11-.18.18-.14.13.08-.03.19-.04.26,0,.01,0,.02,0,.03Zm-39.96,30.69s-.11.01-.16.01c-.05,0-.12.02-.15.07-.01.06-.06.1-.12.13-.05.03-.11.04-.17.05-.02,0-.04,0-.06,0-.05-.02-.06-.09-.03-.13.02-.05.07-.08.1-.12.04-.05.06-.12.12-.15.03-.01.06-.01.09-.01.09,0,.18,0,.27,0,.03,0,.07,0,.09.01.03.01.05.04.05.07,0,.03-.02.05-.05.07Zm1.19,9.62s0-.09,0-.13c0-.09-.03-.19-.12-.23-.04-.02-.09-.02-.11-.06-.01-.03,0-.07,0-.1-.01-.02-.03-.03-.05-.04-.05-.03-.08-.1-.06-.15.02-.05.11-.07.14-.02.03.05,0,.11.02.16.1.06.25-.03.33.06.02.03.03.06.06.09.03.04.09.04.13.04.11,0,.19-.02.26.08.04.06.06.3-.08.23-.02,0-.03-.02-.04-.03-.05-.04-.13-.04-.18,0-.04.03-.06.09-.09.13-.03.05-.08.09-.13.07-.04-.01-.07-.06-.07-.1Zm.87.67c-.01.08-.04.15-.05.23,0,.08,0,.15,0,.23,0,.16-.06.31-.11.45-.02.07-.05.15-.1.21-.05.06-.13.1-.2.08-.11-.03-.15-.16-.23-.25-.02-.03-.05-.05-.07-.08-.04-.06-.03-.16.03-.21.12.03.25,0,.34-.08-.04-.14.14-.27.13-.42,0-.04-.02-.08-.02-.12,0-.06.02-.11.04-.17.03-.09.05-.2.04-.29,0-.02,0-.05,0-.07.06-.12.18.05.19.1.03.11.02.28,0,.39Zm.8-9.28c-.01.05-.02.1-.03.15,0,.02-.01.05-.04.06-.02.01-.05,0-.07-.02-.02-.02-.02-.05-.03-.07-.03-.07-.07-.13-.14-.18-.02-.01-.04-.02-.06-.04-.04-.05-.02-.12-.03-.19,0-.06-.04-.11-.08-.14-.01-.01-.03-.02-.04-.03-.02-.02-.02-.06-.01-.09.07-.25.2.15.23.17.04.02.1.02.13.05.02.02.02.05.03.07.03.05.1.07.13.12.02.04.01.09,0,.14Zm13.73,2.69s-.03.05-.05.08c-.05.06-.1.11-.15.17-.01.02-.03.03-.05.03-.02,0-.03,0-.05,0-.04,0-.1,0-.13-.03-.02-.02-.02-.05-.04-.08-.02-.05-.07-.08-.12-.1-.01,0-.03-.02-.03-.03,0-.02,0-.05.03-.06.02-.01.04-.02.06-.03.05-.03.07-.1.1-.15.03-.04.09-.07.14-.08.07-.01.2-.03.25.04.04.06.06.19.03.26Zm5.29,17.95s-.06.03-.09.06c-.08.08-.04.23-.1.33-.02.02-.04.05-.07.05-.04,0-.08-.03-.1-.07-.02-.04-.02-.08-.02-.13,0-.2,0-.41,0-.61,0-.06,0-.14-.06-.16-.04-.01-.09,0-.11-.04,0-.02,0-.03,0-.05.02-.04.06-.08.11-.08.09,0,.06.07.09.11.05.06-.05.05.07.06.09,0,.16-.06.25,0,.15.1.16.43.02.53Zm7.55,18.41c-.01.08-.08.18-.16.15-.05-.02-.06-.08-.09-.13-.07-.12-.24-.13-.38-.12-.03-.07.02-.15.08-.2.07-.07.15-.13.24-.15.09-.03.2-.01.27.04.07.03.02.08.03.18.01.07.01.15,0,.23Zm3.37-3.93c0,.08-.02.18-.09.22-.1.07-.25-.02-.37,0-.08.01-.15.06-.22.11-.15.1-.31.13-.46.21-.11.05-.21.16-.33.18-.03-.11.04-.2.11-.27.16-.16.36-.29.58-.36.06-.02.13-.04.18-.08.05-.03.09-.08.14-.11.1-.06.23-.06.34-.05.03,0,.05,0,.07.02.05.03.05.09.04.15Zm9.14-30.58c.11-.07.14-.1.23-.21.06-.07.13-.14.24-.11.24.06.22.41-.03.45-.13.02-.27,0-.4-.03-.03,0-.06-.02-.06-.05,0-.02.02-.04.03-.05Zm-.94,9.07c.09-.11.14-.26.14-.41,0-.07-.01-.14.02-.19.1-.19.24.1.26.17.04.16,0,.35-.04.5-.02.07-.04.16,0,.22.03.03.06.04.1.06.11.07.16.24.29.27.04,0,.08,0,.1.03.01.02.02.04.02.06.02.15.02.31.01.46,0,.05,0,.1-.04.13-.03.04-.09.05-.12.02-.01-.02-.02-.04-.02-.06-.03-.14-.01-.3-.11-.4-.05-.04-.11-.07-.15-.11-.04-.04-.07-.09-.1-.14-.09-.15-.2-.29-.33-.41-.04-.04-.08-.08-.07-.13,0-.03.02-.05.04-.07Zm-6.56-18.41c.06.01.11.43.13.5,0,.03.02.07.04.1.04.05.11.07.12.13.02.06-.04.12-.1.14-.06.01-.13,0-.19-.03-.02,0-.05-.02-.07-.04-.02-.03-.02-.07-.02-.1,0-.09-.05-.72.09-.69Zm-.34,23.18s.06-.07.1-.1c.07-.06.17-.23.27-.12.06.07-.04.26-.09.31-.03.03-.07.05-.09.08-.09.11.02.31-.08.41-.03.03-.06-.02-.06-.06-.02-.13-.03-.27-.05-.4,0-.04-.01-.09,0-.13Zm-.69,9.01s-.02.02-.02.03c0,.01,0,.02,0,.03.02.06.04.12.01.17-.01.02-.03.04-.04.05-.04.04-.08.08-.12.12-.04.04-.08.08-.12.1-.05.02-.11.03-.15,0,0,0-.02,0-.02-.02-.02-.03.01-.07.02-.11,0-.03,0-.06,0-.1,0-.08.02-.15.05-.22.03-.09.07-.18.14-.24.08-.06.19-.08.29-.09.04,0,.08,0,.11.02.1.07-.11.2-.15.24Zm.19-6.75c-.07-.1-.13-.21-.13-.33,0-.13.05-.26.1-.38.01-.03.02-.05.05-.07.04-.02.09,0,.12.03.03.03.03.08.02.12.02.21-.04.41-.07.63,0,.01,0,.03-.02.04-.02.01-.05,0-.06-.03Zm1.14,5.09c-.02-.22-.16-.43-.35-.54-.08-.04-.17-.08-.2-.16-.03-.07,0-.15-.03-.22-.04-.1-.17-.12-.24-.2-.04-.04-.05-.1-.06-.15-.05-.27,0-.56-.09-.81-.02-.06-.05-.12-.07-.18-.03-.09-.03-.18-.03-.27,0-.43-.01-.86-.01-1.29,0-.54.26,0,.35.2.05.1-.01.21-.03.31-.02.1.07.25.16.2-.06.08.11.16.12.26.01.06-.04.12-.06.18-.06.21.32.37.24.58-.02.04-.05.08-.05.13,0,.07.07.12.12.17.12.12.13.32.03.45-.14-.02-.27.14-.22.27.04.12.17.17.28.23.11.06.22.16.2.28.14-.05.34-.09.4.05.01.02.02.05.04.07.03.02.06,0,.09.01.09.02.09.15.06.24-.04.09-.09.19-.04.26.06.08.2.07.23.16.04.11-.11.22-.07.32.04.1.21.09.24.19.03.08-.06.17-.05.25,0,.07.08.12.14.17.06.05.1.14.04.19-.17-.01-.34-.04-.48-.12-.14-.08-.25-.24-.23-.41,0-.06.03-.11.02-.17-.02-.14-.21-.25-.14-.38-.1-.1-.19-.19-.29-.29Zm2.67,1.13c-.08-.02-.07-.14-.13-.2-.1-.09-.28.1-.39.02-.05-.03-.06-.1-.1-.15-.13-.14-.27-.11-.3-.35-.02-.14,0-.28.17-.29.29-.02.63.46.76.66.04.06.09.11.1.17.01.06-.04.15-.1.13Zm2.11,1.95c.05.11-.04.23-.03.34,0,.05.02.11.04.16.06.14.11.28.17.43.03.07.06.15.04.23-.01.08-.09.15-.17.13.05.07.03.17-.01.24-.04.07-.11.14-.15.21-.08.15-.06.34.05.47.05.06.12.11.14.18.05.17-.15.37-.04.5.05.06.16.08.19.16.03.1-.11.19-.09.29.02.09.13.12.17.2.04.1-.07.2-.17.2-.11,0-.2-.06-.29-.12s-.2-.11-.3-.08c.03-.09,0-.2-.09-.26-.03-.02-.07-.04-.1-.07-.09-.12.11-.26.09-.4-.02-.15-.26-.22-.24-.36,0-.06.06-.1.06-.16,0-.07-.06-.11-.1-.17-.12-.16-.01-.39.09-.56.03-.06.07-.11.1-.17.05-.08.12-.17.21-.15.08-.24-.16-.46-.19-.71-.02-.18.06-.36.08-.54.02-.18-.07-.39-.27-.41-.02-.21-.09-.6.21-.51.22.07.39.38.44.59.02.07.02.15.06.22.03.05.07.08.09.13Zm-1.54-31.5c.04-.06.14-.03.19.01.1.09.15.23.19.35.06.15.09.31.1.46,0,.06,0,.13-.05.16-.05.03-.13,0-.16-.06-.03-.06-.03-.12-.03-.19,0-.07,0-.14-.02-.2-.02-.07-.06-.13-.13-.16-.04-.02-.09-.03-.11-.07,0-.02,0-.04,0-.05,0-.05,0-.11,0-.16,0-.03,0-.07.02-.1Zm-.67,3.54s.11-.01.14.03c.03.04.04.1.04.15.09-.02.19-.02.28,0,.02,0,.05,0,.07.03.02.02.02.06.02.09,0,.08.03.16.03.24,0,.03-.02.06-.05.06-.01,0-.03,0-.04-.02-.11-.08-.22-.15-.34-.23-.02-.01-.03-.02-.04-.04,0-.02,0-.04,0-.05-.01-.04-.06-.05-.1-.08-.06-.04-.07-.13-.02-.17Zm-.44,17.61c-.03-.26-.04-.58.18-.72.15-.09.35-.25.5-.28.16-.04.37-.02.53-.02.4,0,.81.07,1.07.42.05.07.09.15.09.23,0,.06-.03.12,0,.17.03.07.14.1.15.18,0,.07-.06.11-.09.17-.03.06-.02.13-.03.19-.03.29-.27.5-.53.64-.06.03-.12.06-.15.12-.02.03-.02.06-.03.1-.03.16-.04.38.11.45.08.04.2.03.23.11.04.08-.06.17-.16.18-.09,0-.19-.03-.28-.01.02.07-.03.14-.09.17-.07.03-.14.03-.21.02-.14,0-.27-.01-.41-.02-.1,0-.2-.01-.28-.08-.06-.05-.11-.15-.19-.15-.09,0-.15.11-.24.1-.04,0-.09-.03-.13-.02-.06.02-.07.11-.12.14-.05.02-.11-.02-.13-.08-.02-.05-.02-.12-.03-.17-.02-.07-.08-.13-.1-.2-.02-.08.01-.17.04-.25.07-.21.09-.44.06-.66-.01-.08-.03-.18.03-.24.03-.03.07-.04.1-.06.13-.08.14-.27.12-.43Zm-.47-26.49s.09-.07.12-.11c.05-.08.02-.48.19-.34.1.08.09.39.06.49,0,.02-.01.04-.03.06-.02.02-.05.02-.08.02-.07,0-.15,0-.22-.02-.03,0-.07-.02-.07-.05,0-.02.01-.03.02-.04Zm.03,41.92s.09,0,.13.03c.07.06.02.19-.07.22-.09.03-.18,0-.28-.02-.26-.06-.54-.05-.8.04.03.07.06.14.04.21-.01.07-.08.13-.15.12-.07-.02-.1-.09-.16-.14-.07-.06-.18-.05-.27-.05-.1-.25.15-.15.24-.17.18-.03.11-.15.25-.22.02-.01.05-.01.07-.01h.99Zm-.28-18.41c.11.06.11.36.1.46,0,.04-.02.09-.04.12-.04.07-.12.1-.18.14-.12.07-.22.16-.3.27-.04.06-.08.12-.14.17-.05.05-.13.09-.2.07.01-.37.19-.7.41-.98.07-.09.21-.32.35-.25Zm-.75-22.22c.07,0,.09-.1.09-.17,0-.07-.02-.15.03-.2.06-.05.25-.05.3.02.07.09-.04.22-.1.29-.06.07-.14.14-.23.12.03.06-.03.13-.1.13-.06,0-.11-.07-.1-.14,0-.02.01-.04.03-.05.03-.02.06,0,.09,0Zm4.22-16.78s-.04.13-.08.15c-.03.01-.06,0-.08-.04-.01-.03-.02-.06-.03-.09-.03-.07-.08-.15.01-.19.05-.02.16,0,.2.05.06.07,0,.06-.03.12Zm1.37-9.81c-.05,0-.11-.02-.16-.04-.01,0-.03,0-.04-.02-.01,0-.02-.02-.03-.04-.05-.09-.11-.18-.16-.27-.02-.03-.04-.08,0-.1.06.01.12.02.18.04.02,0,.04,0,.06.02.02.01.03.04.04.06.04.08.17.24.12.34Zm.1-3.72c-.07.03-.14.06-.21.09-.21.1,0,.22.03.36,0,.07-.05.14-.03.21,0,.02.01.04.01.05,0,.02-.02.04-.03.04,0,0-.01,0-.02,0-.07-.06-.13-.13-.18-.21,0-.01-.02-.03-.02-.04,0-.04.03-.08.04-.13,0-.06-.05-.13,0-.17,0,0,.02-.02.03-.02.03-.02.07-.03.09-.06.02-.03.04-.07.02-.1-.01-.04-.05-.06-.09-.08-.01,0-.03-.01-.04-.03,0-.02,0-.04.02-.05s.04-.01.06-.01c.07,0,.15,0,.21.03.02,0,.03.02.05.03.02,0,.05,0,.07,0,.03,0,.09,0,.08.05,0,.02-.07.03-.09.04Zm.35-6.93s-.05,0-.07,0c-.04-.01-.08-.02-.12-.02-.03,0-.06,0-.08.02-.02.02-.04.05-.02.07.05,0,.1.03.12.08.01.05-.02.11-.06.13-.03.01-.05.01-.08.02-.03,0-.05.03-.06.05,0,.03.02.07,0,.09,0,0-.02,0-.03,0-.03,0-.06-.03-.06-.06,0-.03.01-.07.04-.08.02,0,.04-.01.05-.02.04-.03.03-.08,0-.13-.02-.04-.05-.08-.05-.13.02-.13.31-.19.41-.21.01,0,.03,0,.04,0,0,0,.01.02.02.03,0,.03.01.05.01.08s-.02.05-.04.06Zm1.59,20.73c-.06.07-.23.07-.31.07-.02,0-.05,0-.06-.01-.02-.01-.02-.04-.03-.06-.03-.05-.1-.07-.15-.06-.06,0-.12.03-.17.03-.04,0-.09-.02-.1-.06-.01-.04.01-.08.05-.1.03-.02.07-.04.11-.06.03-.02.05-.06.09-.07.09-.05.21.02.28-.05.04-.03.05-.1.1-.11.02,0,.04,0,.06,0,.03,0,.06,0,.09.01.04,0,.08.02.09.05.02.04-.02.08-.05.11-.03.03-.07.06-.07.1,0,.09.17.12.09.23Zm8.04-7.46s.06-.02.09-.02c.11,0,.23,0,.34,0,.03-.02,0-.07-.04-.09-.04-.01-.08-.02-.1-.04-.01-.01-.02-.03-.03-.04-.03-.03-.08-.04-.08-.08,0-.02,0-.03.01-.05.01-.04,0-.08-.01-.12,0-.04,0-.09.04-.1.05-.01.08.04.12.08.09.09.23.09.3.21.02.04.02.08,0,.11-.01.02-.03.02-.04.04-.02.03,0,.06,0,.1,0,.05-.07.08-.12.08-.05,0-.1-.02-.16-.02-.1,0-.21.07-.31.03-.01,0-.03-.01-.03-.03-.02-.03,0-.06.03-.08Zm-.53.29c.06-.03.14,0,.19-.04.02-.02.03-.05.04-.08.05-.17.14-.02.14.08-.01.12-.1.23-.09.35,0,.12.1.21.18.3.13.14.24.33.21.52,0,.05-.05.1-.09.08,0,0-.02-.01-.02-.02-.07-.11-.15-.21-.22-.32-.04-.06-.09-.13-.12-.2-.05-.12-.05-.25-.11-.36-.03-.05-.07-.09-.09-.15-.03-.05-.04-.12,0-.17Zm-6.61-14.93s.08.08.13.1c.01,0,.03,0,.04.01.01.01.02.03.03.04.02.02.04.02.06.02.07.01.11.07.17.09.06.02.11-.02.17.03.05.04.06.12.02.17,0,.01-.02.03-.04.02,0-.05-.04-.1-.08-.13-.05-.03-.1-.03-.15,0,0-.03-.01-.07-.04-.09-.03-.02-.06-.03-.1-.03-.05-.01-.1-.02-.15-.03-.02,0-.05-.01-.06-.03-.02-.02-.02-.05-.03-.08-.01-.03-.05-.05-.08-.08-.03-.02-.05-.06-.05-.09.05,0,.1.03.14.07Zm1.39,22.97s0,.04,0,.07c0,.03-.03.06-.06.06-.03,0-.06-.01-.08-.04-.01-.02-.02-.04-.01-.07,0-.02.01-.04.01-.06,0-.02,0-.04-.02-.05-.04-.07-.09-.16-.17-.15-.02,0-.03,0-.05,0-.02,0-.03-.03-.03-.05,0-.02,0-.04,0-.07,0-.03-.02-.05-.04-.07-.02-.02-.03-.05-.04-.07,0-.03.02-.06.05-.06.05,0,.15.1.2.13.04.03.08.04.11.08.04.05.05.11.1.15.04.03.15.02.14.1,0,.05-.09.06-.1.1Zm6.23.08c-.09.02-.18,0-.28-.02-.14-.02-.29.02-.39.13-.03.03-.05.06-.09.07-.03,0-.06-.02-.1-.02-.06,0-.1.04-.15.08-.14.12-.36.15-.52.07-.07-.03-.12-.08-.19-.11-.22-.11-.52-.05-.72-.2-.08-.06-.13-.15-.2-.22-.07-.07-.16-.13-.26-.12-.07,0-.14.06-.21.04-.04,0-.08-.04-.12-.05-.15-.07-.38,0-.47-.15-.02-.04-.03-.08-.06-.11-.03-.02-.07-.03-.1-.05-.03-.02-.05-.05-.07-.08-.11-.18-.19-.38-.26-.57-.04-.11-.1-.2-.14-.32.08-.23.15-.48.07-.72-.02-.07-.06-.15-.07-.22-.03-.23.2-.41.42-.48-.12-.12-.28-.2-.45-.24-.05-.01-.11-.02-.15-.05-.03-.02-.05-.05-.08-.08-.09-.1-.21-.15-.31-.24-.05-.05-.09-.1-.14-.15-.18-.21-.41-.38-.66-.49-.06-.03-.13-.05-.19-.09-.04-.02-.08-.05-.11-.08-.11-.09-.22-.18-.33-.27-.11-.09-.21-.17-.32-.26-.05-.04-.09-.08-.13-.13-.03-.04-.05-.09-.07-.14-.08-.19-.16-.38-.24-.58-.03-.06-.05-.12-.09-.18-.03-.04-.08-.07-.12-.11-.17-.13-.33-.26-.5-.39.08-.09.13-.22.13-.35.02-.2,0-.41-.04-.61.15.01.31.03.46,0,.15-.03.3-.12.37-.26.01-.02.02-.05.01-.07-.01-.03-.05-.05-.07-.08-.03-.06.03-.13.1-.14.07-.01.13.01.2,0s.13-.09.09-.14c-.02-.03-.06-.04-.08-.07-.03-.07.07-.1.13-.14.1-.06.1-.21.17-.3.11-.14.33-.11.49-.05.17.06.35.14.51.07.04-.02.08-.05.13-.06.11-.03.22.04.32.11.14.1.28.21.42.31.03.02.06.05.08.08.04.07.01.15,0,.23,0,.08.03.17.11.18.18.04.4.08.53-.06.02-.02.04-.05.07-.05.06,0,.08.08.11.13.04.05.1.06.15.07.2.06.37.19.48.36-.14-.04-.29.06-.32.2-.11-.07-.28.02-.29.15,0,.06.03.12.03.19,0,.06-.03.14-.09.15-.08,0-.11-.11-.11-.19,0-.16,0-.32,0-.48-.08-.06-.19.04-.29.06-.1.01-.18-.05-.27-.1-.09-.04-.21-.06-.26.02-.19-.13-.47-.11-.64.05-.02.02-.04.04-.04.07,0,.03.01.05.02.07.09.15.19.31.28.46-.05.06-.14.02-.19-.03s-.12-.11-.19-.09c-.03,0-.05.03-.08.05-.07.06-.13.13-.2.19.16.09.31.17.47.26.02.01.04.02.06.03.16.09.32.18.45.3.04.03.07.07.09.12.04.08.04.18.06.26.03.09.1.17.19.15.08-.02.17-.11.22-.05.03.04.01.09.03.14.01.03.04.05.07.07.2.12.45.17.68.12-.02.34.12.69.37.93.06.06.13.11.21.11.03-.16-.03-.32-.15-.42.18-.04.35-.19.54-.15.08.02.15.07.21.12.25.2.51.39.76.59.05.04.1.09.1.15,0,.03-.02.06-.04.08-.06.08-.13.16-.21.21-.09.05-.2.06-.28,0-.04-.04-.1-.09-.14-.06-.03.02-.03.06-.05.09-.03.04-.1.04-.15.05-.07.02-.11.1-.11.18,0,.08.03.15.05.22.05.12.1.24.22.29.07.03.14.03.21.04.2.03.37.17.44.36.03.07.04.15.1.2.06.05.15.05.22.09.12.06.17.21.19.34.02.13.03.28.12.38.22.28.28.64.44.96.02.04.04.08.07.11.07.06.19.06.23.14.04.08-.04.18-.13.2Zm.41-4.59s-.07.02-.1.02c-.06,0-.11-.01-.17,0-.03,0-.05.02-.08.03-.03,0-.06,0-.08-.02-.02-.02-.01-.05,0-.07.04-.08.07-.11.07-.21,0-.06-.04-.1.03-.11.07,0,.3.17.34.23.02.04.02.1-.01.13Zm.15-2.26s-.1.02-.14,0c-.06-.02-.12-.04-.17-.08-.05-.03-.08-.08-.13-.1-.06-.03-.12-.03-.19-.03.02-.11.05-.22,0-.33-.02-.05-.06-.09-.09-.14-.06-.08-.13-.15-.19-.23-.05-.06-.1-.12-.1-.19,0-.03,0-.06.02-.09.01-.04.02-.08.03-.12,0-.03.02-.05.04-.07.07-.06.19.19.25.23.04.03.09.04.13.07.07.05.11.14.15.22.11.23.24.45.38.67.03.05.07.12.03.17Zm.8-1.26c-.14-.01-.29.01-.44.02-.02,0-.04,0-.06,0-.02,0-.03-.03-.03-.05,0-.02.03-.03.05-.03.13-.04.59-.2.64.03.02.11-.09.05-.16.04Zm3.58,1.5c-.14-.1-.27-.23-.45-.25-.04,0-.07,0-.11-.02-.03-.01-.07-.04-.07-.08,0-.04.04-.07.08-.08.04,0,.08,0,.12.02.29.11.48.33.74.47.04.02.09.04.13.07.08.05.13.13.21.19.02.02.05.03.07.05s.02.06,0,.08c-.11-.07-.22-.13-.33-.2-.13-.08-.27-.16-.39-.26Zm1.8,2.43s-.04,0-.06,0c-.07-.02-.14-.06-.2-.11-.02-.02-.04-.04-.06-.06-.09-.06-.22.02-.32-.04-.02-.01-.04-.03-.06-.04-.04-.02-.08-.02-.12-.02-.12,0-.25.02-.37,0-.09-.02-.16-.12-.02-.12l.38-.05s.05,0,.08,0c.03,0,.06.02.09.03.1.03.2-.02.3,0,.03.01.06.03.08.04.09.06.18.12.25.2.02.02.05.05.05.08,0,.03,0,.07-.03.08Zm.23-4.19s-.09.03-.13,0c-.04-.03-.06-.07-.09-.11-.1-.11-.27-.14-.37-.24-.06-.06-.09-.14-.12-.22-.03-.08-.06-.15-.09-.23-.02-.06-.05-.12-.05-.18,0-.08.03-.17.01-.25,0-.03-.02-.06-.01-.08,0-.04.06-.06.1-.06.04,0,.09,0,.13,0,.04-.01.07-.04.11-.06s.09-.03.12,0c.01.01.02.03.03.04.07.08.18.02.25.08.07.06-.02.1-.03.19,0,.04-.07.04-.1.02-.03-.02-.06-.06-.1-.05-.04,0-.06.05-.08.08-.02.03-.06.07-.09.05.03.06.05.11.08.17,0,0,0,.01,0,.02.02.04.04.08.05.11-.04,0-.08,0-.12.02-.01.05.05.07.1.09.1.03.18.08.26.14.06.04.12.1.09.16-.03,0-.06,0-.09.01-.03.06.03.12.08.16.05.04.1.11.06.16Zm.81-1.14s-.05-.03-.07-.04c-.08-.03-.16.06-.25.05-.08,0-.14-.08-.21-.12-.03-.01-.07-.03-.06-.06,0-.02.02-.03.04-.03.02,0,.04,0,.06,0,.06,0,.12-.04.16,0,0,0,.01.02.02.03.03.03.07.04.11.02.06-.03-.01-.21.04-.25.05-.04.13,0,.16.05.05.06.21.41,0,.35Zm.34-3.98s.06-.02.09,0c.03.02.06.04.09.03.09-.03.23.22.3.29.02.02.05.05.05.08,0,.03-.03.07-.06.06,0,0-.01,0-.01,0-.09-.07-.19-.13-.28-.2-.04-.03-.08-.06-.12-.09-.04-.03-.07-.08-.07-.13,0,0,0-.02,0-.03Zm.43,2.48c-.08-.05-.2,0-.28-.05-.03-.02-.04-.04-.07-.06-.02-.01-.05-.02-.06-.04-.02-.02-.02-.05,0-.07.01-.01.03-.01.04,0,.08,0,.15.05.23.07.07.02.15-.03.21-.01.07.02.17.23.05.23-.04,0-.07-.04-.11-.06Zm.7,1.71c-.05,0-.09-.04-.12-.08-.06-.06-.13-.12-.21-.16-.03-.01-.05-.02-.07-.04-.02-.01-.03-.03-.04-.05-.03-.05-.06-.1-.1-.14-.02-.03-.05-.08-.03-.12,0-.03.33.17.36.21.03.04.05.08.07.12.06.08.09.08.17.12.03.01.04.05.04.08,0,.03-.03.06-.06.06Zm.63,17.2s-.03.06-.06.08c-.01,0-.03,0-.05,0-.03,0-.05,0-.08,0-.06,0-.13,0-.18-.04-.05-.04-.05-.11-.05-.17.04.01.08-.03.09-.07.01-.08-.08-.19-.04-.26.05-.07.11-.03.16,0,.09.08.23.33.2.45Zm.19-14.13c-.06.02-.13.02-.19.03-.04,0-.08.02-.12.01-.02,0-.04-.01-.07-.02-.06-.02-.12-.02-.18-.02-.02,0-.04,0-.05-.01-.01-.02,0-.04,0-.05.02-.01.04-.02.06-.02.06-.01.13-.04.15-.11,0-.01,0-.03,0-.04.03-.06.14-.04.17-.1.01-.03,0-.07,0-.1,0-.03.04-.05.07-.05.03,0,.06.02.07.04.01.01.02.03.03.04.02.01.04,0,.06.01.15.04.1.34-.03.38Zm5.54,17.57s-.03.03-.04.04c0,.01,0,.03-.01.04-.01.04-.05.08-.09.08-.04,0-.09,0-.12-.04-.04-.05-.03-.13-.07-.18-.02-.03-.04-.05-.08-.06-.01,0-.03,0-.04-.01-.02-.02-.02-.05-.02-.08,0-.04,0-.09.04-.11.02-.01.04-.01.07-.02.07-.03.07-.12.07-.19,0-.08.05-.12.11-.07.04.03.07.16.08.21.01.05.02.11.04.16.02.04.04.07.06.1s.02.08,0,.11Zm2.16-5.44c-.06-.02-.1-.08-.14-.14-.08-.12-.16-.24-.21-.37-.03-.06-.05-.12-.09-.17-.04-.05-.09-.09-.16-.09.02-.13-.01-.26-.06-.38-.01-.03-.03-.07-.03-.11,0-.08.07-.13.13-.08.05.04.07.18.08.23.01.04.03.09.05.13.13.26.25.53.38.79.03.05.05.11.04.17Zm2.98-3.05s-.04,0-.05-.02c0-.02,0-.04-.02-.06,0-.02-.02-.03-.02-.04,0-.02,0-.04-.02-.06,0,0-.02-.01-.02-.02-.03-.02-.03-.06-.03-.09,0-.05,0-.09,0-.14,0-.01,0-.02.01-.03.07-.05.12.07.13.12.02.1.02.2.02.3,0,.01,0,.03-.01.04Z"/>
          <path class="cls-2" d="m44.78,1.48c0,.24-.16.48-.39.56-.04.01-.07.02-.1.05-.02.02-.03.04-.05.06-.04.03-.1,0-.14-.02-.12-.07-.28-.15-.38-.05-.03.02-.04.06-.07.08-.04.04-.08.06-.13.08-.14.06-.28.12-.42.17-.04.02-.08.03-.12.05-.21.08-.42.16-.62.26-.09.04-.18.08-.27.1-.14.03-.45.02-.51.15.05,0,.09,0,.14-.01-.73.34-1.49.61-2.27.82-.16.04-.32.08-.45.18.15-.02.31-.03.46-.05-.33.19-.67.36-1.02.49.01-.07.02-.15.03-.22-.19.02-.35.17-.39.35-.5.21-1.01.41-1.51.62-.07.03-.14.06-.22.06-.11,0-.22-.04-.31,0-.04.02-.08.05-.12.08-.18.14-.43.15-.66.15.04.03.08.07.11.1-.37.41-1.11.17-1.53.52.06,0,.09.07.07.12-.02.05-.07.08-.12.11-.49.28-.98.57-1.48.85-.12.07-.24.14-.32.25-.22.13-.44.27-.67.4-.09.06-.19.11-.25.19-.05.06-.09.13-.14.19-.18.22-.53.27-.68.51.1.02.2.04.3.06-.2.09-.26.34-.29.56,0,.07-.02.13-.03.2.19-.09.35-.22.48-.38.06.05.16.01.23-.03.64-.35,1.27-.7,1.91-1.06.46-.25.91-.51,1.38-.74.24-.12.48-.23.72-.34.08-.04.16-.07.24-.1.06-.02.11-.04.17-.05.1-.03.19-.06.29-.09.46-.14.91-.29,1.37-.43-.04.24-.49.19-.56.42.33-.04.64-.19.87-.43.01.08.02.15.03.23.78-.34,1.59-.62,2.4-.91-.07,0-.11.11-.05.16.21,0,.44-.01.65-.02.64-.02,1.27-.16,1.86-.39.15-.06.3-.13.46-.13.1,0,.2.02.31,0s.21-.08.23-.18c-.36-.11-.74-.12-1.11-.04.25-.24.64-.33.97-.21.05-.11.14-.2.25-.25-.09-.08-.15-.21-.14-.33.12-.04.26.12.19.23.08-.02.17,0,.22.06-.09.12-.18.24-.27.37.12-.08.28.11.42.07.05-.01.08-.05.12-.08.14-.12.31-.2.44-.33.13-.13.22-.33.13-.49.05,0,.1,0,.16,0,.02.11.07.21.14.3.07-.12.21-.21.35-.2-.07-.03-.11-.11-.1-.18.09.12.26.18.4.13-.09-.14-.18-.29-.27-.43.11-.04.23-.03.33.03-.03.08.04.18.12.2s.18,0,.26,0c.15-.03.3-.07.45-.1-.05-.01-.05-.09-.02-.13s.09-.04.15-.04c.12,0,.24,0,.36-.01.08,0,.18,0,.24-.06.07-.05.09-.17.01-.22.15-.19.52.21.67.01-.01-.06-.07-.11-.13-.1.1-.12.25-.2.4-.22-.04-.08-.08-.15-.14-.22.37-.01.73-.03,1.1-.04-.02-.1-.09-.2-.19-.24-.05-.08.12-.11.19-.05.07.07.16.16.23.1-.03-.13.06-.26.18-.32.11-.06.25-.07.38-.08.02.05.06.1.11.12.16-.09.32-.18.49-.26.06-.03.13-.07.2-.06.07,0,.14.06.13.13.12-.07.25-.1.39-.13.53-.12,1.06-.23,1.59-.35-.39-.29-1.04.19-1.4-.13.26-.04.53-.08.79-.12-.06-.08-.11-.17-.17-.25-.27.02-.54.04-.81.07-.03,0-.05,0-.08,0-.14.01-.27.02-.41.05-.11.03-.22.07-.33.04-.03,0-.06-.02-.08-.02-.06,0-.12.03-.17.05-.12.05-.26.07-.39.03-.02-.05-.04-.1-.06-.15-.09.07-.23.14-.32.07-.03-.02-.05-.06-.08-.07-.03-.01-.06,0-.09,0-.39.03-.79.06-1.18.12-.47.08-.93.2-1.4.28-.3.05-.63.08-.91-.05-.12-.06-.21-.16-.28-.27-.15.03-.3.07-.46.1,0,.03,0,.05,0,.08Z"/>
          <path class="cls-2" d="m15.93,18.08c.3-.15.6-.3.9-.45.07-.04.15-.08.21-.14.06-.07.09-.16.15-.24.1-.13.27-.2.4-.31.17-.14.25-.36.36-.55.27-.49.69-.87,1.11-1.23.38-.33.76-.67,1.14-1-.04.1-.01.23.07.3.31-.44.87-.7,1.41-.64-.36.18-.7.39-1.03.62-.3.22-.59.46-.87.69-.05.04-.11.09-.16.13-.35.3-.71.59-1.06.89,0,.05.02.1.03.14.04.19.16.44.34.38-.27.23-.53.46-.8.69.11.17.38.14.54,0,.15-.13.22-.33.33-.51.11-.17.28-.33.48-.31-.06-.1-.09-.21-.1-.33.21-.11.42-.23.64-.34,0-.26.21-.5.47-.53-.02-.12-.11-.22-.23-.25.99-.83,1.97-1.66,2.96-2.5.09-.07.18-.15.28-.19.17-.07.36-.05.53-.12.17-.07.29-.3.16-.43-.06-.05-.14-.06-.19-.12-.08-.1,0-.25.11-.31.11-.06.25-.05.37-.07.13-.02.26-.08.38-.14.52-.25,1.1-.54,1.3-1.09.05-.13.07-.26.12-.39.13-.33.4-.57.65-.82.03-.03.07-.08.11-.12-4.08,2.61-7.81,5.73-11.1,9.27Z"/>
          <path class="cls-2" d="m9.33,88.66c-.07-.33-.14-.66-.22-.99-.04-.19-.09-.38-.22-.52-.11-.13-.28-.2-.42-.29-.61-.38-.91-1.2-.69-1.89.19-.07.39-.13.58-.2.47-3.13-1.97-6.23-1.22-9.31.12-.51.33-1,.46-1.51.45-1.78-.1-3.65-.73-5.37-.05-.14-.1-.28-.22-.37-.14-.11-.33-.12-.49-.18-.4-.15-.61-.59-.81-.97-.52-.96-1.29-1.79-2.21-2.37-.08.08-.15.16-.23.24-.28-1.05-.71-2.06-1.28-2.99-.1.27-.21.54-.31.82-.15-1.63-.3-3.26-.44-4.89-.11-1.19-.22-2.38-.6-3.51-.05-.16-.11-.32-.17-.48-.07,1.14-.11,2.28-.11,3.43,0,11.57,3.43,22.34,9.33,31.34Z"/>
        </g>
      </g>
      <g>
        <path class="cls-4" d="m185.2,114.49l-6.16-20.08h-35.92l-6.89,20.08h-21.55l34.75-97.35h23.6l34.31,97.35h-22.14Zm-24.19-75.5h-.15l-12.46,38.7h24.78l-12.17-38.7Z"/>
        <path class="cls-4" d="m214.81,114.49V17.15h20.38v79.61h48.23v17.74h-68.61Z"/>
        <path class="cls-4" d="m381.51,114.49l-.44-9.68c-4.69,8.21-15.83,13.05-29.17,13.05-26.98,0-44.13-25.07-44.13-52.19,0-28.73,16.42-51.75,47.94-51.75,23.16,0,41.05,13.78,42.52,33.28h-20.52c-1.03-9.09-10.85-16.42-21.99-16.42-16.27,0-27.12,12.61-27.12,35.77,0,15.98,8.06,34.16,26.98,34.16,13.34,0,23.75-10.12,23.75-22.28h-21.55v-16.27h40.61v52.34h-16.86Z"/>
        <path class="cls-4" d="m452.03,114.49v-44.71c0-10.85-3.67-14.22-12.32-14.22-9.53,0-14.81,7.92-14.81,17.59v41.34h-19.06V15.97h19.06v35.77c2.79-6.45,11.58-11.29,21.26-11.29,14.81,0,25.07,8.65,25.07,23.02v51.02h-19.21Z"/>
        <path class="cls-4" d="m524.75,114.49c-.59-1.76-1.03-4.25-1.17-6.45-4.54,4.98-12.17,8.36-21.84,8.36-16.42,0-24.04-8.06-24.04-19.79,0-20.82,13.93-23.16,33.13-25.8,9.53-1.32,12.17-3.23,12.17-8.21,0-4.69-4.69-7.48-12.17-7.48-8.65,0-12.17,4.25-13.05,10.7h-17.74c.29-14.95,8.5-25.36,31.67-25.36s30.79,10.26,30.79,28.44v45.59h-17.74Zm-1.32-35.33c-1.91,1.91-5.28,2.93-12.32,4.25-10.85,2.05-14.37,5.13-14.37,11.29,0,5.42,3.23,8.06,9.24,8.06,9.82,0,17.15-7.18,17.3-15.69l.15-7.92Z"/>
        <path class="cls-4" d="m594.24,64.21c-1.03-7.04-4.84-9.53-13.49-9.53-7.18,0-11.29,1.76-11.29,6.01s3.96,6.01,11.73,8.21c8.21,2.35,15.98,3.96,21.55,6.16,7.62,3.08,11.88,8.06,11.88,17.45,0,14.95-11,23.9-31.52,23.9-22.14,0-34.45-10.41-34.75-25.07h19.65c0,6.74,5.72,10.7,14.95,10.7,6.74,0,12.75-2.05,12.75-7.48,0-5.13-5.42-6.74-11.58-8.21-12.17-2.93-18.91-4.98-24.04-8.21-6.74-4.25-9.09-9.82-9.09-16.27,0-12.17,8.36-21.4,30.35-21.4,20.82,0,30.2,8.21,31.23,23.75h-18.33Z"/>
        <path class="cls-4" d="m666.37,64.21c-1.03-7.04-4.84-9.53-13.49-9.53-7.18,0-11.29,1.76-11.29,6.01s3.96,6.01,11.73,8.21c8.21,2.35,15.98,3.96,21.55,6.16,7.62,3.08,11.88,8.06,11.88,17.45,0,14.95-11,23.9-31.52,23.9-22.14,0-34.45-10.41-34.75-25.07h19.65c0,6.74,5.72,10.7,14.95,10.7,6.74,0,12.75-2.05,12.75-7.48,0-5.13-5.42-6.74-11.58-8.21-12.17-2.93-18.91-4.98-24.04-8.21-6.74-4.25-9.09-9.82-9.09-16.27,0-12.17,8.36-21.4,30.35-21.4,20.82,0,30.2,8.21,31.23,23.75h-18.33Z"/>
        <path class="cls-4" d="m740.26,114.49c-.59-1.76-1.03-4.25-1.17-6.45-4.54,4.98-12.17,8.36-21.84,8.36-16.42,0-24.04-8.06-24.04-19.79,0-20.82,13.93-23.16,33.13-25.8,9.53-1.32,12.17-3.23,12.17-8.21,0-4.69-4.69-7.48-12.17-7.48-8.65,0-12.17,4.25-13.05,10.7h-17.74c.29-14.95,8.5-25.36,31.67-25.36s30.79,10.26,30.79,28.44v45.59h-17.74Zm-1.32-35.33c-1.91,1.91-5.28,2.93-12.32,4.25-10.85,2.05-14.37,5.13-14.37,11.29,0,5.42,3.23,8.06,9.24,8.06,9.82,0,17.15-7.18,17.3-15.69l.15-7.92Z"/>
        <path class="cls-4" d="m870.3,118.45c0,18.62-11.88,30.2-27.42,30.2s-27.27-12.31-27.27-30.05v-13.05c-5.42,7.33-12.31,10.85-21.11,10.85-18.62,0-29.61-15.39-29.61-37.24,0-24.34,13.05-38.7,31.23-38.7,8.8,0,15.54,3.37,20.08,10.7l.15-8.8h18.33v76.38c0,9.82,3.37,13.05,9.38,13.05,5.57,0,8.36-3.81,8.36-13.34h17.89Zm-53.66-41.78c0-12.17-7.04-20.67-16.13-20.67s-16.27,8.94-16.27,21.84c0,14.81,5.28,22.28,16.42,22.28,10.56,0,15.98-7.77,15.98-23.46Z"/>
      </g>
    </g>
  </g>
</svg>