<?xml version="1.0" encoding="UTF-8"?>
<svg id="Layer_2" data-name="Layer 2" xmlns="http://www.w3.org/2000/svg" xmlns:xlink="http://www.w3.org/1999/xlink" viewBox="0 0 112.5 112.33">
  <defs>
    <style>
      .cls-1 {
        opacity: .7;
      }

      .cls-2 {
        fill: #fff;
      }

      .cls-2, .cls-3 {
        stroke-width: 0px;
      }

      .cls-3 {
        fill: url(#radial-gradient);
      }
    </style>
    <radialGradient id="radial-gradient" cx="42.22" cy="29.8" fx="84.3" fy="-7.43" r="56.18" gradientUnits="userSpaceOnUse">
      <stop offset=".47" stop-color="#818181"/>
      <stop offset=".58" stop-color="#7d7c7c"/>
      <stop offset=".68" stop-color="#717070"/>
      <stop offset=".79" stop-color="#5d5b5c"/>
      <stop offset=".9" stop-color="#413e3f"/>
      <stop offset="1" stop-color="#231f20"/>
    </radialGradient>
  </defs>
  <g id="Layer_1-2" data-name="Layer 1">
    <g>
      <circle class="cls-3" cx="56.25" cy="56.17" r="56.17"/>
      <g class="cls-1">
        <path class="cls-2" d="m43.84,63.12s-.04.07-.06.1c-.03.05-.07.08-.12.1-.01,0-.03.01-.04.02-.01.01-.02.03-.02.05,0,.06.02.11.02.17,0,.04-.02.08,0,.12.02.03.06.04.1.02.03-.01.06-.04.09-.06.05-.04.09-.09.14-.13.06-.06.13-.14.13-.23,0-.1-.12-.26-.23-.17Z"/>
        <path class="cls-2" d="m76.82,73.08s0,.07-.01.1c0,.01-.02.03-.03.04-.01.03,0,.07.02.1.02.03.04.06.05.09,0,.01,0,.03.01.04,0,0,.01,0,.02,0,.07,0,.14,0,.21-.02.04-.01.07-.03.1-.05.03-.03.04-.07.03-.1-.01-.04-.06-.06-.1-.07-.03,0-.07,0-.09-.03-.01-.02-.01-.04-.01-.05,0-.07.04-.25-.07-.27-.12-.02-.13.15-.13.23Z"/>
        <path class="cls-2" d="m85.22,78.86c-.03.07-.02.15-.03.23-.02.32-.25.57-.48.8,0-.14-.22-.18-.32-.07-.1.11-.1.26-.12.4-.06.34-.27.63-.48.9-.06-.07-.16-.1-.25-.06.07.17-.11.33-.26.43-.14.09-.28.18-.42.27-.06.04-.12.08-.17.14-.05.07-.09.16-.17.16-.04,0-.09-.02-.13-.04-.12-.03-.24.07-.34.15-.1.08-.25.15-.35.06-.03.07-.07.15-.1.22-.11-.02-.22-.04-.32,0-.1.04-.17.17-.12.26-.17,0-.34-.01-.5-.02.09.19.06.43-.07.6-.06.07-.14.13-.2.21-.09.11-.12.26-.15.39-.06.27-.13.54-.19.81-.01.05-.03.11,0,.17.01.05.05.09.08.13.06.11.04.25-.04.34.29.27.22.81-.12,1-.11.06-.25.1-.33.2-.05.08-.06.19-.1.27-.1.21-.38.27-.53.45-.07.1-.1.22-.13.34-.07.32-.15.63-.22.95,0,.04-.02.09,0,.13.02.05.07.07.11.11.21.17.16.5.07.75s-.23.53-.12.78c.09.2.31.31.51.38.11.04.26.06.34-.02.04.11.13.25.24.21.09-.03.11-.16.19-.21.09-.06.2-.02.31-.03.07,0,.13-.04.18-.07.24-.12.48-.24.72-.36.11-.05.21-.1.3-.18.05-.05.1-.1.15-.16.13-.14.31-.27.33-.47.1-.18.21-.35.31-.53.09-.16.19-.34.15-.52.11-.05.21-.11.32-.16-.05-.24.06-.48.21-.68s.34-.35.48-.55c.14-.19.24-.41.32-.63.09-.22.17-.44.25-.66.08-.23.15-.47.28-.67.17-.27.44-.48.56-.78.14-.34.07-.76.29-1.06.06-.08.14-.15.21-.22.3-.32.4-.82.24-1.24-.03-.07-.05-.15,0-.2.1-.08.17.12.26.2.1.09.27.04.35-.07.08-.11.08-.25.07-.39-.03-.33-.14-.66-.06-.99.05-.2.18-.4.13-.6-.02-.07-.05-.13-.08-.19-.04-.1-.05-.2-.06-.3-.03-.19-.12-.82-.34-.87-.16-.04-.63.39-.69.52Z"/>
        <path class="cls-2" d="m68.21,29.87c-.16,0-.31-.02-.47,0-.03,0-.06,0-.08.02-.03.02-.05.05-.07.08-.15.21-.47.25-.62.47-.02.03-.04.08-.02.12.12.04.26-.06.38,0,.04.02.07.06.1.09.12.1.29.09.43.02s.24-.17.35-.28c.03-.03.07-.06.11-.07.05-.02.11-.01.16-.03.07-.02.12-.07.17-.13.08-.08.23-.35.05-.41-.11-.04-.35.14-.49.14Z"/>
        <path class="cls-2" d="m60.62,30.04c-.09.01-.2.02-.27-.05-.02-.02-.04-.06-.07-.08-.1-.09-.24,0-.37,0-.18.02-.37-.13-.54-.07-.06.07-.08.18-.03.26.04.08.14.13.24.12.08-.01.17-.05.22,0,.02.02.02.05.04.07.03.03.09.02.13,0,.17-.05.38-.08.49.06.02.02.03.04.05.05.03,0,.05,0,.08,0,.26-.07.54.03.81,0,.01,0,.03,0,.03-.01,0-.01,0-.03,0-.04,0-.06.07-.08.13-.09.06-.01.12-.07.09-.12-.06-.05-.14-.04-.22-.03-.07,0-.1-.03-.16-.06-.08-.05-.02-.06-.14-.07-.17-.01-.35.02-.52.04Z"/>
        <path class="cls-2" d="m52.05,27.44s-.04.05-.07.06c-.06.03-.13.02-.2,0-.19-.03-.39.01-.58-.01-.04,0-.08-.01-.11,0-.08.02-.12.1-.2.13-.08.03-.17-.01-.23-.07-.01-.01-.02-.02-.03-.03-.02,0-.04,0-.05-.01-.03-.01-.04-.04-.06-.06-.05-.07-.15-.1-.22-.07-.05.02-.09.06-.13.08-.08.04-.18.02-.27.04-.06,0-.12.03-.18.06,0,0-.02,0-.03.02,0,0-.01.02-.01.03-.02.06-.02.13-.02.2.14.02.27.07.38.15.02.01.03.02.05.03.02,0,.03,0,.05,0,.1.01.19.07.25.14.03.03.06.08.1.06-.01.03.01.06.04.07.03,0,.06,0,.09,0,.07,0,.14,0,.18.05.01.02.02.04.04.05.01,0,.03,0,.04.02.04.02.04.09.07.13.02.01.04.02.06.03.06.02.11.03.17.05.05.01.1.03.15.03.02,0,.03,0,.05,0,.02,0,.04.02.05.04.06.06.13.12.22.15.08.03.17.02.24,0,.02,0,.04-.02.06-.04.03-.03.04-.06.05-.1.02-.1.04-.19.05-.29,0-.12,0-.24-.02-.35,0-.02,0-.03,0-.05s.01-.03.02-.04c.02-.04.04-.07.06-.11.03-.06.06-.11.11-.16.06-.05.2-.13.11-.23-.06-.07-.21-.02-.27.03Z"/>
        <path class="cls-2" d="m47.53,23.31s-.08.02-.12.03c-.08.02-.15.07-.21.12-.04.03-.07.06-.09.1-.02.05,0,.11,0,.16-.02.07-.09.12-.07.19.03.06.13.06.15.12,0,.03,0,.07,0,.09.02.04.08.04.11.06.02.02.03.06.06.07.01,0,.03.01.05.01.05,0,.1.02.15.03.04,0,.08.01.1-.01.02-.02.03-.05.03-.08,0-.12-.03-.26.04-.36.03-.04.09-.08.09-.13,0-.04-.04-.08-.06-.12-.03-.05-.02-.12-.02-.18,0-.04-.01-.16-.04-.18-.07-.06-.11.02-.17.05Z"/>
        <path class="cls-2" d="m47.13,24.7s-.04-.01-.05,0c-.02,0-.03.02-.04.03-.05.06-.1.11-.14.17,0,.01-.02.02-.03.02-.04,0-.05-.04-.07-.07-.05-.07-.15-.04-.22,0-.07.05-.13.12-.15.2-.02.08,0,.18.08.22.03.02.06.03.09.05.05.05.04.13.03.2-.03.17-.07.34-.1.51-.03.14-.05.27-.08.41,0,.03-.01.07,0,.1,0,.01.02.03.03.04.07.06.15.12.24.1.06-.01.1-.06.14-.1.09-.07.21-.11.33-.1.05,0,.11.02.16,0,.1-.04.12-.17.1-.28.06,0,.12-.06.14-.12.02-.06.02-.13.02-.19,0-.06.03-.12.03-.19,0-.04,0-.08,0-.12.01-.3.23-.55.05-.85-.05-.08-.12-.13-.22-.14-.07,0-.14,0-.2.02-.05.02-.09.09-.16.09Z"/>
        <path class="cls-2" d="m41.98,25.65s-.1.03-.13.07c-.01.02-.02.03-.04.05-.05.04-.14,0-.19.04-.03.02-.04.06-.04.09,0,.01,0,.02,0,.03,0,0,0,.01.02.01.06.04.15.04.21.08.03.03.06.06.09.09.07.06.17.06.24.01.03-.02.05-.05.07-.07.03-.03.06-.05.1-.06.04-.02.1-.03.12-.07.03-.07-.05-.1-.08-.14-.02-.03-.02-.09-.04-.11-.06-.08-.24-.04-.33-.02Z"/>
        <path class="cls-2" d="m50.09,13.44s-.02.04-.02.06c0,.05.04.09.08.12.04.03.08.06.12.06.02,0,.04,0,.06,0,.02,0,.04.03.06.04.04.02.09,0,.11-.04.02-.04.03-.08.03-.13,0-.04,0-.09.02-.13.06-.11.24-.33-.04-.34-.18,0-.36.21-.43.36Z"/>
        <path class="cls-2" d="m50.85,13.03c-.04.05-.03.12-.05.18-.03.05-.08.08-.08.14,0,.04.03.08.02.12,0,.02-.02.04-.03.06,0,.02,0,.05.01.06.02.01.05,0,.07,0,.01,0,.02.02.03.04.04.05.12.02.18.05.02,0,.04.02.06.02.01,0,.02-.02.03-.03.03-.02.07,0,.1.02.03.02.06.05.09.06.03,0,.06-.01.09-.03.07-.04.14-.09.14-.17,0-.03-.02-.06-.02-.09,0-.03.03-.06.06-.08.05-.05.09-.1.12-.16,0-.01.01-.02,0-.04,0-.01,0-.02-.02-.03-.11-.13-.21-.21-.38-.21-.11,0-.37-.02-.44.08Z"/>
        <path class="cls-2" d="m51.05,13.81s-.08.05-.13.06c-.06.01-.15,0-.17.06-.01.03,0,.07.04.09.03.02.07.03.1.03.13.02.31.03.36-.13.04-.14-.08-.17-.2-.11Z"/>
        <path class="cls-2" d="m57.52,11.77c.05,0,.09-.04.13-.06.1-.06.21-.1.32-.13.01-.04.03-.08.02-.12s-.03-.08-.06-.1c-.04-.01-.09,0-.13.03-.11.05-.22.06-.33.05-.08,0-.17-.05-.22.04-.09.18.12.3.27.3Z"/>
        <path class="cls-2" d="m55.58,11.9c-.12.06-.28-.04-.38.04-.02.02-.04.05-.06.07-.02.04-.04.07-.07.11-.01.02-.03.04-.03.07-.01.06.03.12.01.18-.02.06-.09.11-.07.16.13,0,.26,0,.36-.09.09-.08.11-.22.19-.31.05-.05.18-.12.19-.2.01-.1-.07-.07-.14-.04Z"/>
        <path class="cls-2" d="m56.2,10.34s-.05.02-.07.04c-.06.04-.14.06-.21.05-.03,0-.07-.01-.08.01-.02.02,0,.06.03.07.02.01.05.01.08.02.04,0,.08.03.12.05s.08.04.13.03c.04,0,.09-.05.08-.09,0-.04-.03-.17-.07-.17Z"/>
        <path class="cls-2" d="m66.4,2.74c.07.04.14.11.11.18-.03.06-.13.06-.17.12-.01.03-.01.06-.03.08-.02.05-.09.07-.14.08-.05.02-.11.07-.09.12.02.05.08.07.09.11,0,.03-.02.06-.03.09-.03.11.12.18.17.27.06.1.03.26.14.32.03.02.06.02.09.04.04.04.03.1.07.14.04.04.11.02.16.04.04.02.07.06.1.09.03.02.07.04.11.05.19.06.38.12.57.18.05.02.1.03.14.06.02.02.05.04.07.06.05.03.1.02.16.02.05,0,.11,0,.15.03.04.03.05.11,0,.13-.02,0-.04,0-.06,0-.13,0-.26-.02-.39-.05-.04,0-.08-.02-.11,0-.02.01-.03.04-.06.05-.07.04-.15-.07-.23-.08-.05,0-.1.03-.15.02-.07,0-.12-.08-.17-.13-.05-.06-.14-.1-.19-.05-.03.04-.03.11-.07.13-.05.03-.11-.02-.13-.07-.03-.05-.05-.11-.11-.12-.04,0-.07.02-.1.02-.07,0-.14-.06-.21-.04-.03,0-.05.03-.08.04-.06.02-.12,0-.18-.03-.09-.04-.19-.11-.17-.21.04-.03.09,0,.14-.01.08-.02.07-.15,0-.19s-.16-.02-.23,0c-.03-.08,0-.17.05-.22-.07-.03-.11-.1-.1-.17-.06,0-.12,0-.17.01-.01-.05-.02-.11-.01-.16.05-.01.1-.04.14-.08-.06-.07-.13-.14-.19-.22-.06,0-.13.01-.19-.01-.06-.02-.11-.08-.09-.15.06-.01.11-.02.17-.04.04-.06-.05-.13-.04-.21,0-.05.05-.09.11-.1.05,0,.1,0,.15.02.01-.07.11-.1.18-.08.07.01.14.05.21.04.17-.02.04-.19.12-.26.11-.1.38.06.49.11Z"/>
        <path class="cls-2" d="m66.36,5.37c-.05,0-.06.07-.1.11-.05.04-.14.01-.18.07-.02.03-.01.07,0,.1.02.03.05.05.09.06.05.03.11.06.17.07.05,0,.11,0,.16.01.03.01.06.03.09.05.03.02.06.03.1.02.03,0,.06-.05.04-.08.03.05.33-.16.1-.29-.07-.04-.16-.01-.23-.02-.1,0-.16-.1-.23-.1Z"/>
        <path class="cls-2" d="m66.97,1.65c-.06,0-.11.01-.17,0-.05-.01-.09-.04-.13-.06-.08-.03-.16-.04-.24-.05-.11-.01-.23-.02-.34-.03-.03,0-.07,0-.1,0-.07,0-.15.04-.2.09-.07-.08-.17-.12-.27-.15-.2-.06-.42-.05-.6.04-.01,0-.03.01-.03.02-.02.03.02.06.06.08.18.06.38.07.57.07.14,0,.29,0,.43,0,.12.03.24.06.36.08.1.02.21.05.31.03.06-.01.12-.04.19-.05.06-.01.14,0,.18.05.02.02.03.05.05.06.07.06.16-.02.25-.05.18-.05.31.15.46.13-.02-.27-.58-.28-.77-.27Z"/>
        <path class="cls-2" d="m56.95,1.97c-.13-.01-.28-.01-.36.09,0-.05-.08-.08-.11-.04-.01.01-.01.03-.03.04-.03.03-.07,0-.11-.01-.14-.07-.33-.05-.45.05,0,0-.01.01-.02.02,0,.02,0,.05.03.05s.04,0,.07,0c.08,0,.16.01.23.04.01,0,.03.01.03.02,0,.01,0,.02,0,.04,0,.04.05.06.09.05.04,0,.07-.03.1-.04.08-.02.17.02.25.03.1.02.21.01.31,0,.03,0,.07,0,.09-.03.02-.01.02-.03.04-.05.06-.06.37-.03.33-.17-.03-.1-.43-.1-.51-.11Z"/>
        <path class="cls-2" d="m56.5,2.47s-.07-.03-.1-.04c-.05-.02-.1-.04-.15-.06-.11-.04-.24-.09-.35-.05,0-.11-.1-.19-.21-.22-.1-.03-.21-.01-.32,0-.02,0-.04,0-.06.02-.05.04,0,.12.05.17-.01.03-.04.05-.07.05-.07,0-.07-.12-.11-.18-.03-.04-.09-.05-.14-.05-.1,0-.2,0-.3-.01-.09,0-.18,0-.26.03-.08.04-.14.12-.12.21.07.01.14.02.21.04.03.04-.03.08-.08.08-.05,0-.11-.01-.13.03-.02.03,0,.08.04.09.03.01.07.01.11.01.11.01.22.09.26.2,0,.02.02.05.03.07.02.02.05.02.07.03.09.02.18.03.28.05.03,0,.06.01.08.03.03.02.03.06.06.08.05.05.14.03.19-.03.04-.06.04-.14.04-.21.06.02.14-.01.18-.06.05-.05.08-.11.13-.16.07-.07.18-.1.28-.12.05,0,.1,0,.14.03.02.03.03.06.05.09.02.03.07.05.09.02.03.03-.01.07-.05.09-.04.01-.08.05-.06.08.01.02.04.02.06.02.09,0,.18-.01.27-.02-.02-.03.03-.06.07-.05.09.04.13.1.24.06.08-.03.1-.02.07-.1-.06-.12-.39-.18-.5-.22Z"/>
        <path class="cls-2" d="m40.6,6.82c-.12-.05-.25-.12-.37-.08-.06.02-.11.06-.16.08-.13.06-.28.02-.42.03-.14,0-.31.06-.34.2,0,.03,0,.07-.02.1-.04.1-.17.09-.28.09-.1,0-.24.06-.22.16,0,.03.03.05.04.08.06.13-.06.27-.18.36-.11.09-.24.22-.19.36.29-.02.56.18.85.18.31,0,.58-.22.88-.28.33-.06.73.06.99-.16.08-.06.13-.15.21-.21.1-.07.23-.08.34-.11.26-.08,1.14-.7.48-.84-.23-.05-.47.07-.69.11-.31.07-.64.04-.93-.09Z"/>
        <path class="cls-2" d="m43.68,11.11c-.31,0-.51,0-.83,0-.06,0-.13,0-.18.03-.06.04-.09.11-.14.17-.04.05-.09.1-.14.14-.2.17-.41.34-.61.51.04-.1.01-.23-.06-.31-.12.06-.27.15-.26.28,0,.06.03.11.05.16.04.12,0,.27-.1.35.12-.02.24.03.32.11-.07.02-.14.03-.2.08-.05.05-.08.14-.03.19.09.1.31,0,.36.12-.2.19-.44.35-.69.46,0,.16.04.34.18.4.07.03.14.02.21,0,.18-.03.36-.09.54-.16.03.08-.05.16-.13.19-.08.03-.17.03-.25.07-.08.04-.13.14-.08.21-.04.03-.09.07-.13.1.07.03.13.06.2.08-.03.13-.19.21-.32.16.01.1-.08.19-.18.2-.1.02-.2-.02-.29-.06-.05,0-.08.05-.07.1.01.05.05.08.07.12.05.1.03.22-.04.32-.06.09-.16.16-.25.22-.09.06-.19.13-.29.16-.06.02-.13.02-.18.06-.11.07-.12.22-.12.34.02.04.09.03.13,0,.04-.03.07-.07.12-.07.07,0,.09.1.1.17.19-.16.47-.09.71,0,.01.05.03.1.04.15-.21,0-.43.01-.64.02-.05,0-.1,0-.15.02-.08.03-.14.1-.2.16-.22.22-.5.37-.8.45-.08.02-.17.04-.22.11-.05.06-.04.19.04.21.03,0,.07,0,.1-.01.2-.06.39-.12.59-.18.05-.02.11-.03.16-.01.05.02.09.07.14.1.1.05.21-.02.28-.1.07-.08.12-.19.21-.24.2-.12.45.03.68.03.11,0,.22-.04.33-.05.24-.03.49.05.73.07.15,0,.29,0,.44-.03.03,0,.07,0,.1-.01.05,0,.09-.01.14-.02.18-.03.35-.12.51-.21.08-.04.16-.09.24-.13.02-.01.05-.03.06-.05.03-.07-.08-.12-.16-.11-.08.01-.18.03-.21-.04.05-.06.13-.1.2-.11.01-.04-.01-.08-.05-.09.25-.02.48-.14.65-.32.12-.12.23-.31.15-.47-.06-.11-.19-.16-.31-.16-.12,0-.24.05-.35.11-.11.06-.27.11-.31,0,.08-.06.16-.12.2-.21.04-.09,0-.22-.1-.23.06-.06.12-.13.18-.19-.07,0-.1-.09-.08-.16.02-.07.06-.14.02-.2-.02-.02-.04-.04-.07-.05-.13-.07-.28-.15-.33-.3-.04-.15.05-.31.03-.47-.02-.17-.16-.31-.32-.38-.16-.07-.34-.07-.51-.07.11-.07.24-.09.37-.12.41-.12.74-.42,1.05-.7.05-.04-.02-.12-.08-.15-.35-.13-.73-.13-1.08-.02.05-.06.12-.1.19-.11,0-.04.01-.09.02-.13.21,0,.43-.06.61-.17.06-.03.12-.08.13-.15.02-.07-.02-.14-.08-.17Z"/>
        <path class="cls-2" d="m40.13,13.22c-.26.05-.5.17-.73.3-.06.03-.12.07-.14.13-.01.04,0,.09-.01.13-.02.13-.14.23-.26.28-.13.05-.26.06-.39.1-.31.1-.54.37-.75.63-.13.16-.26.32-.39.48-.13.16-.25.32-.35.49.43.11.91.12,1.28-.13.13-.09.26-.22.42-.19.09.01.17.07.26.06.08-.02.14-.1.22-.14.06-.03.13-.02.19-.03.19-.02.35-.13.5-.23.08-.06.17-.12.21-.21.02-.05.02-.11.02-.16,0-.12,0-.25.01-.37,0-.05,0-.11.04-.15.03-.04.09-.06.14-.08.25-.08.56-.36.46-.66-.09-.27-.51-.28-.73-.24Z"/>
        <path class="cls-2" d="m42.02,11.37s-.09.05-.13.07c-.05.03-.08.09-.14.11-.02,0-.04,0-.07,0h-.16s-.09,0-.11-.03c-.02-.04.01-.08.05-.1.04-.02.08-.01.12-.02.04,0,.08-.03.12-.05.07-.04.14-.07.21-.11.12-.07.19.04.09.12Z"/>
        <path class="cls-2" d="m41.24,12.97s-.05.04-.05.07c0,.01,0,.02,0,.03,0,.04-.06.07-.06.11,0,0,0,0,0,.01,0,0,0,0,.01,0,.07,0,.13-.06.2-.08.03-.01.07-.02.1-.03.08-.04.1-.18.02-.23-.08-.05-.16.08-.23.11Z"/>
        <path class="cls-2" d="m40.94,12.86s-.06.03-.08.07,0,.08.03.09c.02,0,.03,0,.05,0,.03,0,.06-.01.09-.02.02,0,.04,0,.06-.02.03-.02.03-.06.06-.08.01-.02.03-.03.05-.04.05-.03.2-.18.04-.14-.05.01-.08.05-.12.08-.05.03-.12.04-.18.07Z"/>
        <path class="cls-2" d="m43.84,10.9s-.04.01-.05.02c-.01.01-.02.03-.01.05.04.02.09.03.13.03.02,0,.03,0,.05,0,.01,0,.02.01.03.02.03.02.07.02.11,0,.08-.04.07-.14-.01-.17-.07-.02-.17.03-.24.05Z"/>
        <path class="cls-2" d="m107.33,51.84c-.02.26-.03.53-.05.79,0,.1-.01.21.02.3.02.06.05.13.05.19,0,.12-.1.24-.08.36.02.08.09.15.1.23,0,.03,0,.06-.01.1,0,.06.02.12.06.16.03.02.06.04.07.08.03.07-.02.14-.03.21-.02.13.11.25.1.38,0,.08-.05.16-.02.23.01.03.04.05.06.08.08.11.04.27.09.4.03.08.08.15.14.22.03.03.07.07.12.07.03,0,.06-.03.08-.05.2-.21.31-.51.34-.8.03-.29,0-.59-.04-.88,0-.06-.01-.12-.04-.17-.04-.07-.1-.12-.11-.19,0-.04,0-.09-.01-.13-.01-.03-.04-.05-.06-.08-.07-.1-.04-.23-.05-.35-.02-.17-.15-.3-.22-.45-.03-.07-.06-.15-.09-.23-.05-.13-.12-.25-.21-.36-.05-.06-.2-.28-.21-.09Z"/>
        <path class="cls-2" d="m112.49,55.18c-.03-.14-.06-.28-.09-.42-.02-.08-.04-.17-.04-.25,0-.09.01-.18.02-.27.02-.25,0-.51-.07-.75-.01.1-.07.19-.15.24-.03-.16-.07-.33-.21-.43.03.21.03.43.02.64,0,.05,0,.1,0,.15.01.04.04.08.06.13.06.14,0,.29.01.44.01.15.11.28.14.43.02.11.01.22.02.33.01.24.11.47.08.71,0,.06-.03.12-.03.18,0,.07.02.13.03.19.15.57.2,1.17.16,1.76,0,.09-.01.17,0,.26.03-.75.05-1.5.05-2.25,0-.36,0-.73-.01-1.09Z"/>
        <path class="cls-2" d="m89.68,51.96c-.06.04-.14.1-.12.17.01.05.07.07.12.08.05,0,.1-.01.16,0,.1.01.19.1.29.12.27.07.49-.22.22-.38-.17-.1-.51-.08-.67.02Z"/>
        <path class="cls-2" d="m112.08,49.39c-.12-.6-.19-1.21-.26-1.81-.01-.11-.03-.22-.04-.34-3.6-22.31-20.32-40.22-41.98-45.58-.06.08-.12.17-.19.25-.04.05-.09.11-.15.14-.06.03-.14.04-.21.04-.18,0-.35-.03-.52-.09.24.22.65.12.9.34.17.15.23.42.44.48.05.02.11.02.15.06.04.04.03.12.07.16.03.03.06.03.1.04.12.02.25.04.37.06.13.02.28.06.31.19-.14-.03-.3.06-.34.19.22.06.44.13.67.19.08.02.16.05.24.07.59.16,1.17.33,1.74.54.37.14.73.3,1.1.44-.38-.03-.75-.15-1.07-.35-.04-.03-.08-.05-.13-.07-.05-.02-.11-.02-.17-.03-.1-.01-.19-.05-.28-.08-.42-.15-.86-.26-1.3-.34-.05,0-.11-.02-.15,0-.05.02-.09.08-.07.12.27.21.65.15.98.22-.25.17-.59.04-.86-.08-.19-.09-.39-.18-.58-.26-.05-.02-.14-.04-.15.02.21.17.45.28.69.4.17.08.35.17.52.25.12.06.25.12.37.18.26.12.51.25.77.37.05.02.09.05.15.05.06,0,.13-.02.19-.04.27-.07.57,0,.83.1.28.11.54.27.77.46-.37-.2-.76-.37-1.16-.5-.06-.02-.12-.04-.17-.02-.06.01-.11.06-.11.12,0,.07.09.11.15.13.39.14.75.37,1.06.65.04.04.08.08.09.13.01.05,0,.12-.06.13.04.03.08.05.12.08-.33.03-.66,0-.99-.07.2,0,.4-.01.6-.02.03-.04,0-.1-.05-.12-.04-.02-.1-.02-.14-.02-.05-.17-.17-.31-.32-.4-.08-.05-.17-.08-.24-.13-.16-.11-.3-.29-.5-.31-.25-.03-.48-.14-.71-.24-.21-.1-.42-.2-.62-.32-.04-.02-.08-.05-.12-.07-.04-.02-.08-.04-.12-.06-.29-.14-.59-.24-.91-.32-.26-.35-.73-.48-1.16-.51-.04,0-.09,0-.11-.05-.01-.02,0-.05-.02-.07-.02-.02-.05-.03-.08-.03-.14,0-.29,0-.43,0,0,.08.09.12.17.12.08,0,.17,0,.22.06.02.02.03.05.04.08.03.04.07.06.11.09.16.08.32.17.47.25.04.02.09.05.11.09.01.03,0,.07.02.11.02.1.11.17.21.2.1.03.2.03.3.05.18.04.34.16.42.31.02.04.04.08.07.1.06.03.16.02.17.09.13-.08.29-.02.42.04.13.07.27.15.42.12.04,0,.08-.03.12-.02.04,0,.06.04.09.06.12.13.24.25.36.38-.17.03-.3-.13-.45-.22-.1-.05-.2-.08-.31-.1-.23-.04-.46-.08-.69-.11-.48-.07-.96-.14-1.44-.2-.06,0-.12-.02-.17,0-.05.02-.09.09-.07.14.02.05.08.06.12.07.17.04.34.07.51.11,0,.04-.02.09-.03.13-.06-.01-.12.01-.16.06.05.04.1.08.15.12-.02.06-.11.03-.16,0-.2-.14-.43-.28-.65-.2-.02.11-.15.17-.26.17-.11,0-.24-.02-.34.02.04.03.03.1,0,.13-.04.03-.1.03-.15.02.04.06,0,.15-.07.2-.06.05-.14.08-.18.14-.02-.09.03-.19.11-.22,0-.04-.01-.09-.02-.13-.06,0-.11.02-.16.06-.04,0-.04-.06-.01-.09.02-.03.06-.06.04-.1-.01-.02-.04-.03-.06-.04-.07-.03-.12-.11-.11-.19-.11.05-.21.1-.32.16-.01.05.06.09.1.06.03.02,0,.07-.03.08-.03,0-.07,0-.1-.02-.18-.06-.41.05-.46.23-.13.02-.25.05-.37.1,0,.04,0,.08,0,.12-.07,0-.13,0-.2,0,.06.1.13.21.19.31-.09.02-.18-.02-.26.03-.1.07-.24.04-.35,0-.11-.05-.22-.12-.34-.15-.07-.02-.17-.06-.14-.12.01-.03.05-.04.08-.05.11-.02.22-.05.33-.07-.17-.19-.41-.29-.66-.33-.25-.04-.5-.02-.75,0,0,.12.17.13.28.18.26.11.29.53.56.59.06.01.12,0,.16.04.1.07.05.25.15.32-.27-.13-.59-.15-.87-.06-.03.01-.07.03-.09.05-.03.03-.03.09-.07.12-.06.06-.2,0-.24.09-.02.04,0,.09-.04.11-.03.02-.07.01-.1.03-.05.03-.04.1,0,.14.03.04.09.06.13.08.12.05.22.12.31.21-.09.03-.19.03-.29.02-.26-.02-.52-.06-.78-.1-.2-.04-.41-.08-.59,0-.04.02-.09.07-.07.11.01.03.05.04.08.05.21.06.43.12.64.17.05.01.11.03.15.07.04.04.05.11,0,.15-.29,0-.58-.08-.86-.16-.15-.04-.31-.09-.45-.16-.18-.1-.33-.24-.49-.38.06-.15-.07-.31-.22-.37-.15-.06-.31-.07-.45-.14-.16-.08-.29-.24-.47-.23.02-.06.11-.05.17-.03.52.16,1.05.25,1.59.26.07,0,.14,0,.2.02.06.01.11.03.17.04.35.09.73.05,1.05-.12.11-.06.23-.16.19-.28-.03-.11-.17-.14-.26-.21-.05-.05-.09-.11-.15-.15-.06-.05-.13-.06-.21-.08-.2-.05-.4-.09-.59-.14-.32-.08-.65-.15-.95-.28-.09-.04-.17-.07-.26-.09-.1-.02-.2-.02-.31-.02-.39,0-.79-.03-1.18-.1.04-.04.02-.11-.02-.14-.04-.03-.1-.03-.16-.03-.09,0-.19,0-.26.06-.02.02-.04.04-.07.05-.02,0-.05,0-.08,0-.18-.02-.36-.04-.54-.06-.02,0-.04,0-.05-.01-.07-.04.03-.14.11-.14.08,0,.19.01.22-.06.02-.05-.01-.11-.06-.14-.05-.02-.11-.02-.16-.02-.07,0-.15.01-.22.02-.07-.14-.29-.14-.37-.01-.07.03-.16,0-.2-.06.05-.05.1-.08.17-.1-.14-.09-.32-.05-.45.05.03.1-.11.2-.2.14.02-.09-.14-.11-.21-.04-.07.07-.12.18-.21.18.04-.1.08-.21.12-.31-.19-.01-.38.05-.51.19-.04-.03-.08-.06-.12-.09-.02.05-.06.09-.11.12-.01-.11-.19-.16-.26-.07.09.05.17.11.26.16-.25.07-.52.08-.77,0,0,.04-.02.09-.02.13-.11,0-.22.09-.25.19-.01-.06-.03-.13-.04-.19-.1.02-.19.08-.25.16-.08-.03-.12-.12-.1-.19-.06-.06-.17-.05-.21.02-.04.07,0,.17.07.2-.05.02-.1.03-.15.02,0-.09-.12-.16-.19-.11.04.05.09.11.13.16-.17-.1-.4-.08-.55.05.06.02.13.03.19.05-.07.12-.22.19-.35.17-.14-.02-.26-.13-.29-.26-.09.04-.17.11-.21.2-.09-.02-.18-.01-.27.01.03.04.07.08.11.12-.2,0-.41.08-.56.21.35-.07.71-.12,1.06-.14.04.02.03.09-.01.12-.04.03-.09.02-.14.02-.18,0-.35.07-.48.19.08.04.16.07.24.11-.11.06-.25.08-.37.06-.31.15-.59.37-.81.63-.04.05-.1.11-.16.11-.06,0-.1-.05-.15-.07-.13-.06-.31.07-.29.21,0,.05.03.1.01.14,0,.03-.03.05-.05.06-.17.18-.35.36-.58.44-.12.04-.26.05-.38.11-.12.06-.22.18-.19.31-.27-.18-.62.04-.87.24-.16-.05-.35-.03-.5.05.02.08.03.16.05.24-.18-.12-.42-.04-.62.04-.12.05-.26.12-.29.25-.01.06,0,.13-.05.17-.07.06-.19,0-.24.07-.04.05,0,.13,0,.19.03.2-.2.34-.39.41,0,.12,0,.25,0,.37.09-.08.22-.1.34-.07-.04.11-.19.13-.3.16-.11.03-.22.18-.13.25.08-.04.16-.06.25-.05-.1,0-.13.19-.03.22-.14,0-.28.06-.36.17.43.38,1.09.49,1.62.26.16-.07.36-.13.5-.24.28-.22.66-.31,1.01-.24-.09.34-.03.7.12,1.02.15.32.37.59.6.85.06.07.12.13.2.17.11.06.25.04.37.02.31-.04.63-.08.94-.12.07,0,.15-.02.22-.06.07-.05.11-.13.15-.2.17-.33.34-.66.51-1,.07-.13.11-.33-.03-.38.22.04.46-.06.58-.25.05.02.1.04.15.06.08-.1.21-.17.34-.18-.08-.09-.03-.27.1-.29-.07-.15-.17-.29-.28-.42-.03.07-.14.02-.19-.04-.06-.05-.18-.08-.18,0-.04-.1-.14-.16-.24-.16.03-.13.06-.26.1-.4.06-.05.1-.11.14-.18-.03-.03-.06-.07-.08-.1-.02-.11.07-.21.16-.27.1-.05.21-.08.31-.13.18-.09.31-.27.49-.37.12-.07.26-.11.4-.16.43-.16.81-.44,1.09-.8.05-.06.09-.12.15-.16.06-.04.13-.05.2-.06.32-.05.69-.08.91.15-.43.29-.85.58-1.28.87-.16.11-.32.22-.49.32-.11.03-.14.19-.09.29.05.11.15.19.19.3.08.21-.06.43-.12.64-.01.04-.02.08-.01.11.05.22.49.02.6.21.04.07.02.17.08.21.03.02.07.03.11.03.4.03.81-.01,1.19-.14.1-.03.21-.07.31-.1.08-.02.16-.03.24-.04.35-.04.69-.08,1.04-.12.16-.02.39.04.35.19.26-.02.52,0,.76.08,0,.11-.16.1-.27.08-.34-.06-.64.26-.99.3-.12.01-.24-.01-.35-.03-.6-.09-1.22,0-1.77.24-.05.16.01.36.16.45.12.08.29.1.36.23.04.07.04.16.03.24-.01.16-.04.35-.18.43-.13.07-.29.02-.42-.07-.12-.09-.22-.2-.36-.26-.23-.1-.52-.02-.66.18-.08.11-.12.27-.25.32-.14.15-.05.4.05.58.1.18.18.43.04.58-.17.17-.47.02-.69.12.09,0,.07.15,0,.21-.26.24-.71.22-.96-.03-.05-.05-.1-.12-.16-.15-.06-.03-.13-.03-.19-.02-.32.03-.62.17-.92.28-.38.14-.78.23-1.18.27-.24.03-.49,0-.67-.14,0-.08.04-.15.09-.2-.17-.08-.39-.03-.51.11-.21-.08-.48.04-.56.25-.21.03-.43.02-.64-.03.02-.09.05-.18.11-.25-.23.02-.46-.04-.65-.15.05-.14-.1-.28-.09-.43.01-.2.27-.27.39-.43.02-.03.04-.07.07-.1.04-.05.1-.09.15-.13.19-.15.3-.4.29-.64,0-.05,0-.1,0-.15.03-.08.14-.15.11-.23-.35-.09-.64.38-1,.34,0,.05-.02.1-.02.14-.05,0-.09-.05-.11-.09-.13.02-.24.1-.31.2.06.05.17.03.21-.04.03.03.03.07.02.11-.07.11-.23.14-.34.07.01.07-.11.1-.13.17,0,.05.03.09.05.13.03.08-.03.16-.05.24-.03.08,0,.2.09.19,0,.1.05.2.12.27-.14.09-.2.28-.14.43.01.04.03.07.03.11,0,.04-.02.07-.03.11s0,.09.04.09c-.01.07-.08.12-.16.14s-.15,0-.22,0c.02.09,0,.19-.02.28-.16.02-.33-.07-.4-.22-.15,0-.29,0-.44,0-.03,0-.07,0-.09.03-.02.03,0,.08-.02.12-.01.03-.05.04-.08.05-.12.04-.25.05-.37.03-.07,0-.14-.03-.21-.03-.1,0-.21.04-.3.08-.05.02-.1.04-.14.08-.04.04-.05.1-.02.15.07,0,.14.03.18.09-.1.12-.24.2-.4.22.07-.15-.03-.36-.2-.39-.02,0-.04,0-.06,0-.02.02-.02.05-.02.07,0,.15.01.35-.13.41-.14.05-.28.11-.37.23-.04.05-.08.12-.14.14-.05.02-.1,0-.14.02-.07.02-.11.08-.15.13-.2.22-.52.27-.81.33-.29.05-.61.15-.76.4-.04.07-.06.14-.1.2-.25.39-.98.22-1.18.64-.21,0-.43,0-.64,0-.04,0-.09,0-.12-.03-.03-.02-.04-.06-.05-.1-.07-.12-.24-.1-.38-.07-.09.11.12.25.11.39,0,.14-.2.21-.21.35-.19-.08-.4.11-.6.07-.15-.03-.25-.18-.32-.32-.26.14-.56.19-.85.15-.06-.01-.13-.02-.19-.01-.06.01-.12.06-.12.12,0,.07.08.13.08.2,0,.07-.07.12-.12.17-.05.05-.1.14-.04.19.43,0,.85.18,1.14.49.03.03.06.07.07.11.02.08-.06.17-.05.25,0,.06.05.1.1.15.11.11.23.22.34.32.02.02.04.04.05.07.02.06-.02.12-.04.17-.06.13-.02.3.08.4-.07.02-.14-.01-.18-.07-.06.12-.05.28.03.39-.1-.03-.19.06-.26.15-.12.17-.25.34-.32.54-.03.08-.05.17-.12.23-.05.04-.11.05-.17.09s-.11.19-.06.23c.04.02.04.09,0,.13-.03.03-.08.04-.13.05-.28.04-.56.03-.83-.04-.04-.01-.08-.02-.12-.05-.04-.02-.07-.05-.1-.07-.08-.04-.17-.02-.25,0-.3.05-.61.01-.92-.02-.2-.02-.4-.05-.61-.07-.07,0-.13-.02-.2-.02-.24-.03-.48-.06-.71-.13-.07-.02-.14-.05-.21-.08-.04-.02-.09-.04-.13-.04-.19-.02-.33.19-.51.27-.14.06-.31.04-.46.06s-.33.1-.35.26c-.01.09.04.18.05.27.06.35-.36.64-.32.99,0,.05.03.11.02.16,0,.13-.12.23-.16.36-.02.07-.02.15-.05.22-.06.15-.21.22-.36.29,0,.16-.05.32-.16.43-.04.04-.09.07-.13.11-.17.13-.32.28-.45.45-.05.07-.1.14-.11.22-.04.17.05.34.07.52.04.24-.04.49-.1.72-.04.17-.07.34-.09.51.19-.11.41.08.63.11.3.04.6-.25.89-.16.03.12.09.23.18.32-.03.04-.06.09-.09.13.06.04.12.08.18.13-.12.13-.06.33,0,.49.27.07.58,0,.8-.18.05-.04.09-.09.15-.11.09-.04.19-.03.29-.06.09-.03.18-.13.13-.22.05,0,.11,0,.16,0,.01.05.03.11.04.16.5-.05,1.01-.03,1.5.06.42-.21.69-.73,1.16-.74.09,0,.19.02.26-.03.04-.03.07-.07.1-.11.07-.1.13-.19.2-.29.16-.23.37-.49.64-.47.06-.14-.05-.29-.09-.44-.05-.23.1-.45.24-.64.04-.05.07-.1.11-.15.35-.08.48-.53.81-.67.07-.03.16-.05.2-.12.02-.04.02-.08.03-.11.05-.12.22-.1.35-.07,0-.11.13-.17.24-.18.12-.02.25-.04.37-.06.07-.01.13-.02.19-.06.04-.03.08-.07.12-.11.21-.18.61-.08.73-.33.05-.11.02-.24,0-.36-.03-.16-.03-.32.04-.47.06-.15.19-.27.35-.29.06,0,.13,0,.18-.03.05-.03.08-.08.12-.12.09-.08.23-.09.35-.05.12.04.22.12.31.19.2-.04.44-.07.58.07.04.04.07.09.12.12.04.02.09.02.13.03.21,0,.43.02.64.03.09-.08.19-.16.28-.24.12-.11.25-.22.37-.32.02-.02.05-.04.08-.06.07-.03.15-.02.23-.04.17-.02.31-.15.45-.26.14-.1.32-.19.48-.13.06.02.11.06.17.07.05,0,.09,0,.14.01.04.01.07.05.1.07.13.1.31.08.44.18.1.07.15.2.19.32.02.05.04.11.04.16,0,.07-.03.15-.01.22.02.06.07.1.09.15.02.04.03.08.04.12.04.12.14.22.26.26.04.01.09.02.13.04.04.02.08.06.11.09.08.09.18.21.27.29.17.14.34.29.52.43.04.03.08.07.13.07.04,0,.07-.01.11,0,.09.01.12.12.19.17.08.05.18.02.27.03.29.03.39.39.61.58.07.07.17.12.26.17.21.11.42.23.64.34.07.04.14.07.19.13.04.05.07.11.09.17.05.11.09.23.13.34.04.11.07.23.07.34,0,.35-.17.58-.25.9.07.02.04.15.06.23.2-.11.39-.23.56-.37.07-.06.14-.12.17-.21.03-.09.02-.2.09-.26.07-.06.17-.04.25-.08.1-.05.14-.17.13-.28s-.08-.2-.15-.29c-.06-.07-.08-.24-.11-.33-.06-.19.03-.29.15-.44.03-.03.05-.06.09-.08.05-.02.11-.01.17,0,.23.06.45.16.64.3.1.07.22.15.32.09.07-.05.09-.16.05-.24-.04-.08-.11-.14-.18-.19-.13-.1-.26-.21-.39-.31-.07-.05-.13-.11-.2-.15-.33-.21-.73-.27-1.12-.32-.06,0-.12-.02-.15-.07.17-.05.2-.3.08-.44-.12-.13-.32-.16-.49-.13-.12.02-.27.06-.36-.03-.03-.03-.04-.06-.07-.08-.03-.04-.08-.06-.13-.08-.19-.09-.39-.17-.58-.26,0-.11,0-.22,0-.33,0-.03,0-.07-.03-.1-.02-.02-.05-.02-.08-.03-.19-.07-.05-.44-.23-.54-.04-.02-.09-.03-.13-.04-.2-.04-.37-.17-.47-.34-.08-.14-.11-.29-.13-.45-.03-.19-.06-.4.06-.55.09-.1.24-.14.37-.17.11-.02.22-.05.34-.07.04,0,.08-.02.12,0,.03.02.05.05.06.08.08.17.16.35.24.52.14-.03.2-.2.32-.28.17-.12.46.02.47.24,0,.11-.06.23-.01.33.05.12.23.17.25.3,0,.04,0,.08,0,.12.02.12.16.15.27.2.14.05.26.16.33.3.18-.03.37.02.52.11.04.03.09.06.14.08.04.01.09.01.13.04.04.03.05.09.08.13.09.16.33.18.45.32.18.06.35.15.5.27.16.12.29.28.48.35.13.05.27.07.38.16.11.09.13.29,0,.34-.03,0-.06.01-.08.03-.03.02-.03.06-.03.1,0,.14,0,.26,0,.39,0,.24-.03.49,0,.73.03.24.13.49.35.61.18.1.41.09.58.21.1.07.16.18.22.29.22.41.44.81.67,1.22.15.28.3.56.37.86,0-.15.18-.26.31-.21.14.05.2.23.14.37.19-.01.34-.24.28-.42.06.17.25.28.43.26-.15-.25-.2-.56-.13-.84.15.1.37.06.47-.08-.15-.13-.25-.31-.27-.5.18.15.43.21.66.16-.15-.22-.19-.5-.11-.75-.1-.26-.29-.49-.54-.63-.06-.03-.13-.07-.16-.13-.08-.16.15-.32.13-.49-.01-.09-.09-.17-.07-.25.03-.19.33-.09.5-.16.13-.05.18-.2.3-.27.12-.08.28-.07.43-.05.26.03.52.06.78.09.13.02.26.03.35.12-.03.04,0,.08.05.09.04,0,.09-.02.13-.03.14-.05.29-.04.44-.05.15-.02.31-.08.35-.22.02-.05.02-.1.05-.14.02-.02.05-.04.07-.05.21-.1.46-.1.68-.02.06.02.11.05.17.05.06,0,.13-.02.15-.08.04-.1-.09-.2-.2-.21-.11,0-.24.02-.33-.06-.07-.06-.12-.18-.21-.15-.02-.17-.07-.33-.16-.47-.02-.04-.05-.08-.09-.11-.07-.05-.18-.09-.17-.18,0-.12.23-.12.24-.24,0-.03,0-.05-.02-.08-.05-.13-.08-.3.02-.39.09-.08.23-.06.32-.13.18-.15-.04-.48.1-.66.03-.03.06-.06.07-.1.01-.05-.02-.1-.02-.16,0-.07.05-.14.11-.17.07-.03.14-.04.21-.04.04,0,.09,0,.13,0,.02,0,.04,0,.05-.01.05-.02.04-.09.03-.14-.02-.05-.04-.1-.03-.15.02-.06.09-.09.1-.15.03-.12-.19-.2-.16-.33.02-.08.13-.1.21-.12.27-.06.46-.36.39-.62.11.02.23,0,.32-.05.02-.01.05-.03.07-.03.04,0,.06.04.09.06.04.03.09.02.14.02.17-.01.34-.03.51-.04-.06.09-.12.18-.18.27.11,0,.24,0,.35.01-.03,0,.47.1.43.11.22.02.44.07.65.16-.13,0-.27.05-.36.15-.03.03-.05.07-.09.09-.06.03-.14.01-.21.04-.07.03-.12.12-.09.19.16-.04.32.04.46.11.22.11.46.24.52.47.02.06.02.13.05.19.03.06.09.11.15.1.03,0,.05-.02.08-.04.16-.11.31-.21.47-.32.02-.02.04-.03.07-.05.12-.09.25-.17.34-.29.01-.01.02-.03.04-.04.04-.03.1,0,.14.03.18.09.39.05.58,0,.08-.09.02-.25-.09-.3-.11-.05-.24-.03-.36-.01-.04,0-.09.02-.12.04-.03.02-.06.05-.09.08-.14.09-.3-.05-.42-.16-.14-.13-.32-.23-.5-.29-.01-.14.13-.24.25-.31.25-.14.52-.29.81-.34.05,0,.11-.01.15-.04.04-.02.06-.05.1-.08.1-.07.26-.03.35-.11.05-.04.08-.1.13-.13.12-.09.28-.03.43-.02.31.02.62-.22.9-.1-.04.18-.26.24-.44.28-.18.04-.4.13-.41.31.11.06.21.12.32.17.05.03.11.1.07.14-.07,0-.15,0-.22-.01.05.08.02.18,0,.27-.02.06-.04.12-.08.17-.11.12-.31.09-.47.05-.02.11.07.21.16.29.13.12.26.24.39.36.03.03.06.06.11.07.05.01.09,0,.14,0,.11,0,.21.09.22.2.1,0,.2,0,.3-.01.03.12.2.12.32.14.21.02.38.15.55.28.25.19.51.38.76.57.05.04.1.07.15.08.04,0,.08,0,.13,0,.22.02.39.26.6.23.12.13.23.26.35.39.03.04.07.08.1.12.03.03.06.07.08.11.06.13-.02.28-.11.4-.13.16-.28.3-.46.41-.05-.03-.11-.03-.16,0,.03.05,0,.12-.04.15-.05.03-.11.04-.17.04-.12.01-.25.02-.35-.03-.03-.01-.06-.03-.09-.04-.05-.02-.1-.02-.15-.02-.42,0-.84,0-1.25,0-.14,0-.29,0-.4-.08-.05-.04-.1-.09-.17-.11-.04,0-.08,0-.12,0-.23.03-.48-.02-.68-.15-.1-.06-.2-.15-.32-.17-.11-.02-.22,0-.32.05-.1-.08-.19-.16-.29-.24-.03-.03-.07-.06-.12-.06-.03,0-.05.02-.08.03-.22.12-.49.1-.75.11-.37,0-.74.06-1.09.17-.04.01-.07.02-.11.04-.05.02-.09.06-.13.09-.1.08-.2.15-.31.23-.03.02-.06.04-.09.06-.12.09-.26.18-.41.18-.14,0-.27-.09-.41-.12-.23-.04-.47.09-.71.07-.07,0-.14-.03-.22-.04-.07,0-.15.01-.2.07s-.04.16.03.19c.06.03.15-.01.2.04,0,.26-.23.5-.49.52-.1,0-.21-.02-.31-.04-.26-.04-.52-.04-.78.01-.09.02-.19.04-.29.03-.08-.02-.16-.06-.24-.07-.12-.01-.24.06-.28.17,0,.07,0,.12-.02.18-.07.36-.14.72-.21,1.07.03.11.22.08.26-.03.04-.11,0-.23,0-.34-.01-.11.03-.26.14-.28.14-.03.22.14.26.27.04.14.08.27.12.41.07.19-.1.42-.3.4-.1.08-.02.26.1.31.12.05.26.02.39.03s.28.07.31.2c.01.07-.02.14-.02.21-.02.19.15.37.34.36-.1.12-.1.32.01.43.17-.14.37-.24.59-.28-.07.06-.13.13-.2.19.14.05.47.02.61.08.21.08.24.25.45.33.28.11.58.21.87.13.06-.02.12-.05.15-.1.05-.09-.01-.21.03-.31.05-.11.19-.12.3-.12.35.01.74-.02,1.05.16.38.22.47.49.99.38.38-.08.95-.3,1.08-.66.24-.11.54-.06.73.13.04.04.08.1.14.12.18.08.33-.17.38-.36.13-.02.22.15.2.29s-.12.25-.15.38c-.11.38.27.75.27,1.15,0,.37-.33.69-.31,1.06.01.16.09.31.08.46,0,.16-.18.32-.31.24.15.23.08.55-.03.8-.12.25-.29.49-.32.77,0,.06-.01.12-.04.18-.08.13-.27.12-.42.1-.33-.04-.75-.03-.92.26-.53-.48-1.31-.67-2-.49,0,.05-.01.11-.02.16-.33,0-.64.24-.75.56-.02-.13-.21-.15-.33-.09-.12.06-.23.15-.36.13-.17-.02-.26-.23-.41-.31-.31-.15-.77.26-.99-.01-.06-.08-.08-.19-.15-.25-.06-.05-.14-.05-.22-.05-.58-.02-1.17-.03-1.75-.05.12-.12.02-.35-.13-.42-.16-.07-.34-.04-.51-.02-.17.02-.36.02-.49-.09-.06-.05-.11-.13-.19-.16-.08-.02-.16,0-.24,0-.34,0-.47-.57-.81-.54-.07,0-.13.04-.19.04-.08,0-.14-.06-.22-.1-.16-.08-.36-.04-.54,0-.27.06-.53.12-.8.18-.14.03-.28.06-.39.15-.11.09-.18.24-.13.37-.19.26-.29.6-.26.92.12,0,.2.15.18.27-.02.12-.12.22-.21.3-.21.2-.52.41-.76.24-.1.1-.21.19-.31.29-.14-.31-.4-.57-.71-.71-.15-.07-.32-.11-.49-.16l-1.1-.28c-.29-.07-.64-.21-.67-.51,0-.06-.13-.1-.19-.11.11-.08.03-.3-.11-.3.07-.13-.1-.27-.25-.27-.15,0-.3.06-.44.01-.2-.07-.32-.35-.53-.32-.06,0-.12.03-.16,0-.03-.02-.04-.06-.07-.08-.03-.03-.08-.03-.12-.03-.17,0-.34,0-.51-.01-.05,0-.11,0-.16.02-.04.02-.07.05-.11.07-.11.06-.24-.02-.35-.08-.11-.06-.26-.11-.35-.03-.03-.05-.06-.1-.09-.15-.1.07-.25.02-.35-.05-.11-.07-.22-.15-.35-.13.03-.08.12-.11.18-.16s.12-.15.06-.21c-.24,0-.49,0-.73.01-.08-.16-.15-.37-.03-.5.08-.09.23-.1.3-.2.04-.05.05-.13.1-.17.04-.03.09-.03.13-.05.07-.03.11-.11.15-.18.11-.25.14-.54.1-.81-.16,0-.25-.19-.31-.34-.04-.1-.08-.21-.04-.31.04-.1.19-.16.25-.07.07-.18.2-.34.32-.49-.21-.07-.46.01-.58.2-.07-.03-.07-.14-.05-.21.03-.07.07-.15.05-.23-.04-.15-.25-.14-.39-.1.04-.06-.06-.12-.12-.1s-.11.08-.18.1c-.05.01-.11,0-.17.02-.05.02-.08.07-.12.11-.2.19-.54,0-.81.06-.1.02-.19.09-.3.11s-.24-.02-.26-.12c-.29.07-.62-.07-.92-.1-.23-.02-.47.04-.66.17-.05.04-.1.08-.16.1-.15.06-.32-.02-.47-.08-.21-.09-.43-.15-.65-.18-.07,0-.13-.01-.2-.01-.06,0-.13.02-.19.03-.08.02-.15.03-.23.05-.39.09-.78.17-1.17.24-.17.03-.34.06-.51.02-.13-.03-.28-.09-.38,0-.03.03-.05.08-.09.11-.08.05-.18,0-.27.02-.07.03-.11.12-.18.14-.05.02-.1,0-.15,0-.16-.01-.33.1-.38.25-.01.03-.02.07-.05.09-.03.02-.07,0-.11,0-.32-.11-.67.01-.95.19.08.07-.02.19-.12.24-.29.14-.62.19-.94.14-.48-.08-.97-.37-1.43-.19-.11.04-.24.08-.28.18-.1-.06-.14-.19-.19-.29s-.17-.21-.28-.17c.01-.12.03-.23.04-.35-.11.04-.23.08-.34.12-.13.04-.27.1-.33.22-.03.05-.04.12-.08.17-.03.04-.08.06-.11.1-.05.05-.07.12-.1.19-.16.42-.48.77-.88.96-.09.04-.17.08-.26.11l-.96.37s-.09.04-.13.06c-.05.03-.08.07-.13.1-.09.07-.2.1-.28.18-.05.05-.09.12-.13.18-.16.23-.42.37-.64.54-.13.1-.26.23-.28.39-.01.09,0,.19-.01.28-.05.27-.41.4-.46.67-.02.09,0,.18.06.25.02.03.05.06.07.1.08.18-.19.39-.1.57-.21.03-.39.18-.46.38-.12.37-.72.41-.99.69-.17.18-.33.44-.58.43-.08,0-.15-.03-.23,0-.07.02-.11.09-.17.12-.1.05-.21,0-.32,0-.11-.01-.25.04-.25.15-.06-.03-.13-.05-.19-.08-.13.2-.26.4-.39.6-.24.36-.49.74-.87.95-.04-.07-.14-.09-.21-.05-.07.03-.12.1-.17.17-.35.52-.59,1.15-1.07,1.56-.12.1-.24.18-.34.3-.1.11-.17.25-.24.39-.16.3-.35.57-.53.85-.11.17-.22.34-.34.5-.08.12-.16.24-.26.35-.09.11-.2.21-.28.33-.19.29-.22.68-.06.99.05.1.11.19.16.28.13.26.1.59-.06.83-.06.09-.13.17-.18.26-.09.2-.03.43,0,.65.07.46,0,.93-.17,1.36-.09.22-.28.45-.38.68-.1.24-.14.5-.14.76,0,.1,0,.2-.03.29-.04.09-.11.16-.18.23-.15.16-.27.34-.4.51-.08.11-.15.22-.23.33-.05.06-.09.13-.09.21,0,.07.03.13.07.18.14.23.3.48.26.75-.01.08-.04.16-.01.23.05.14.23.15.38.15.15,0,.33.06.33.2-.21-.04-.44-.07-.64,0-.2.08-.35.32-.25.51.28.12.61.23.86.06.1.07.07.24-.03.31-.1.07-.23.07-.35.04-.12-.02-.24-.07-.36-.06-.04,0-.08.01-.11.04-.06.06-.01.18.05.24.07.06.16.11.18.2.02.09-.04.19,0,.27.07.11.24.04.34-.05.1-.09.26-.19.35-.08.1.12-.09.34.01.46.03.04.08.06.11.09.06.07,0,.18,0,.27-.02.16.06.31.14.44.12.21.24.42.36.63.04.06.07.13.13.18.04.04.1.07.15.1.14.09.26.21.35.35.11.18.17.4.22.61.08.33.16.66.24.99.02.07.03.14.05.21,0,.06.01.11.02.17.04.24.19.45.33.65.03.04.06.08.09.11.05.04.12.04.18.06.17.05.31.19.36.35-.04,0-.08-.02-.11-.03.15.14.38.41.53.54.02.02.05.04.07.07.15.14.31.28.46.41.07.06.14.13.21.19.08.07.17.14.27.12.05.32.37.51.55.78.04.06.08.13.13.18.04.04.08.07.12.09.12.08.23.16.35.23.1.07.2.14.3.2.17.11.33.2.5.3.06.03.11.06.17.1.04.03.09.05.14.05.13,0,.26-.16.36-.08,0-.11.13-.2.23-.16.03.01.07.03.1.01.02-.02.02-.05.03-.07.03-.09.15-.09.24-.06.09.03.19.06.26,0,.04-.03.05-.09.07-.13.07-.11.24-.09.36-.05.12.04.26.09.37.02.05-.04.09-.1.14-.13.09-.05.2-.02.3,0,.31.07.64.04.96.05.32,0,.66.06.91.26.04.03.08.07.13.08.05,0,.09-.02.14-.03.1-.03.21-.03.31,0,.13.05.24.15.36.22.12.07.28.12.4.04.05-.06.08-.14.07-.21.11.06.14-.08.26-.13.13-.05.3.09.41,0,.05-.04.07-.1.13-.13.07-.03.15.04.22.04.11,0,.18-.1.26-.18.08-.07.24-.11.27,0,.03-.07.06-.14.1-.21.26.01.51.03.77.04.02-.1.05-.19.07-.29.21.09.42-.15.64-.18.18-.02.42.07.52-.09.02-.04.03-.09.07-.12.03-.02.07-.02.1-.01.59.05,1.19.11,1.78.16.1,0,.2.02.3.04.32.08.57.31.81.54.14.13.29.29.28.48.18.05.18.31.22.49.04.17.14.31.25.44.12.16.28.33.48.33.07,0,.14-.03.21-.02.07,0,.13.03.2.05.21.07.46.03.64-.1.05-.04.1-.08.16-.1.14-.05.29.01.44.03.28.03.55-.12.83-.1.27.02.53.21.62.47.03.07,0,.15.01.22,0,.03.01.06.03.08.06.06.16,0,.24-.01.11-.02.22.06.29.15.07.09.12.2.2.28.09.09.22.15.27.27.02.06.03.12.03.19,0,.18.01.36.02.53,0,.04,0,.08-.03.11-.02.02-.04.02-.06.03-.12.07-.13.23-.12.37.02.14.04.29-.04.4-.04.05-.09.08-.1.14,0,.04.01.09.01.13,0,.09-.09.15-.16.21-.07.06-.12.17-.06.24.02.02.06.03.09.06.11.09.01.25.01.39,0,.11.07.24,0,.32-.04.04-.1.05-.14.09-.04.04-.04.1-.04.16,0,.14,0,.27,0,.41,0,.05,0,.1-.03.15-.05.08-.16.13-.15.23,0,.03.03.06.03.1,0,.06-.06.1-.1.14-.15.13-.15.39,0,.52.03.03.07.05.1.09.04.06.04.13.04.2-.01.23-.02.49.16.63.05.04.11.07.17.1.17.11.29.28.41.45.25.37.59.67.9.98.15.15.31.31.47.45.23.19.5.39.52.68.25.15.33.48.38.77.05-.05.15,0,.17.07.03.07.02.15.05.22.04.09.15.18.11.27-.02.04-.06.07-.08.11-.05.09.02.2.1.27.08.07.18.13.2.23.01.06,0,.13.01.19.05.16.29.17.36.32.05.1,0,.23.02.34.05.22.4.35.34.57-.02.07-.09.15-.05.21.02.04.08.06.11.1.04.05.03.12.02.19-.02.21.07.42.24.55-.12-.08-.29.02-.33.16-.05.13,0,.28.03.42.03.13.07.25.1.38.08.28.18.59.44.72.08.04.18.06.23.14.03.05.03.12.03.18,0,.2-.02.4-.02.6,0,.17-.01.34-.09.49-.1.19-.32.33-.35.55-.33.15-.62.4-.82.7.1.21-.16.44-.16.68,0,.11.06.2.07.31.02.3-.37.59-.2.84-.13.2-.29.46-.41.66-.04.06-.08.12-.09.2-.02.15.09.29.16.43.07.16.09.34.04.51-.12.15-.16.36-.1.54.07.02.13.04.2.06-.04.11.03.23.09.33.11.17.22.34.33.51.12.19.25.38.45.48.05.02.11.04.14.09.04.06.02.14.04.22.02.1.11.17.21.17-.07.16.01.38.18.44.04.02.09.03.11.06.06.08-.04.19-.02.29,0,.04.04.07.07.1.1.1.21.21.31.31.14.14.28.31.23.5.22.02.33.28.37.5.04.01.07.03.11.04.11.15.21.29.32.44.03.03.05.07.06.11.01.04.01.09.01.13,0,.42,0,.84,0,1.25,0,.04,0,.07.02.11.05.1.22.09.29.17.03.04.04.08.05.13.05.29.05.59,0,.88-.02.14,0,.35.15.34.03,0,.05-.01.08,0,.06,0,.08.09.08.15.02.2.03.41.05.61.09.07.15.16.23.23.18.15.36.3.54.44.25.2.5.4.78.55.1.05.21.11.25.21.04.09.02.22.11.26.04.02.08.01.11.04.05.05,0,.13-.01.19-.05.18.14.33.28.46.13.13.24.28.3.46.02.06.04.13.1.16.07.05.19.03.23.1.02.03.02.07.03.1.02.13.08.24.11.36.03.12.03.27-.05.36-.05.06-.14.09-.2.13-.07.05-.12.13-.08.21.01.03.04.05.06.07.19.15.38.3.56.45-.04.07-.07.18-.01.23.02.02.05.03.08.04.13.04.26.09.39.13.17.06.35.12.47.25.1.1.2.25.34.22.05-.01.1-.05.14-.08.12-.07.27-.09.4-.04.02-.13.16-.22.3-.23.13-.01.27.02.41.02.11,0,.23-.02.34-.05.13-.03.26-.06.39-.08.08-.02.15-.03.22-.06.06-.03.12-.06.18-.09.14-.05.3-.01.45,0,.15.01.32-.01.41-.14.07.16.29.19.46.16.17-.03.35-.09.52-.04.1.03.24.1.3,0,.02-.03.02-.07.05-.09.03-.02.08,0,.06.03.16.05.25-.01.37-.12.05-.05.1-.1.16-.13.07-.03.16-.02.24,0,.32.06.69.07.96-.12.11-.07.19-.18.3-.25.15-.11.34-.17.52-.24.51-.19.98-.47,1.38-.82.1-.08.19-.17.31-.23.1-.05.21-.07.3-.12.11-.06.2-.15.28-.24.2-.22.4-.43.61-.65.32-.34.65-.69,1.04-.94.13-.08.26-.15.38-.25.2-.16.34-.38.47-.59.28-.44.57-.93.49-1.45-.01-.08-.03-.16-.03-.24,0-.38.43-.6.79-.73.4-.14.81-.29,1.21-.43.29-.1.6-.23.74-.5.12-.23.08-.5.1-.75.03-.32.16-.62.29-.91-.08-.02-.15-.03-.23-.05-.09-.03-.1-.15-.06-.24.04-.09.1-.16.11-.25,0-.07-.02-.14-.05-.21-.15-.35-.29-.7-.44-1.05-.05-.13-.04-.23.07-.32.5-.39,1-.79,1.5-1.18.12-.09.23-.18.35-.27.26-.2.52-.41.81-.56.13-.07.26-.13.4-.18.22-.09.44-.19.66-.28.27-.12.57-.24.85-.15.66-.84,1.75-1.44,1.96-2.49.11-.54-.05-1.1-.03-1.66.03-.81.43-1.66.06-2.38-.06-.11-.17-.23-.29-.18.08-.14-.04-.31-.15-.43-.11-.12-.2-.32-.09-.43-.08-.13-.17-.25-.25-.38-.1-.15-.2-.34-.09-.48.04-.06.11-.09.14-.15.15-.24-.26-.49-.23-.76.03-.23.36-.36.34-.6-.02-.26-.39-.29-.58-.47-.26-.24-.12-.66.04-.97.3-.6.61-1.2.91-1.8-.11-.16.2-.35.35-.48.15-.14.18-.36.2-.56.02-.2.03-.42.15-.58.12-.16.4-.22.52-.06.16-.43.46-.8.84-1.06.16-.11.37-.28.29-.46,1.17-1.44,2.41-2.81,3.73-4.11.28-.28.57-.56.83-.86.81-.91,1.41-1.99,2-3.06.07-.12.13-.25.12-.38,0-.12-.07-.23-.05-.35.03-.12.16-.2.25-.29.22-.23.21-.58.28-.89.14-.68.67-1.22.85-1.89.07-.25.08-.51.09-.77.03-.59.05-1.18.08-1.77-.19-.17-.54-.33-.67-.1-.03.06-.04.12-.07.18-.05.1-.17.14-.28.18-.34.11-.69.22-1.03.33-.52.17-1.04.33-1.56.5-.19.06-.27.28-.5.29-.22,0-.52-.13-.74-.08-.33.07-.56.55-.86.55-.32,0-.57,0-.82-.2-.28-.23-.53-.61-.88-.72-.07-.02-.16-.03-.2-.1-.07-.1.02-.23.09-.34.22-.34.12-.85-.22-1.08-.25-.17-.46-.44-.7-.62-.05-.04-.11-.08-.16-.12-.25-.18-.52-.38-.65-.66-.02-.05-.04-.1-.07-.14-.11-.17-.38-.25-.41-.45-.08.03-.15.05-.23.08-.08-.13-.17-.26-.3-.33-.14-.07-.33-.04-.4.1.05-.16-.1-.32-.26-.38-.16-.07-.34-.09-.46-.2-.09-.08-.13-.19-.18-.29-.11-.26-.21-.52-.31-.78-.03-.08-.06-.15-.09-.23-.09-.24-.19-.48-.31-.7-.17-.31-.39-.59-.66-.82-.18-.16-.39-.31-.61-.43-.09-.05-.19-.1-.27-.17-.08-.08-.13-.18-.17-.29-.22-.51-.34-1.05-.35-1.6,0-.21-.05-.48-.25-.52,0-.12.04-.25.12-.34-.16-.07-.28-.22-.32-.4-.02-.09-.02-.18-.06-.26-.03-.05-.07-.09-.11-.13-.26-.24-.56-.44-.89-.59-.19-.13-.33-.35-.35-.59-.01-.16,0-.36-.15-.43-.05-.02-.11-.03-.13-.09,0-.04.03-.08.05-.12.06-.12-.05-.26-.14-.36-.23-.25-.42-.53-.55-.83-.25-.55-.62-1.04-.92-1.57-.04-.08-.09-.15-.13-.23-.15-.26-.29-.52-.48-.75-.17-.21-.36-.39-.53-.6-.24-.28-.43-.61-.56-.95-.03-.09-.06-.18-.13-.24-.05-.05-.11-.09-.16-.14s-.06-.14-.01-.19c.13-.06.28.05.35.18.07.12.11.27.22.37.06.05.14.09.18.15.05.07.06.15.08.23.09.34.4.56.68.76.1.07.22.15.34.12.2-.04.25-.29.25-.49,0-.2,0-.45.19-.54-.04.19-.08.4-.04.59.04.19.2.38.4.39.08,0,.16-.02.23.02.05.03.09.08.12.14.19.33.47.61.79.82.09.06.18.11.24.19.07.08.1.19.14.29.28.72.98,1.23,1.16,1.98.02.06.03.13.07.18.11.15.36.12.5.25.1.09.15.25.28.25.05,0,.11-.02.16-.02.13.02.13.2.18.31.06.13.19.19.29.29.06.05.11.11.15.17.11.15.19.32.25.5.04.14.07.28.1.43.02.11.04.23.07.34.1.45.27.89.51,1.29.04.07.09.15.16.2.11.09.26.1.4.13.36.09.67.32.85.64.38.66.72,1.42,1.3,1.91.14.12.3.21.44.33.66.56.64,1.55.81,2.39.09.45.25.88.4,1.31.11.3.22.61.33.91.05.15.11.3.22.41.18.18.46.2.71.22-.03-.22.3-.23.51-.3.24-.08.37-.34.55-.52.54-.53,1.51-.34,2.06-.87.12-.12.24-.28.41-.26.11,0,.22.09.32.05.07-.03.09-.11.12-.18.24-.63.97-.9,1.6-1.14.43-.16.9-.38,1.09-.8.15-.33.11-.75.35-1.02.13-.15.33-.23.52-.3.23-.09.47-.17.7-.26.25-.09.51-.19.7-.37.19-.18.31-.48.2-.73.18.19.52.04.64-.19.12-.23.13-.51.26-.74.12-.23.47-.38.64-.19.02-.32-.17-.62-.21-.94-.08-.81.87-1.41.91-2.22.03-.63-.49-1.13-.96-1.54-.18-.16-.39-.33-.63-.29-.11.01-.21.07-.32.08-.17.02-.34-.08-.47-.18-.44-.33-.77-.79-.94-1.31-.11-.33-.16-.68-.34-.97-.21.43-.44.86-.67,1.28-.13.24-.27.49-.47.68-.55.53-1.4.54-2.17.51-.04-.59-.16-1.18-.34-1.74-.03-.1-.07-.21-.16-.25-.2-.1-.4.16-.41.38-.02.22.04.47-.1.65-.22-.42-.43-.85-.65-1.27-.09-.18-.19-.37-.32-.53-.28-.34-.69-.54-1.04-.8-.66-.5-1.1-1.27-1.21-2.09.26-.07.51-.13.77-.2.1-.03.21-.05.31-.08.04-.01.08-.02.13-.03.08-.07.16-.13.23-.2.21.23.37.5.46.8.23.08.43.22.58.4.2.26.3.59.53.83.47.49,1.31.4,1.86.8.14.1.27.24.42.31.16.08.38.07.48-.07.15.16.36.26.57.29.07-.19.2-.35.37-.45.1.03.18.1.23.19.13-.07.2-.24.16-.38.29-.13.65.03.83.3.18.26.24.59.28.91.25-.07.51-.04.77-.01.67.08,1.33.15,2,.23.29.03.6.07.88-.03-.1,0-.2.02-.3.03.18-.11.66-.16.87-.13.09.01.19.04.28.02.09-.02.18-.11.16-.2.06-.12.25-.07.35.02.1.09.23.2.35.15.08-.04.11-.13.18-.19.05-.04.11-.05.17-.07.27-.07.53-.13.8-.2,0,.22.04.47.23.58.15.09.39.07.46.24.02.05.02.11.02.17.03.21.22.35.41.42.19.07.41.09.59.18.04.02.09.05.11.09.02.04,0,.09.02.13.03.15.24.17.34.28.09.1.1.26.22.32.06.03.13.02.19,0,.23-.06.42-.24.5-.46.07.35-.21.73-.56.76-.03.14.08.27.17.38.23.26.47.52.7.78.1.11.2.22.33.27.26.11.58,0,.73-.24.16-.23.16-.54.07-.8-.05-.13-.12-.27-.08-.41.04-.14.28-.18.31-.04,0,.04,0,.08-.02.13-.09.29.02.6.16.87.14.27.31.53.36.83.03.16.02.32.04.48.07.51.44.93.52,1.43,0,.03,0,.06-.02.08.85,1.78,1.65,3.65,2.33,5.49.03.09.07.19.12.27.06.1.15.19.22.29.14.03.17.22.1.35.06.02.12.04.16.08.05.04.08.1.06.16-.01.03-.03.06-.02.09.02.03.05.02.08.03.08.02.09.13.07.22-.02.08-.03.19.03.23.02.01.05.02.06.04.09.07-.03.22.03.32.02.03.05.05.07.07.06.06.09.15.07.23,0,.04-.02.07-.02.11.01.09.12.11.18.18.12.15-.11.38-.02.55.04.07.12.11.15.19.03.09.02.21.07.3.17.32.58.64.87.41-.03-.28-.06-.59.09-.84.05-.09.13-.17.17-.27.1-.25-.05-.54,0-.81.04-.24.24-.43.26-.68.01-.17-.07-.33-.13-.49-.19-.52-.18-1.08-.21-1.63-.05-.92-.22-1.83-.52-2.69-.03-.09-.06-.18-.06-.28,0-.12.05-.23.1-.34.12-.25.24-.51.36-.76.07-.15.15-.32.13-.48-.02-.13-.09-.26-.1-.39,0-.12.04-.24.08-.36.23-.68.13-1.43.2-2.15.06-.53.21-1.08.07-1.6-.04-.15-.1-.29-.11-.44,0-.33.26-.58.47-.83.2-.25.36-.64.14-.88.42.46.47,1.14.77,1.68.18.32.46.59.67.89.19.26.33.56.46.85.36.84.64,1.72.81,2.62.27-.46.16-1.04.05-1.57.36,1.3.72,2.6,1.08,3.9.11.39.21.77.27,1.17.05.34.05.68.08,1.03.06.81.21,1.6.42,2.38-.04-.43-.09-.85-.14-1.27ZM52.49,11.42c-.09-.02-.19-.04-.28,0-.08.04-.14.14-.23.13-.02,0-.03,0-.04-.02,0-.01,0-.02,0-.03,0-.06,0-.13.05-.17.05-.05.14-.06.18-.12.01-.02.02-.04.04-.06.03-.02.06,0,.09.01.03.02.05.04.08.05.03,0,.07-.01.07-.05,0-.01,0-.03-.02-.04-.04-.06-.1-.13-.06-.19.02-.04.5.04.53.1.03.07-.04.09-.07.14-.04.06-.04.14-.08.2-.05.08-.17.08-.26.07Zm.77.22c-.08.02-.16.07-.21.13-.05.06-.09.14-.16.18-.02.01-.05.02-.07,0-.03-.02-.01-.08,0-.11.05-.08.1-.16.15-.23.02-.03.03-.05.06-.08.02-.02.05-.04.07-.06.07-.06.19-.17.27-.07.08.09-.03.22-.12.24Zm1.6-.75c.19.11-.22.11-.3.08-.02,0-.03-.02-.05-.03-.07-.04-.16-.02-.24-.03-.03,0-.08-.02-.07-.05,0-.02.04-.03.06-.02.17,0,.43-.03.59.06Zm4.14-1.09s0,.04-.02.05c-.02.02-.05,0-.08,0-.05-.02-.1-.04-.12-.09-.01-.02-.01-.05-.01-.08,0-.08.08-.24.18-.22.1.03.06.26.05.33Zm.23-3.95s-.08.06-.13.09c-.04.03-.1.02-.15,0-.02,0-.04-.01-.05-.03,0-.02.02-.04.04-.06.06-.03.29-.21.34-.07.02.07-.02.03-.05.06Zm-14.66,15.79c-.04.1-.02.2-.06.3-.02.07-.07.12-.08.19,0,.03,0,.06,0,.1,0,.03-.03.06-.06.07-.05,0-.08-.06-.07-.11,0-.08.05-.16.07-.24,0-.05,0-.11.01-.16,0-.05.03-.1.04-.15.02-.07.12-.45.22-.21.03.08-.03.15-.06.22Zm16.21-9.69s-.05-.02-.07-.03c-.08-.05-.16-.08-.25-.1-.03,0-.07,0-.09-.03-.03-.04-.02-.09-.04-.13-.02-.05-.09-.07-.11-.12-.02-.04,0-.08-.02-.12-.03-.07-.15-.07-.16-.14,0-.03.01-.07.04-.09.18-.12.43-.03.48.19.02.11-.08.1-.11.18-.04.1.09.16.16.18.05.01.1.03.14.06.04.04.06.1.02.14Zm1.59-3.38s.05-.03.07-.02c.06,0,.11,0,.17,0,.06,0,.19.03.12.12-.05.06-.23,0-.29-.01-.02,0-.04-.01-.06-.03-.02-.02-.02-.04-.01-.06Zm-1.54.3s-.05-.01-.07-.03c-.02-.02-.06-.04-.09-.06-.07-.03-.14-.07-.2-.1-.02-.01-.04-.02-.06-.04s-.02-.05,0-.07c.02-.02.06-.02.09,0,.06.02.09.03.15.05.03.02.04.04.07.06.03.02.07.05.09.08.02.03.04.08.02.11Zm.09-1.52s-.02,0-.03,0c-.04-.01-.09-.02-.13-.05-.02-.02-.04-.04-.07-.05-.04,0-.09,0-.1-.03,0-.03.02-.05.04-.06.05-.03.13-.06.17-.02.02.02.06.02.06.02.02.02,0,.05.05.09.01.01.03.03.03.05,0,.02,0,.04-.02.05Zm.02-.8s.03-.02.05-.02c.07,0,.17,0,.21-.05.04-.05-.01-.12.06-.15.15-.06.03.19.2.16.02.02,0,.04,0,.06-.02.01-.04.02-.06.02-.03,0-.07,0-.09-.02-.01-.02-.02-.05-.05-.05-.02,0-.03.03-.02.05,0,.02,0,.04,0,.06-.01.01-.04.01-.05,0l-.18-.03s-.05-.01-.05-.03Zm1.8,3.88c-.07.07-.18.05-.27.04-.09-.01-.21,0-.24.09,0,.02,0,.04-.02.06-.03.02-.07,0-.1-.01-.21-.13-.4-.3-.58-.47-.11-.1-.22-.2-.34-.31,0,0-.01-.01-.02-.02-.01-.03.01-.06.04-.07.03,0,.06,0,.09.01-.05-.02,0-.12.03-.13.04-.03.11,0,.15-.02.05-.03.03-.08.1-.11.04-.02.12-.02.17-.02.1,0,.16.02.21.12.03.07,0,.09.08.13.06.03.13.02.19.05.1.04.19.08.29.12.03.01.05.02.07.05.03.04.02.1.05.12.02.02.05.01.08.03.02.01.03.03.03.05.04.1.07.22,0,.29Zm.27-1.81s-.02-.01-.03-.02c-.05-.04-.09-.08-.14-.13-.04-.04-.08-.09-.07-.14.04-.01.08,0,.12.02.09.05.15.07.25.1.05.01.16.03.2.07.12.15-.23.11-.3.1-.01,0-.02,0-.03,0Zm1.36,1.21c-.03.08-.11.06-.17.08-.06.02-.13.08-.18.04-.03-.02-.03-.06-.05-.09-.07-.08-.23.07-.3-.01,0,0-.01-.02,0-.03.08.02.16,0,.21-.07.02-.05-.03-.1-.08-.12-.05-.02-.1-.02-.15-.03-.06-.02-.11-.07-.17-.08-.06,0-.14.02-.16-.03,0-.02,0-.04,0-.05.01-.06.02-.13.03-.19.08-.03.18.03.19.12.06-.03.11-.06.15-.11.01-.01.02-.02.02-.04,0-.01,0-.02-.01-.03-.05-.07-.15-.12-.23-.1-.07.01-.14.05-.2.02-.02-.01-.03-.03-.05-.05-.04-.05-.09-.1-.13-.15.1.02.21.04.31.06.03,0,.06.01.08.03.01.01.02.03.03.03.02,0,.03,0,.05,0,.11,0,.21.06.26.15.01.02.02.05.04.07.02.03.06.04.09.06.09.06.13.18.21.25.05.04.11.07.16.11.04.04.09.12.07.18Zm.5,8.12s-.03,0-.04,0c-.02,0-.03-.02-.04-.03-.06-.06-.12-.11-.2-.14-.02,0-.05-.02-.07-.04s-.02-.05,0-.07c.01,0,.03,0,.04,0,.14.02.24.14.38.14.08,0,.31-.09.3.08-.01.13-.28.08-.37.07Zm.39-7.45s-.02,0-.04,0c-.01,0-.02-.01-.03-.02-.03-.03-.07-.05-.12-.07-.03-.01-.07-.02-.09-.05-.02-.03-.03-.07,0-.09.03-.01.07,0,.1.01s.06.04.1.05c.09.02.29,0,.32.14.02.11-.16.05-.24.05Zm.65,1s-.04-.02-.05-.03c-.01-.02-.01-.04,0-.06.01-.01.03,0,.05-.01.06-.01.08-.1.05-.15-.03-.05-.09-.08-.16-.09-.06,0-.12,0-.18,0,0-.07.08-.11.15-.11.07,0,.13.04.18.08.06.04.11.08.17.1.03,0,.06.01.08.03.01.02.02.04.04.05.03.02.06,0,.09.01.02,0,.03.03.05.04.07.04.12-.04.18.03.02.03.06.13.07.17.01.1-.02.11-.09.1-.07,0-.14-.02-.21-.02-.05,0-.09-.02-.13-.03-.1-.04-.19-.08-.29-.12Zm1.09,7.82s-.04.01-.07.02c-.14,0-.27,0-.4-.02-.02,0-.03,0-.05,0-.04.02-.03.08-.07.11-.1.08-.12-.07-.12-.12,0-.03,0-.07.03-.09.02,0,.03,0,.05,0,.02,0,.03-.01.04-.02.05-.03.11-.02.17-.01.08,0,.15,0,.23-.01.03,0,.05-.01.08,0,.03.01.05.05.08.07.02.01.05.01.06.03.01.02,0,.05-.02.06Zm5.28-.81c.02.06.03.13.02.19-.01.06-.06.12-.12.14-.02,0-.05,0-.06-.02,0,0,0-.02,0-.03.02-.06.03-.14.02-.21-.01-.07-.05-.15,0-.21.03-.05.11-.17.17-.14.13.08-.03.19-.04.25,0,.01,0,.02,0,.03Zm-39.23,30.13s-.11.01-.16.01c-.05,0-.12.02-.14.06-.01.06-.06.1-.11.13-.05.03-.11.04-.16.05-.02,0-.04,0-.06,0-.05-.02-.06-.09-.03-.13.02-.04.07-.08.1-.12.04-.05.06-.12.12-.15.03-.01.06-.01.09-.01.09,0,.18,0,.27,0,.03,0,.06,0,.09.01.03.01.05.04.05.07,0,.03-.02.05-.05.07Zm1.17,9.45s0-.09,0-.13c0-.09-.03-.19-.11-.22-.04-.02-.09-.02-.1-.06-.01-.03,0-.07,0-.09-.01-.02-.03-.03-.05-.04-.05-.03-.08-.1-.06-.15.02-.05.11-.07.14-.02.03.04,0,.11.02.16.1.06.25-.03.32.05.02.03.03.06.06.09.03.03.08.04.13.04.11,0,.19-.02.25.07.04.06.06.29-.08.23-.02,0-.03-.02-.04-.03-.05-.04-.13-.04-.18,0-.04.03-.06.09-.09.13-.03.04-.08.09-.13.07-.04-.01-.07-.06-.07-.1Zm.85.65c-.01.08-.04.15-.05.23,0,.07,0,.15,0,.22,0,.15-.06.3-.1.44-.02.07-.05.15-.1.2-.05.06-.13.1-.2.08-.11-.03-.15-.16-.23-.24-.02-.02-.05-.05-.07-.07-.04-.06-.03-.16.03-.2.12.03.25,0,.34-.08-.04-.14.14-.26.13-.41,0-.04-.02-.08-.02-.12,0-.06.02-.11.04-.16.03-.09.05-.19.04-.29,0-.02,0-.05,0-.07.06-.12.17.04.19.1.03.11.02.27,0,.38Zm.79-9.11c-.01.05-.02.1-.03.15,0,.02-.01.05-.03.06-.02.01-.05,0-.07-.02-.02-.02-.02-.05-.03-.07-.02-.07-.07-.13-.13-.17-.02-.01-.04-.02-.05-.04-.04-.05-.02-.12-.03-.19,0-.06-.03-.11-.08-.14-.01-.01-.03-.02-.04-.03-.02-.02-.02-.06-.01-.09.07-.25.2.15.23.17.04.02.1.02.13.05.01.02.02.05.03.07.03.05.1.07.13.12.02.04.01.09,0,.14Zm13.48,2.64s-.03.05-.05.07c-.05.05-.1.11-.14.16-.01.01-.03.03-.05.03-.02,0-.03,0-.05,0-.04,0-.1,0-.13-.03-.02-.02-.02-.05-.04-.08-.02-.05-.07-.08-.12-.1-.01,0-.03-.02-.03-.03,0-.02,0-.05.03-.06.02-.01.04-.02.06-.03.05-.03.06-.1.1-.15.03-.04.08-.07.14-.08.07-.01.2-.03.25.04.04.06.06.19.03.25Zm5.2,17.63s-.06.03-.09.06c-.08.08-.04.23-.1.32-.02.02-.04.04-.07.05-.04,0-.08-.03-.1-.07-.02-.04-.02-.08-.02-.13,0-.2,0-.4,0-.6,0-.06,0-.13-.06-.16-.04-.01-.09,0-.11-.04,0-.02,0-.03,0-.05.02-.04.06-.08.11-.08.09,0,.06.07.09.1.05.06-.05.05.07.06.09,0,.16-.06.25,0,.14.1.16.42.02.52Zm7.41,18.08c-.01.08-.08.18-.15.15-.05-.02-.06-.08-.09-.13-.07-.12-.24-.12-.37-.12-.03-.07.02-.15.08-.2.07-.07.15-.12.24-.15.09-.03.19-.01.27.04.07.03.02.08.03.18.01.07.01.15,0,.22Zm3.31-3.86c0,.08-.02.17-.09.22-.1.07-.24-.02-.37,0-.08.01-.15.06-.21.11-.15.1-.3.13-.45.2-.11.05-.2.16-.33.18-.03-.11.04-.19.11-.27.16-.16.36-.28.57-.36.06-.02.13-.04.18-.08.05-.03.09-.08.14-.11.1-.06.22-.06.34-.05.03,0,.05,0,.07.02.05.03.05.09.04.15Zm8.97-30.03c.11-.07.14-.1.22-.2.06-.07.13-.14.23-.11.24.06.22.41-.03.44-.13.02-.27,0-.4-.03-.03,0-.06-.02-.06-.05,0-.02.02-.04.03-.05Zm-.92,8.9c.09-.11.14-.26.13-.4,0-.06-.01-.13.02-.19.1-.18.24.1.26.17.04.16,0,.34-.04.49-.02.07-.04.16,0,.21.03.03.06.04.09.06.11.07.16.24.29.26.04,0,.08,0,.1.03.01.02.02.04.02.06.02.15.02.3.01.45,0,.05,0,.09-.04.13-.03.04-.09.05-.12.02-.01-.02-.02-.04-.02-.06-.03-.13-.01-.29-.11-.39-.04-.04-.11-.07-.15-.11-.04-.04-.07-.09-.09-.14-.08-.15-.19-.29-.32-.41-.04-.03-.08-.08-.07-.13,0-.02.02-.04.04-.06Zm-6.44-18.07c.06.01.11.42.12.49,0,.03.02.07.04.09.04.05.1.07.12.12.02.06-.04.12-.1.14-.06.01-.12,0-.18-.03-.02,0-.05-.02-.07-.04-.02-.03-.02-.06-.02-.1,0-.08-.05-.7.09-.68Zm-.33,22.76s.06-.06.09-.09c.06-.06.17-.22.27-.12.06.07-.04.26-.09.3-.03.03-.07.05-.09.08-.09.11.02.3-.08.41-.03.03-.06-.02-.06-.06-.02-.13-.03-.26-.05-.39,0-.04-.01-.09,0-.13Zm-.68,8.85s-.02.02-.02.03c0,.01,0,.02,0,.03.02.05.04.12.01.17-.01.02-.03.04-.04.05-.04.04-.08.08-.11.12-.04.04-.07.07-.12.1-.05.02-.1.03-.15,0,0,0-.02,0-.02-.02-.02-.03.01-.07.02-.1,0-.03,0-.06,0-.09,0-.07.02-.15.05-.21.03-.09.07-.18.14-.24.08-.06.18-.07.28-.08.04,0,.08,0,.11.02.1.07-.11.2-.15.24Zm.19-6.62c-.07-.09-.13-.21-.13-.33,0-.13.05-.26.1-.38.01-.03.02-.05.05-.07.04-.02.09,0,.11.02.03.03.03.08.02.12.02.21-.04.41-.07.61,0,.01,0,.03-.01.03-.02.01-.05,0-.06-.03Zm1.12,4.99c-.02-.22-.16-.42-.35-.53-.08-.04-.17-.08-.2-.16-.03-.07,0-.15-.03-.21-.04-.09-.17-.12-.24-.19-.04-.04-.05-.1-.06-.15-.05-.26,0-.55-.09-.8-.02-.06-.05-.12-.07-.18-.03-.09-.03-.18-.03-.27,0-.42-.01-.84-.01-1.26,0-.53.26,0,.35.2.04.09-.01.2-.03.31-.02.1.07.24.16.2-.06.08.11.15.12.25,0,.06-.04.12-.06.18-.06.21.31.37.24.57-.02.04-.05.08-.05.13,0,.07.07.12.12.17.11.11.13.31.03.44-.14-.02-.26.13-.22.26.04.11.17.17.27.22.11.06.22.16.19.27.14-.05.33-.08.39.05.01.02.02.05.04.06.03.02.06,0,.09.01.09.02.09.15.06.23-.04.08-.09.19-.03.26.06.08.19.07.23.16.04.1-.11.21-.07.32.04.1.2.09.24.19.03.08-.06.16-.05.25,0,.07.08.12.14.16.06.05.1.14.04.19-.16-.01-.33-.03-.47-.12-.14-.08-.25-.24-.23-.4,0-.06.03-.11.02-.16-.02-.14-.21-.25-.14-.37-.1-.09-.19-.19-.29-.28Zm2.63,1.11c-.08-.02-.07-.14-.13-.19-.1-.09-.27.1-.39.02-.05-.03-.06-.1-.1-.14-.13-.14-.26-.11-.29-.34-.02-.14,0-.27.16-.28.28-.02.62.45.75.65.04.05.08.1.1.17.01.06-.04.14-.1.13Zm2.07,1.92c.04.11-.04.22-.03.34,0,.05.02.1.04.15.06.14.11.28.17.42.03.07.06.15.04.23-.01.08-.09.15-.17.12.05.07.03.17-.01.24-.04.07-.11.13-.15.21-.08.14-.06.33.04.46.05.06.12.11.14.18.05.16-.15.36-.04.49.05.06.16.08.18.15.03.1-.11.18-.09.28.02.09.13.12.16.2.04.1-.07.2-.17.2-.1,0-.2-.06-.28-.12s-.19-.11-.29-.08c.03-.09,0-.2-.09-.25-.03-.02-.07-.04-.1-.07-.08-.11.11-.25.09-.39-.02-.15-.26-.21-.23-.36,0-.06.06-.1.06-.16,0-.07-.06-.11-.1-.16-.11-.16-.01-.38.09-.55.03-.06.07-.11.1-.17.05-.08.11-.16.2-.15.08-.23-.16-.46-.19-.7-.02-.18.06-.35.08-.53.02-.17-.07-.38-.26-.4-.02-.2-.09-.59.21-.5.22.07.39.37.43.58.02.07.02.15.06.21.03.04.07.08.09.13Zm-1.51-30.92c.04-.06.14-.03.19.01.1.08.14.23.19.35.06.15.09.3.09.46,0,.06,0,.13-.05.16-.05.03-.13,0-.15-.06-.03-.05-.03-.12-.03-.18,0-.07,0-.14-.02-.2-.02-.06-.06-.12-.12-.15-.04-.02-.09-.03-.11-.07,0-.02,0-.03,0-.05,0-.05,0-.11,0-.16,0-.03,0-.07.02-.09Zm-.66,3.48s.11-.01.14.03c.03.04.04.1.04.15.09-.02.19-.02.28,0,.02,0,.05,0,.07.03.02.02.02.05.02.08,0,.08.03.16.03.23,0,.03-.02.06-.05.06-.01,0-.03,0-.04-.02-.11-.07-.22-.15-.33-.22-.02-.01-.03-.02-.04-.04,0-.02,0-.04,0-.05-.01-.04-.06-.05-.1-.08-.05-.04-.07-.12-.02-.16Zm-.43,17.28c-.03-.26-.04-.57.18-.71.15-.09.34-.24.49-.27.16-.04.36-.02.52-.02.4,0,.8.07,1.05.41.05.07.09.15.09.23,0,.06-.03.12,0,.17.03.07.14.1.15.18,0,.06-.06.11-.09.17-.03.06-.02.12-.03.19-.02.28-.27.5-.52.62-.06.03-.12.06-.15.11-.02.03-.02.06-.03.09-.03.16-.04.37.11.44.08.04.19.03.23.1.04.08-.06.17-.15.17-.09,0-.18-.03-.27-.01.02.07-.03.14-.09.17-.06.03-.14.03-.21.02-.13,0-.27-.01-.4-.02-.1,0-.2-.01-.28-.07-.06-.05-.11-.15-.19-.15-.09,0-.15.11-.24.1-.04,0-.08-.03-.13-.02-.06.02-.06.11-.12.13-.05.02-.11-.02-.13-.08-.02-.05-.02-.11-.03-.17-.02-.07-.08-.13-.1-.2-.02-.08.01-.17.04-.25.07-.21.09-.43.06-.65-.01-.08-.03-.18.03-.24.03-.03.06-.04.1-.06.13-.08.14-.27.12-.42Zm-.46-26.01s.09-.07.12-.11c.05-.08.02-.47.19-.34.1.08.08.38.06.48,0,.02-.01.04-.03.06-.02.02-.05.02-.08.02-.07,0-.14,0-.21-.02-.03,0-.07-.02-.07-.05,0-.02.01-.03.02-.04Zm.03,41.16s.09,0,.13.03c.07.06.02.19-.07.22-.09.03-.18,0-.27-.02-.26-.06-.53-.05-.78.04.03.06.06.14.04.2-.01.07-.08.13-.15.11-.07-.02-.1-.09-.15-.14-.07-.06-.18-.05-.26-.05-.1-.25.14-.15.23-.16.17-.03.11-.15.25-.21.02-.01.05-.01.07-.01h.97Zm-.28-18.08c.11.06.11.36.09.45,0,.04-.02.09-.04.12-.04.06-.11.1-.18.14-.11.07-.22.16-.29.26-.04.06-.08.12-.13.17-.05.05-.13.08-.2.07.01-.36.19-.69.41-.97.07-.09.21-.32.34-.24Zm-.74-21.82c.07,0,.09-.1.08-.16,0-.07-.02-.15.03-.2.05-.05.25-.04.29.02.07.09-.04.22-.1.28-.06.07-.14.14-.23.12.03.06-.03.13-.1.13-.06,0-.11-.07-.1-.14,0-.02.01-.04.03-.05.03-.02.06,0,.09,0Zm4.14-16.47s-.04.13-.08.15c-.03.01-.06,0-.07-.04-.01-.03-.02-.06-.03-.09-.03-.07-.08-.14.01-.19.05-.02.16,0,.19.05.06.07,0,.06-.03.12Zm1.34-9.63c-.05,0-.11-.02-.16-.04-.01,0-.03,0-.04-.02-.01,0-.02-.02-.03-.04-.05-.09-.1-.17-.16-.26-.02-.03-.03-.08,0-.1.06.01.12.02.18.03.02,0,.04,0,.06.02.02.01.03.04.04.06.04.08.16.24.11.33Zm.1-3.65c-.07.03-.14.06-.21.09-.21.1,0,.22.03.36,0,.07-.05.14-.03.21,0,.02.01.03.01.05,0,.02-.01.04-.03.03,0,0-.01,0-.02,0-.07-.06-.13-.12-.18-.2,0-.01-.02-.03-.02-.04,0-.04.03-.08.04-.12,0-.06-.05-.13,0-.17,0,0,.02-.01.03-.02.03-.02.06-.03.09-.06.02-.03.03-.07.02-.1-.01-.04-.05-.06-.09-.08-.01,0-.03-.01-.04-.03,0-.02,0-.04.02-.05s.04-.01.06-.01c.07,0,.14,0,.2.03.02,0,.03.02.05.03.02,0,.05,0,.07,0,.03,0,.09,0,.08.05,0,.02-.07.03-.09.04Zm.34-6.81s-.05,0-.07,0c-.04-.01-.08-.02-.12-.02-.03,0-.06,0-.08.02-.02.02-.04.05-.02.07.05,0,.1.03.12.08.01.05-.01.11-.06.13-.03.01-.05.01-.08.02-.03,0-.05.02-.06.05,0,.03.02.07,0,.09,0,0-.02,0-.03,0-.03,0-.06-.03-.06-.06,0-.03.01-.06.04-.08.02,0,.04-.01.05-.02.04-.03.03-.08,0-.12-.02-.04-.05-.08-.05-.12.02-.12.3-.19.4-.21.01,0,.03,0,.04,0,0,0,.01.02.02.03,0,.02.01.05.01.08s-.02.05-.04.06Zm1.56,20.35c-.06.07-.22.07-.3.07-.02,0-.05,0-.06-.01-.02-.01-.02-.04-.03-.06-.03-.05-.09-.07-.15-.06-.06,0-.11.03-.17.03-.04,0-.09-.02-.1-.06-.01-.04.01-.08.05-.1.03-.02.07-.04.1-.06.03-.02.05-.06.09-.07.08-.04.21.01.28-.05.04-.03.05-.1.1-.11.02,0,.04,0,.06,0,.03,0,.06,0,.08.01.03,0,.07.02.09.05.02.04-.02.08-.05.1-.03.03-.07.06-.07.1,0,.09.17.12.09.22Zm7.89-7.33s.06-.02.09-.02c.11,0,.22,0,.34,0,.03-.02,0-.07-.03-.09-.03-.01-.08-.01-.1-.04-.01-.01-.02-.03-.03-.04-.03-.03-.07-.04-.08-.08,0-.02,0-.03.01-.05.01-.04,0-.08-.01-.12,0-.04,0-.09.04-.1.05-.01.08.04.12.08.09.09.23.08.3.21.02.04.02.08,0,.11-.01.01-.03.02-.04.04-.02.03,0,.06,0,.1,0,.05-.07.08-.12.08-.05,0-.1-.02-.15-.02-.1,0-.21.07-.3.03-.01,0-.03-.01-.03-.02-.02-.02,0-.06.03-.07Zm-.52.28c.06-.03.14,0,.18-.04.02-.02.03-.05.03-.07.05-.16.14-.02.13.08-.01.12-.1.22-.09.35,0,.12.1.21.18.29.13.14.24.32.21.51,0,.04-.05.1-.09.08,0,0-.01-.01-.02-.02-.07-.1-.14-.21-.22-.31-.04-.06-.09-.13-.12-.2-.05-.11-.05-.25-.11-.35-.03-.05-.07-.09-.09-.14-.03-.05-.04-.11,0-.16Zm-6.49-14.66s.07.08.13.1c.01,0,.03,0,.04.01.01.01.02.03.03.04.01.02.04.02.06.02.07.01.11.07.17.09.06.02.11-.02.17.03.05.04.06.12.02.17,0,.01-.02.02-.04.02,0-.05-.04-.1-.08-.12-.04-.03-.1-.03-.15,0,0-.03-.01-.07-.04-.08-.03-.02-.06-.03-.09-.03-.05,0-.1-.02-.14-.03-.02,0-.05-.01-.06-.03-.02-.02-.02-.05-.03-.08-.01-.03-.05-.05-.07-.08-.03-.02-.05-.06-.04-.09.05,0,.1.03.14.07Zm1.37,22.55s0,.04,0,.07c0,.03-.03.06-.06.06-.03,0-.06-.01-.08-.04-.01-.02-.02-.04-.01-.07,0-.02.01-.04.01-.06,0-.02,0-.04-.02-.05-.04-.07-.09-.15-.17-.15-.02,0-.03,0-.04,0-.02,0-.03-.03-.03-.05,0-.02,0-.04,0-.06,0-.03-.02-.05-.04-.07-.02-.02-.03-.04-.04-.07,0-.03.02-.06.05-.06.05,0,.15.1.2.13.04.02.08.04.11.08.04.05.05.11.1.15.04.03.15.02.14.1,0,.05-.08.05-.1.1Zm6.12.08c-.09.02-.18,0-.27-.02-.14-.01-.29.02-.38.12-.03.03-.05.06-.09.07-.03,0-.06-.02-.09-.02-.06,0-.1.04-.14.08-.14.12-.35.15-.52.06-.06-.03-.12-.08-.19-.11-.22-.11-.51-.05-.7-.2-.08-.06-.13-.14-.2-.21-.07-.07-.16-.13-.25-.12-.07,0-.13.05-.2.04-.04,0-.08-.04-.12-.05-.15-.07-.38,0-.46-.15-.02-.04-.03-.08-.06-.11-.03-.02-.07-.03-.1-.05-.03-.02-.05-.05-.07-.08-.11-.17-.18-.37-.25-.56-.04-.11-.1-.2-.14-.31.08-.23.14-.47.07-.7-.02-.07-.06-.14-.07-.22-.03-.22.2-.4.41-.47-.12-.12-.28-.2-.44-.23-.05-.01-.11-.02-.15-.05-.03-.02-.05-.05-.08-.08-.09-.09-.21-.15-.3-.24-.05-.04-.09-.1-.13-.15-.18-.2-.4-.37-.65-.48-.06-.03-.13-.05-.19-.08-.04-.02-.08-.05-.11-.08-.11-.09-.21-.17-.32-.26-.1-.08-.21-.17-.31-.25-.05-.04-.09-.08-.13-.12-.03-.04-.05-.09-.07-.13-.08-.19-.15-.38-.23-.57-.02-.06-.05-.12-.09-.17-.03-.04-.07-.07-.12-.1-.16-.13-.33-.25-.49-.38.08-.09.13-.22.13-.34.02-.2,0-.4-.04-.6.15.01.31.03.45,0,.15-.03.29-.12.36-.25.01-.02.02-.05.01-.07-.01-.03-.05-.05-.07-.08-.03-.06.03-.13.1-.14.06-.01.13.01.2,0s.12-.09.08-.14c-.02-.03-.06-.04-.07-.07-.03-.06.07-.1.13-.14.1-.06.1-.2.17-.29.11-.14.32-.11.48-.05.16.06.34.14.5.07.04-.02.08-.05.13-.06.11-.03.22.04.31.11.14.1.27.21.41.31.03.02.06.04.08.08.04.07.01.15,0,.22,0,.08.03.17.11.17.18.04.4.08.52-.06.02-.02.04-.05.07-.05.06,0,.07.08.11.13.03.04.1.06.15.07.19.06.36.18.47.35-.13-.04-.29.06-.31.2-.11-.07-.28.02-.28.14,0,.06.03.12.03.19,0,.06-.03.14-.09.14-.08,0-.11-.11-.11-.19,0-.16,0-.32,0-.47-.07-.06-.19.04-.29.05-.09.01-.18-.05-.26-.09-.08-.04-.21-.06-.26.02-.19-.12-.46-.1-.63.05-.02.02-.04.04-.04.06,0,.03.01.05.02.07.09.15.18.3.27.45-.04.05-.13.02-.19-.03s-.11-.1-.18-.09c-.03,0-.05.03-.07.05-.07.06-.13.12-.2.19.15.09.31.17.46.26.02.01.04.02.06.03.15.09.31.17.44.3.04.03.07.07.09.12.04.08.04.17.06.26.03.08.1.17.19.15.08-.02.16-.1.22-.04.03.03,0,.09.03.13.01.03.04.05.07.07.2.12.44.16.67.12-.02.34.12.68.37.92.06.05.12.11.2.11.03-.15-.03-.32-.15-.42.18-.04.35-.19.53-.15.08.02.15.07.21.12.25.19.5.38.74.58.05.04.1.09.09.15,0,.03-.02.06-.04.08-.06.08-.12.16-.21.2-.09.05-.2.06-.28,0-.04-.03-.1-.09-.14-.06-.03.02-.03.06-.05.09-.03.04-.09.03-.14.05-.07.02-.11.1-.11.18,0,.07.03.15.05.21.04.11.1.24.21.29.06.03.14.03.21.04.19.03.36.17.43.35.02.07.04.15.09.2.06.05.14.05.21.08.12.06.17.2.19.33.02.13.03.27.12.38.22.27.27.63.43.94.02.04.04.08.07.1.07.06.19.06.23.14.04.08-.04.18-.13.2Zm.4-4.51s-.07.02-.1.02c-.05,0-.11-.01-.16,0-.03,0-.05.02-.08.02-.03,0-.06,0-.07-.02-.01-.02-.01-.05,0-.07.04-.08.07-.11.07-.2,0-.06-.04-.1.03-.1.07,0,.3.17.33.23.02.04.02.1-.01.13Zm.15-2.22s-.09.02-.14,0c-.06-.02-.12-.04-.17-.08-.05-.03-.08-.08-.13-.1-.06-.03-.12-.03-.18-.03.02-.11.04-.22,0-.32-.02-.05-.06-.09-.09-.13-.06-.07-.13-.15-.19-.22-.05-.05-.1-.12-.1-.19,0-.03,0-.06.02-.08.01-.04.02-.08.03-.11,0-.03.02-.05.04-.07.07-.06.18.19.24.23.04.03.09.04.13.07.07.05.11.13.15.21.11.23.23.45.37.66.03.05.07.12.03.16Zm.79-1.24c-.14-.01-.29.01-.43.02-.02,0-.04,0-.06,0-.02,0-.03-.03-.03-.05,0-.02.03-.03.05-.03.12-.04.58-.2.63.03.02.11-.09.04-.16.04Zm3.51,1.47c-.14-.1-.27-.23-.44-.25-.04,0-.07,0-.11-.02-.03-.01-.07-.04-.07-.08,0-.04.04-.07.07-.08.04,0,.08,0,.11.02.29.1.47.32.73.46.04.02.08.04.12.07.08.05.13.13.21.18.02.02.05.03.07.05s.02.06,0,.08c-.11-.06-.21-.13-.32-.19-.13-.08-.26-.16-.38-.25Zm1.77,2.38s-.04,0-.06,0c-.07-.02-.14-.06-.2-.11-.02-.02-.04-.04-.06-.05-.09-.06-.22.02-.31-.04-.02-.01-.03-.03-.05-.04-.04-.02-.08-.02-.12-.02-.12,0-.25.02-.36,0-.09-.02-.15-.12-.02-.12l.38-.05s.05,0,.08,0c.03,0,.06.02.09.03.1.03.2-.02.29,0,.03,0,.05.03.08.04.09.06.17.12.25.19.02.02.04.05.05.08,0,.03,0,.07-.03.08Zm.23-4.11s-.09.03-.13,0c-.04-.03-.06-.07-.09-.1-.1-.11-.27-.13-.37-.24-.06-.06-.09-.14-.12-.22-.03-.07-.06-.15-.09-.22-.02-.06-.04-.12-.05-.18,0-.08.03-.17.01-.24,0-.03-.02-.06-.01-.08,0-.04.06-.06.1-.06.04,0,.08,0,.12,0,.04-.01.07-.04.11-.06s.08-.03.12,0c.01.01.02.03.03.04.07.08.17.02.24.08.07.06-.02.1-.03.18,0,.04-.06.04-.1.02-.03-.02-.06-.06-.1-.05-.04,0-.06.05-.08.08-.02.03-.06.07-.09.05.03.06.05.11.08.17,0,0,0,.01,0,.02.02.04.04.07.05.11-.04,0-.08,0-.12.02-.01.05.05.07.1.09.09.03.18.08.26.14.06.04.12.1.09.16-.03,0-.06,0-.09.01-.03.06.03.12.08.16.05.04.1.11.06.16Zm.8-1.12s-.05-.03-.07-.04c-.08-.03-.16.05-.25.05-.08,0-.13-.08-.21-.11-.03-.01-.06-.03-.06-.05,0-.02.02-.03.04-.03.02,0,.04,0,.05,0,.06,0,.12-.04.16,0,0,0,.01.02.02.03.03.03.07.04.11.02.06-.03-.01-.2.04-.25.05-.04.12,0,.15.04.05.06.21.41,0,.35Zm.34-3.9s.06-.02.09,0c.03.02.06.04.09.03.09-.03.23.22.3.28.02.02.05.05.05.08,0,.03-.03.07-.06.06,0,0,0,0-.01,0-.09-.06-.18-.13-.27-.19-.04-.03-.08-.06-.12-.09-.04-.03-.07-.07-.07-.12,0,0,0-.02,0-.03Zm.42,2.44c-.08-.05-.2,0-.28-.05-.03-.02-.04-.04-.07-.06-.02-.01-.04-.02-.06-.04-.02-.02-.02-.05,0-.07.01,0,.03-.01.04,0,.08,0,.15.05.22.07.07.02.15-.03.21-.01.07.02.17.22.05.22-.04,0-.07-.04-.11-.06Zm.69,1.67s-.09-.04-.12-.07c-.06-.06-.13-.12-.21-.15-.03-.01-.05-.02-.07-.04-.02-.01-.03-.03-.04-.05-.03-.05-.06-.09-.09-.14-.02-.03-.05-.07-.03-.11,0-.02.32.17.35.2.03.04.05.08.07.12.05.08.09.07.17.11.03.01.04.05.04.08,0,.03-.03.06-.06.06Zm.61,16.88s-.03.06-.06.07c-.01,0-.03,0-.05,0-.03,0-.05,0-.08,0-.06,0-.13,0-.17-.04-.04-.04-.05-.11-.05-.17.04.01.08-.03.09-.07.01-.07-.08-.18-.04-.25.04-.07.11-.03.15,0,.08.08.22.33.2.44Zm.19-13.87c-.06.02-.13.02-.19.03-.04,0-.08.02-.11.01-.02,0-.04-.01-.06-.02-.06-.02-.12-.02-.17-.02-.02,0-.04,0-.05-.01-.01-.02,0-.04,0-.05.02-.01.04-.02.05-.02.06-.01.13-.04.15-.1,0-.01,0-.03,0-.04.03-.06.14-.04.17-.1.01-.03,0-.07,0-.1,0-.03.04-.05.07-.04.03,0,.06.02.07.04,0,.01.02.03.03.04.02.01.04,0,.06.01.15.04.1.33-.03.37Zm5.44,17.25s-.03.03-.04.04c0,.01,0,.03-.01.04-.01.04-.05.07-.09.08-.04,0-.09,0-.11-.04-.04-.05-.03-.12-.07-.18-.02-.03-.04-.05-.07-.06-.01,0-.02,0-.03-.01-.02-.02-.02-.05-.02-.08,0-.04,0-.08.04-.11.02-.01.04-.01.06-.02.06-.03.07-.11.07-.18,0-.07.05-.12.11-.07.04.03.07.16.08.21.01.05.02.11.04.16.02.04.04.07.06.1s.02.08,0,.11Zm2.12-5.34c-.06-.02-.1-.08-.14-.13-.08-.12-.15-.23-.21-.36-.03-.06-.05-.12-.08-.17-.04-.05-.09-.09-.16-.09.01-.12-.01-.25-.06-.37-.01-.03-.03-.07-.03-.1,0-.08.06-.13.13-.08.05.04.07.18.08.23.01.04.03.08.05.12.12.26.25.52.37.78.03.05.05.11.04.17Zm2.93-2.99s-.04,0-.05-.02c0-.02,0-.04-.02-.06,0-.01-.02-.03-.02-.04,0-.02,0-.04-.02-.06,0,0-.02-.01-.02-.02-.02-.02-.03-.06-.03-.09,0-.04,0-.09,0-.13,0-.01,0-.02.01-.03.07-.05.12.07.13.11.02.1.02.19.02.29,0,.01,0,.03,0,.04Z"/>
        <path class="cls-2" d="m43.97,1.45c0,.24-.16.47-.38.55-.03.01-.07.02-.1.05-.02.02-.03.04-.05.05-.04.03-.09,0-.14-.02-.12-.06-.28-.14-.38-.05-.03.02-.04.06-.07.08-.03.04-.08.06-.13.08-.14.06-.28.11-.42.17-.04.02-.08.03-.12.05-.2.08-.41.16-.61.25-.09.04-.17.08-.27.1-.14.03-.44.02-.5.14.04,0,.09,0,.13-.01-.72.33-1.46.6-2.23.81-.16.04-.32.08-.44.18.15-.02.3-.03.45-.05-.32.19-.66.35-1.01.48.01-.07.02-.14.03-.22-.18.02-.34.17-.39.35-.49.2-.99.41-1.48.61-.07.03-.14.06-.21.06-.1,0-.21-.03-.31,0-.04.02-.08.05-.12.08-.18.14-.42.14-.64.15.04.03.07.07.11.1-.36.4-1.09.17-1.5.51.06,0,.09.07.07.12-.02.05-.07.08-.12.11-.48.28-.97.56-1.45.83-.12.07-.24.14-.31.25-.22.13-.44.26-.65.39-.09.05-.18.11-.25.19-.05.06-.08.13-.13.18-.18.22-.52.27-.67.5.1.02.2.04.29.06-.2.08-.26.33-.29.55,0,.06-.02.13-.03.19.18-.08.35-.21.47-.37.06.05.16.01.23-.03.62-.35,1.25-.69,1.87-1.04.45-.25.9-.5,1.35-.73.23-.12.47-.23.71-.34.08-.03.15-.07.23-.1.05-.02.11-.03.16-.05.09-.03.19-.06.28-.09.45-.14.89-.28,1.34-.42-.04.24-.48.18-.55.41.32-.04.63-.19.85-.43.01.08.02.15.03.23.77-.33,1.56-.61,2.35-.89-.07,0-.11.11-.05.15.21,0,.43-.01.64-.02.63-.02,1.25-.16,1.83-.39.15-.06.29-.12.45-.13.1,0,.2.02.3,0s.2-.07.22-.17c-.35-.11-.73-.12-1.09-.04.24-.24.63-.32.95-.2.05-.11.14-.2.25-.24-.09-.08-.15-.21-.14-.33.12-.04.25.12.19.23.08-.02.17,0,.22.06-.09.12-.18.24-.27.36.12-.08.27.11.41.07.05-.01.08-.05.12-.08.14-.12.3-.2.43-.32.13-.13.21-.33.13-.49.05,0,.1,0,.15,0,.02.11.07.21.13.3.07-.12.21-.2.35-.2-.06-.03-.11-.1-.09-.17.08.12.25.17.39.12-.09-.14-.17-.28-.26-.42.1-.04.22-.03.32.03-.03.08.04.17.12.2s.17,0,.26,0c.15-.03.29-.06.44-.1-.05-.01-.05-.09-.01-.12s.09-.04.14-.04c.12,0,.24,0,.35-.01.08,0,.17,0,.24-.06.07-.05.08-.17.01-.21.15-.19.51.2.66.01-.01-.06-.07-.1-.13-.1.1-.12.24-.2.39-.21-.04-.08-.08-.15-.13-.21.36-.01.72-.03,1.08-.04-.02-.1-.09-.19-.19-.23-.05-.08.12-.11.19-.05.07.06.16.16.23.1-.03-.13.06-.25.17-.31.11-.06.25-.07.37-.08.02.05.06.1.11.12.16-.09.32-.17.48-.26.06-.03.13-.07.2-.06.07,0,.14.06.13.13.11-.07.25-.1.38-.13.52-.11,1.04-.23,1.57-.34-.38-.29-1.02.19-1.38-.13.26-.04.52-.08.77-.12-.06-.08-.11-.16-.17-.24-.27.02-.53.04-.8.06-.03,0-.05,0-.08,0-.13.01-.27.02-.4.05-.11.03-.22.07-.33.04-.03,0-.05-.02-.08-.02-.06,0-.11.03-.17.05-.12.05-.25.06-.38.03-.02-.05-.04-.1-.06-.15-.09.07-.22.13-.31.06-.03-.02-.05-.05-.08-.07-.03-.01-.06,0-.08,0-.39.03-.77.06-1.15.12-.46.07-.92.19-1.38.27-.3.05-.62.08-.89-.05-.11-.06-.21-.15-.27-.26-.15.03-.3.06-.45.1,0,.03,0,.05,0,.08Z"/>
        <path class="cls-2" d="m15.64,17.75c.3-.15.59-.29.89-.44.07-.04.15-.08.2-.14.06-.07.09-.16.15-.24.1-.13.26-.19.39-.3.16-.14.25-.35.35-.54.26-.48.68-.85,1.09-1.21.37-.33.75-.65,1.12-.98-.04.1-.01.22.07.29.3-.44.85-.69,1.38-.62-.35.18-.69.38-1.01.61-.3.21-.58.45-.85.68-.05.04-.1.09-.16.13-.35.29-.69.58-1.04.87,0,.05.02.09.03.14.04.19.16.43.34.37-.26.23-.52.45-.78.68.11.17.38.13.53,0,.15-.13.22-.33.33-.5.1-.17.28-.33.48-.3-.06-.1-.09-.21-.1-.32.21-.11.42-.22.63-.33,0-.25.21-.49.46-.52-.02-.12-.11-.22-.23-.25.97-.82,1.94-1.63,2.9-2.45.09-.07.17-.15.28-.19.16-.07.35-.05.52-.11.16-.07.29-.3.16-.42-.06-.05-.14-.06-.19-.12-.08-.1,0-.25.11-.3.11-.05.24-.05.36-.07.13-.02.25-.08.38-.14.52-.24,1.08-.53,1.27-1.07.05-.12.07-.26.12-.38.12-.32.39-.56.63-.8.03-.03.07-.07.11-.12-4.01,2.57-7.67,5.63-10.9,9.1Z"/>
        <path class="cls-2" d="m9.16,87.04c-.07-.32-.14-.65-.22-.97-.04-.18-.09-.37-.21-.52-.11-.13-.27-.19-.41-.28-.6-.38-.89-1.18-.67-1.85.19-.06.38-.13.57-.19.46-3.07-1.93-6.12-1.2-9.14.12-.5.33-.98.45-1.48.44-1.75-.1-3.58-.72-5.28-.05-.13-.1-.27-.21-.36-.13-.11-.32-.12-.48-.18-.4-.15-.6-.58-.8-.95-.51-.94-1.26-1.75-2.17-2.33-.08.08-.15.16-.23.23-.27-1.03-.7-2.02-1.26-2.93-.1.27-.21.53-.31.8-.14-1.6-.29-3.2-.43-4.8-.11-1.16-.21-2.34-.59-3.45-.05-.16-.11-.31-.17-.47-.07,1.12-.1,2.24-.1,3.37,0,11.36,3.37,21.93,9.16,30.77Z"/>
      </g>
    </g>
  </g>
</svg>