<?xml version="1.0" encoding="UTF-8"?>
<svg id="Layer_2" data-name="Layer 2" xmlns="http://www.w3.org/2000/svg" xmlns:xlink="http://www.w3.org/1999/xlink" viewBox="0 0 871.06 148.87">
  <defs>
    <style>
      .cls-1 {
        fill: #c8ec00;
      }

      .cls-1, .cls-2, .cls-3 {
        stroke-width: 0px;
      }

      .cls-4 {
        opacity: .7;
      }

      .cls-2 {
        fill: #ed1c24;
      }

      .cls-3 {
        fill: url(#radial-gradient);
      }
    </style>
    <radialGradient id="radial-gradient" cx="43.71" cy="30.73" fx="87.11" fy="-7.66" r="57.94" gradientUnits="userSpaceOnUse">
      <stop offset=".47" stop-color="#00aeef"/>
      <stop offset=".56" stop-color="#01a9eb"/>
      <stop offset=".66" stop-color="#069de2"/>
      <stop offset=".76" stop-color="#0d88d3"/>
      <stop offset=".85" stop-color="#186bbd"/>
      <stop offset=".95" stop-color="#2646a2"/>
      <stop offset="1" stop-color="#2e3192"/>
    </radialGradient>
  </defs>
  <g id="Layer_1-2" data-name="Layer 1">
    <g>
      <g>
        <circle class="cls-3" cx="58.17" cy="57.93" r="57.93"/>
        <g class="cls-4">
          <path class="cls-1" d="m45.22,64.98s-.04.07-.06.11c-.03.05-.07.09-.12.11-.01,0-.03.01-.04.02-.02.01-.02.03-.02.05,0,.06.02.12.02.18,0,.04-.02.09,0,.12.02.03.07.04.1.03.04-.01.06-.04.09-.06.05-.05.09-.09.14-.14.07-.06.14-.14.13-.23,0-.1-.13-.27-.23-.17Z"/>
          <path class="cls-1" d="m79.23,75.25s0,.07-.01.1c0,.02-.02.03-.03.04-.01.03,0,.07.02.1.02.03.04.06.05.09,0,.01,0,.03.01.04,0,0,.01,0,.02,0,.07,0,.14,0,.21-.02.04-.01.07-.03.1-.05.03-.03.04-.07.03-.11-.01-.04-.06-.07-.1-.07-.03,0-.07,0-.09-.03-.01-.02-.01-.04-.01-.06,0-.08.04-.26-.07-.28-.12-.02-.14.16-.14.24Z"/>
          <path class="cls-1" d="m87.9,81.21c-.03.07-.02.16-.03.24-.02.33-.26.59-.49.82.01-.15-.23-.18-.33-.08-.1.11-.1.27-.13.42-.06.35-.28.65-.49.93-.06-.07-.17-.1-.25-.07.07.17-.11.34-.27.44-.15.09-.29.19-.44.28-.06.04-.13.08-.17.14-.05.07-.09.16-.18.17-.05,0-.09-.03-.13-.04-.13-.03-.25.07-.35.15-.1.08-.26.15-.36.06-.03.08-.07.15-.1.23-.11-.02-.22-.04-.33,0-.1.04-.18.17-.12.27-.17,0-.35-.01-.52-.02.09.2.07.45-.07.62-.06.08-.14.14-.2.22-.09.12-.12.26-.16.41-.07.28-.13.56-.2.84-.01.06-.03.12,0,.17.02.05.05.09.08.14.06.11.04.26-.04.35.29.28.23.83-.13,1.03-.12.06-.26.1-.34.21-.06.08-.06.19-.1.28-.1.22-.4.28-.54.47-.08.1-.11.23-.14.35-.07.32-.15.65-.22.97-.01.04-.02.09,0,.13.02.05.07.08.11.11.22.17.17.52.07.77s-.24.55-.12.8c.09.21.31.32.53.39.12.04.27.06.35-.02.04.11.13.25.25.22.09-.03.12-.16.2-.22.09-.06.21-.02.32-.03.07,0,.13-.04.19-.07.25-.12.5-.24.75-.37.11-.05.22-.11.31-.19.05-.05.1-.11.15-.16.14-.15.32-.28.34-.48.11-.18.21-.36.32-.55.1-.16.2-.35.16-.53.11-.06.22-.11.33-.17-.05-.25.06-.5.22-.7s.35-.36.5-.57c.14-.2.24-.42.33-.65.09-.22.18-.45.25-.68.08-.24.16-.48.29-.69.18-.28.46-.49.58-.8.15-.35.07-.79.3-1.09.06-.08.15-.15.22-.23.31-.33.41-.85.25-1.28-.03-.07-.05-.16,0-.2.1-.08.18.12.27.21.1.09.28.04.36-.07.08-.11.08-.26.07-.4-.03-.34-.15-.69-.06-1.02.05-.21.18-.41.13-.62-.02-.07-.05-.13-.08-.2-.04-.1-.05-.21-.07-.31-.03-.2-.12-.84-.35-.9-.17-.04-.65.4-.72.54Z"/>
          <path class="cls-1" d="m70.35,30.67c-.16.01-.32-.02-.49-.01-.03,0-.06,0-.09.02-.03.02-.05.05-.07.08-.16.22-.48.26-.64.48-.02.03-.04.08-.02.12.12.04.27-.07.39,0,.04.02.07.06.11.09.12.1.3.09.44.02s.25-.18.37-.28c.03-.03.07-.06.11-.08.05-.02.11-.01.16-.03.07-.02.12-.08.17-.13.08-.09.24-.36.05-.43-.12-.04-.37.14-.5.15Z"/>
          <path class="cls-1" d="m62.52,30.86c-.1.01-.21.02-.28-.05-.03-.02-.04-.06-.07-.08-.1-.09-.25,0-.39.01-.19.02-.38-.14-.56-.08-.06.07-.08.19-.03.27.05.09.15.14.24.13.08-.01.18-.05.23,0,.02.02.02.05.04.08.03.04.09.02.14,0,.17-.05.39-.08.51.06.02.02.03.04.06.05.03.01.05,0,.08,0,.27-.07.56.03.84,0,.01,0,.03,0,.04-.02,0-.01,0-.03,0-.05,0-.06.07-.08.13-.1.06-.01.12-.07.09-.12-.06-.05-.15-.04-.23-.03-.08,0-.1-.03-.16-.07-.08-.05-.02-.06-.15-.07-.17-.01-.36.02-.54.04Z"/>
          <path class="cls-1" d="m53.69,28.17s-.05.05-.07.06c-.06.04-.14.02-.21,0-.2-.03-.4.01-.6-.01-.04,0-.08-.01-.12,0-.08.02-.13.1-.2.13-.08.03-.17-.01-.23-.08-.01-.01-.02-.02-.04-.03-.02,0-.04,0-.05-.01-.03-.01-.05-.04-.07-.07-.05-.07-.15-.1-.23-.07-.05.02-.09.06-.14.08-.08.04-.18.02-.28.04-.07,0-.13.03-.19.06,0,0-.02,0-.03.02,0,0-.01.02-.01.03-.02.07-.03.13-.02.2.14.02.28.07.39.15.02.01.03.02.05.03.02,0,.03,0,.05,0,.1.01.19.07.25.15.03.04.06.08.11.06-.01.03.02.06.05.07.03,0,.06,0,.1,0,.07,0,.15,0,.19.05.01.02.03.04.05.05.01,0,.03,0,.05.02.04.02.04.09.08.13.02.02.04.02.06.03.06.02.11.03.17.05.05.01.1.03.15.03.02,0,.04,0,.05,0,.02,0,.04.02.06.04.06.07.14.13.23.16.08.03.17.03.25,0,.02,0,.05-.02.06-.04.03-.03.04-.07.05-.1.02-.1.04-.2.05-.3,0-.12,0-.25-.02-.37,0-.02,0-.03,0-.05s.01-.03.02-.04c.02-.04.04-.08.07-.12.03-.06.07-.12.12-.16.06-.05.21-.14.11-.24-.07-.07-.22-.02-.28.03Z"/>
          <path class="cls-1" d="m49.03,23.92s-.08.02-.13.03c-.08.02-.15.07-.22.13-.04.03-.08.06-.09.11-.02.05,0,.11-.01.17-.02.07-.1.13-.07.19.03.06.14.06.16.13,0,.03,0,.07,0,.1.02.04.08.04.11.07.02.02.03.06.06.08.01,0,.03.01.05.02.05,0,.1.02.15.03.04,0,.08.01.11-.01.03-.02.03-.06.04-.09,0-.13-.04-.27.04-.37.04-.04.09-.08.1-.13,0-.05-.04-.08-.06-.12-.03-.05-.02-.12-.02-.18,0-.04-.01-.16-.04-.19-.07-.06-.12.02-.18.06Z"/>
          <path class="cls-1" d="m48.61,25.34s-.04-.01-.06,0c-.02,0-.03.02-.04.03-.05.06-.1.12-.15.18,0,.01-.02.02-.03.03-.04,0-.05-.04-.07-.07-.05-.07-.16-.05-.23,0-.07.05-.13.12-.15.21-.02.09.01.19.09.23.03.02.06.03.09.05.06.05.05.14.03.21-.03.18-.07.35-.1.53-.03.14-.05.28-.08.42,0,.03-.01.07,0,.1,0,.02.02.03.04.04.07.06.16.12.25.1.06-.02.1-.06.15-.1.09-.08.22-.11.34-.1.06,0,.11.02.17,0,.11-.04.12-.18.11-.29.07,0,.12-.06.14-.12.02-.06.02-.13.03-.2,0-.06.03-.13.03-.19,0-.04,0-.09,0-.13.01-.31.24-.57.05-.88-.05-.09-.13-.13-.23-.14-.07,0-.14,0-.21.02-.05.02-.1.1-.16.09Z"/>
          <path class="cls-1" d="m43.3,26.33c-.05.01-.1.03-.14.07-.01.02-.02.04-.04.05-.05.04-.14,0-.2.04-.03.02-.04.06-.04.09,0,.01,0,.02,0,.03,0,0,.01.01.02.02.07.04.15.04.22.09.04.03.06.07.09.1.07.06.18.07.25.01.03-.02.05-.05.08-.07.03-.03.06-.05.1-.06.05-.02.1-.03.12-.07.03-.08-.05-.1-.08-.15-.02-.03-.02-.09-.04-.11-.07-.08-.25-.04-.34-.02Z"/>
          <path class="cls-1" d="m51.67,13.73s-.02.04-.02.06c0,.05.04.09.08.12.04.03.08.06.13.06.02,0,.04,0,.06,0,.02,0,.04.03.06.04.04.02.09,0,.12-.04.02-.04.03-.09.03-.13,0-.05,0-.09.02-.13.06-.12.25-.34-.04-.35-.18,0-.37.22-.44.37Z"/>
          <path class="cls-1" d="m52.45,13.3c-.04.05-.03.13-.06.18-.03.05-.08.09-.08.14,0,.04.03.08.02.12,0,.02-.02.04-.03.07,0,.02,0,.05.01.06.02.01.05,0,.08,0,.01,0,.02.02.03.04.04.05.13.02.18.05.02,0,.04.03.06.02.01,0,.02-.02.03-.03.03-.02.08,0,.11.02.03.02.06.06.1.06.03,0,.07-.01.09-.03.07-.04.15-.09.14-.17,0-.03-.02-.06-.02-.1,0-.04.03-.06.06-.09.05-.05.09-.1.12-.16,0-.01.01-.02,0-.04,0-.01,0-.02-.02-.03-.11-.13-.22-.22-.4-.21-.12,0-.38-.02-.45.09Z"/>
          <path class="cls-1" d="m52.65,14.11s-.09.05-.14.06c-.06.01-.15,0-.17.06-.01.03,0,.07.04.09.03.02.07.03.1.03.13.02.32.03.37-.13.05-.15-.08-.17-.2-.11Z"/>
          <path class="cls-1" d="m59.33,12.01c.05,0,.1-.04.14-.07.1-.07.22-.1.33-.13.01-.04.03-.08.03-.13s-.03-.09-.07-.1c-.04-.02-.09,0-.13.03-.11.05-.23.06-.34.05-.08,0-.18-.05-.23.04-.09.18.12.31.28.31Z"/>
          <path class="cls-1" d="m57.33,12.14c-.12.06-.29-.04-.39.05-.02.02-.04.05-.06.07-.02.04-.04.07-.07.11-.01.02-.03.05-.03.07-.01.06.03.13.01.19-.02.06-.1.11-.07.17.13,0,.27,0,.37-.09.09-.09.11-.23.2-.32.05-.05.18-.12.19-.2.01-.11-.07-.07-.14-.04Z"/>
          <path class="cls-1" d="m57.96,10.53s-.05.02-.08.04c-.06.04-.14.06-.22.05-.03,0-.07-.01-.08.01-.02.02,0,.06.03.07.03.01.06.01.08.02.05,0,.09.03.13.06s.09.04.13.03c.05,0,.09-.05.08-.1,0-.04-.03-.18-.07-.18Z"/>
          <path class="cls-1" d="m68.49,2.7c.07.04.15.11.11.18-.03.06-.14.06-.17.12-.01.03-.01.06-.03.09-.02.05-.09.07-.14.09-.05.02-.11.07-.09.12.02.05.09.07.09.12,0,.03-.02.06-.03.09-.03.11.12.18.18.28.06.1.03.27.14.33.03.02.07.02.09.05.04.04.03.1.07.14.04.04.11.02.16.04.04.02.07.06.1.09.03.03.07.04.11.05.2.06.39.13.59.19.05.02.1.03.15.07.03.02.05.04.08.06.05.03.11.02.16.02.05,0,.11,0,.16.03.04.03.05.11,0,.14-.02,0-.04,0-.06,0-.13,0-.27-.02-.4-.05-.04,0-.08-.02-.11,0-.02.01-.04.04-.06.05-.08.04-.15-.07-.24-.08-.05,0-.1.03-.15.03-.08,0-.12-.08-.17-.14-.05-.06-.14-.1-.2-.05-.04.04-.03.11-.08.13-.05.03-.11-.02-.14-.07-.03-.05-.06-.11-.11-.12-.04,0-.07.02-.11.02-.07,0-.14-.06-.22-.04-.03,0-.05.03-.08.04-.06.02-.13,0-.19-.03-.09-.04-.2-.12-.17-.21.04-.03.1,0,.14-.01.08-.02.07-.15,0-.19s-.16-.02-.24,0c-.03-.08-.01-.18.06-.23-.07-.03-.11-.11-.1-.18-.06,0-.12,0-.18.01-.01-.05-.02-.11-.02-.17.06-.01.11-.04.15-.08-.06-.07-.13-.15-.19-.22-.06,0-.13.01-.19-.01-.06-.02-.11-.09-.1-.15.06-.01.11-.02.17-.04.04-.07-.05-.14-.04-.21,0-.05.06-.09.11-.1.05,0,.11,0,.16.02.01-.07.11-.1.18-.08.07.01.14.05.22.04.18-.02.04-.2.13-.27.12-.1.39.06.5.12Z"/>
          <path class="cls-1" d="m68.44,5.41c-.05,0-.06.08-.1.11-.05.05-.15.01-.19.07-.02.03-.01.07,0,.1.02.03.06.05.09.07.06.03.11.06.18.07.06,0,.11,0,.17.01.03.01.06.03.09.05.03.02.07.03.1.02.03,0,.06-.05.04-.08.03.06.34-.16.1-.3-.07-.04-.16-.01-.24-.02-.1,0-.16-.1-.24-.11Z"/>
          <path class="cls-1" d="m69.08,1.57c-.06,0-.12.01-.17,0-.05-.01-.09-.04-.13-.06-.08-.03-.17-.04-.25-.05-.12-.01-.24-.02-.35-.03-.04,0-.07,0-.11,0-.08,0-.15.04-.21.1-.08-.08-.18-.13-.28-.16-.2-.06-.43-.05-.62.04-.01,0-.03.01-.03.03-.02.03.03.07.06.08.19.06.39.07.59.07.15,0,.29,0,.44,0,.13.03.25.06.38.09.1.02.21.05.32.03.07-.01.13-.04.19-.06.07-.01.14,0,.18.05.02.02.03.05.05.06.07.06.17-.02.26-.05.18-.06.32.15.48.14-.02-.28-.6-.29-.79-.28Z"/>
          <path class="cls-1" d="m58.74,1.9c-.13-.01-.29-.01-.37.09,0-.05-.08-.08-.11-.04-.01.01-.01.03-.03.04-.03.03-.08,0-.11-.01-.15-.07-.34-.05-.46.05,0,0-.02.01-.02.02,0,.02,0,.05.03.06s.05,0,.07,0c.08,0,.16.01.24.04.01,0,.03.01.03.02,0,.01,0,.03,0,.04,0,.04.05.06.09.05.04,0,.07-.03.11-.04.08-.02.17.02.26.04.11.02.22.01.32,0,.03,0,.07,0,.09-.03.02-.01.03-.03.04-.05.06-.07.38-.03.34-.18-.03-.1-.44-.11-.53-.11Z"/>
          <path class="cls-1" d="m58.28,2.42s-.07-.03-.11-.04c-.05-.02-.11-.04-.16-.06-.12-.05-.24-.09-.36-.05,0-.11-.1-.2-.21-.23-.11-.03-.22-.01-.33,0-.02,0-.04,0-.06.02-.06.04,0,.13.06.17-.01.03-.04.05-.07.06-.08,0-.07-.12-.12-.18-.03-.04-.09-.05-.15-.05-.1,0-.21,0-.31-.01-.09,0-.18,0-.27.03-.08.04-.15.13-.12.22.07.01.15.03.22.04.03.04-.03.08-.08.08-.05,0-.11-.01-.13.03-.02.03.01.08.05.09.04.02.08.01.12.02.12.01.23.09.27.2,0,.02.02.05.03.07.02.02.05.03.08.03.1.02.19.03.29.05.03,0,.06.01.09.03.03.02.04.06.06.09.05.05.15.03.19-.03.04-.06.05-.14.04-.21.07.02.14-.01.19-.06.05-.05.08-.11.13-.16.08-.07.18-.11.29-.12.05,0,.11,0,.14.03.03.03.03.07.05.1.02.03.07.05.09.02.03.03-.01.07-.05.09-.04.02-.09.05-.06.09.01.02.04.02.06.02.09,0,.19-.01.28-.02-.02-.03.03-.07.07-.05.09.04.13.1.25.06.08-.03.11-.03.07-.11-.06-.13-.4-.18-.52-.23Z"/>
          <path class="cls-1" d="m41.88,6.91c-.12-.05-.25-.12-.38-.08-.06.02-.11.06-.17.08-.14.06-.29.02-.44.03-.15,0-.32.06-.35.2,0,.04,0,.07-.02.11-.04.1-.18.1-.29.1-.11,0-.25.06-.22.17,0,.03.03.05.04.08.06.14-.06.28-.18.38-.12.09-.25.23-.2.37.3-.02.58.19.88.19.32,0,.6-.23.91-.29.34-.07.75.06,1.02-.16.08-.07.14-.16.22-.21.1-.07.23-.08.35-.12.27-.08,1.17-.72.5-.86-.24-.05-.48.07-.71.12-.32.07-.66.04-.96-.09Z"/>
          <path class="cls-1" d="m45.06,11.33c-.32,0-.53,0-.85,0-.06,0-.13,0-.19.04-.06.04-.1.11-.14.18-.04.05-.09.1-.15.14-.21.18-.42.35-.63.53.04-.11.01-.23-.06-.32-.13.06-.27.15-.27.29,0,.06.03.11.05.17.04.13,0,.27-.1.36.12-.02.25.03.33.12-.07.02-.15.03-.2.08-.06.05-.08.14-.03.2.09.1.32,0,.37.13-.21.2-.45.36-.71.47,0,.16.04.35.19.41.07.03.15.02.22,0,.19-.04.38-.09.55-.17.03.08-.05.17-.13.2-.08.03-.18.03-.25.07-.08.04-.14.15-.09.22-.05.03-.09.07-.14.1.07.03.14.06.2.09-.03.13-.2.22-.33.17.01.1-.08.19-.18.21-.1.02-.2-.02-.3-.06-.05,0-.08.05-.07.1.01.05.05.08.07.13.05.1.03.23-.04.33-.07.09-.16.16-.26.23-.09.06-.19.13-.3.16-.06.02-.13.02-.19.06-.11.07-.12.22-.12.36.03.04.09.03.13,0,.04-.03.08-.08.13-.07.07,0,.1.1.1.18.2-.16.49-.09.73,0,.02.05.03.1.04.15-.22,0-.44.01-.66.02-.05,0-.11,0-.16.02-.08.03-.14.1-.2.17-.22.23-.52.38-.83.46-.08.02-.17.04-.23.11-.06.07-.05.19.04.21.03,0,.07,0,.1-.01.2-.06.4-.12.61-.18.06-.02.12-.03.17-.01.05.02.09.08.14.1.1.05.22-.02.29-.11.07-.09.12-.19.22-.25.2-.13.46.03.7.03.12,0,.23-.04.35-.06.25-.03.5.06.75.07.15,0,.3,0,.45-.03.04,0,.07,0,.11-.01.05,0,.09-.01.14-.02.19-.04.36-.13.53-.21.08-.04.17-.09.25-.13.03-.01.05-.03.06-.05.03-.07-.08-.13-.16-.12-.08.01-.19.03-.22-.05.05-.06.13-.1.21-.11.01-.04-.01-.09-.05-.1.25-.02.49-.15.68-.33.13-.13.23-.32.15-.48-.06-.11-.19-.17-.32-.16-.13,0-.25.05-.36.11-.11.06-.28.11-.32,0,.08-.06.17-.12.2-.21.04-.09,0-.22-.1-.24.06-.07.12-.13.19-.19-.07,0-.1-.1-.08-.16.02-.07.06-.15.02-.21-.02-.02-.04-.04-.07-.05-.14-.07-.29-.16-.34-.31-.05-.16.05-.32.03-.48-.02-.18-.16-.32-.33-.39-.17-.07-.35-.07-.53-.08.12-.07.25-.09.38-.13.42-.12.76-.43,1.09-.72.06-.04-.02-.13-.09-.15-.36-.13-.76-.14-1.12-.02.05-.06.12-.11.2-.12,0-.04.01-.09.02-.13.22,0,.44-.07.63-.18.06-.04.12-.08.14-.15.02-.07-.02-.14-.08-.17Z"/>
          <path class="cls-1" d="m41.39,13.51c-.27.05-.51.18-.75.31-.06.03-.12.07-.14.13-.02.04,0,.09-.01.13-.02.14-.14.24-.27.29-.13.05-.27.06-.4.1-.32.11-.56.38-.77.65-.13.17-.27.33-.4.49-.13.16-.26.33-.37.51.44.11.94.12,1.32-.14.13-.09.27-.22.43-.2.09.01.18.08.27.06.09-.02.14-.1.22-.14.06-.03.13-.03.2-.03.19-.02.36-.13.52-.24.09-.06.18-.12.22-.22.02-.05.02-.11.03-.17,0-.13.01-.25.02-.38,0-.05,0-.11.04-.15.03-.04.09-.06.15-.08.26-.08.58-.37.48-.68-.09-.27-.52-.29-.75-.25Z"/>
          <path class="cls-1" d="m43.35,11.6s-.09.05-.13.08c-.05.03-.08.09-.14.11-.02,0-.04,0-.07,0h-.16s-.09,0-.11-.03c-.02-.04.01-.08.05-.1.04-.02.08-.02.13-.02.05,0,.09-.03.13-.05.07-.04.15-.07.22-.12.12-.08.2.04.09.13Z"/>
          <path class="cls-1" d="m42.54,13.24s-.05.04-.05.08c0,.01,0,.02,0,.03,0,.04-.06.07-.06.11,0,0,0,.01,0,.01,0,0,0,0,.01,0,.08,0,.14-.06.21-.09.03-.01.07-.02.1-.04.08-.04.1-.18.02-.24-.08-.05-.17.08-.23.12Z"/>
          <path class="cls-1" d="m42.23,13.13s-.07.04-.08.07,0,.08.03.09c.02,0,.04,0,.05,0,.03,0,.06-.01.1-.02.02,0,.04,0,.06-.02.03-.02.03-.06.06-.09.01-.02.03-.03.05-.04.05-.03.21-.18.04-.14-.05.01-.08.05-.12.08-.06.03-.12.05-.18.08Z"/>
          <path class="cls-1" d="m45.22,11.11s-.04.01-.05.02c-.01.01-.02.03-.02.05.04.02.09.03.14.03.02,0,.03,0,.05,0,.01,0,.02.01.03.02.03.02.08.02.11,0,.08-.04.07-.15-.01-.18-.08-.02-.18.03-.25.05Z"/>
          <path class="cls-1" d="m110.7,53.34c-.02.27-.03.54-.05.81,0,.1-.01.21.02.31.02.07.05.13.06.2,0,.13-.11.24-.08.37.02.09.1.15.1.24,0,.03,0,.07-.01.1,0,.06.02.12.06.17.03.03.06.05.08.08.04.07-.02.15-.03.22-.02.14.11.26.1.39,0,.08-.05.16-.02.23.01.03.04.05.06.08.09.11.05.27.09.41.03.09.09.16.15.23.03.04.07.07.12.07.03,0,.06-.03.08-.05.21-.22.32-.53.35-.83.03-.3,0-.61-.04-.91,0-.06-.01-.12-.04-.18-.04-.07-.1-.12-.12-.2,0-.04,0-.09-.01-.13-.01-.03-.04-.06-.06-.08-.07-.1-.04-.24-.05-.36-.02-.17-.15-.31-.22-.46-.04-.08-.06-.16-.09-.23-.05-.14-.13-.26-.22-.38-.05-.06-.2-.29-.21-.09Z"/>
          <path class="cls-1" d="m116.02,56.78c-.03-.14-.06-.29-.09-.43-.02-.09-.04-.17-.04-.26,0-.09.01-.19.02-.28.02-.26,0-.53-.07-.78-.01.1-.07.19-.15.25-.03-.16-.08-.34-.21-.44.03.22.03.44.02.66,0,.05,0,.11,0,.16.01.05.04.09.06.13.06.14,0,.3.01.45.01.16.11.29.14.45.02.11.01.23.02.34.01.25.11.49.08.73,0,.06-.03.13-.03.19,0,.07.02.13.04.2.16.59.21,1.21.16,1.81,0,.09-.01.18,0,.27.03-.77.05-1.54.05-2.32,0-.38,0-.75-.01-1.13Z"/>
          <path class="cls-1" d="m92.5,53.47c-.07.04-.14.1-.12.17.02.05.07.08.13.08.05,0,.11-.01.16,0,.11.01.19.1.3.13.28.08.51-.23.23-.39-.18-.1-.53-.08-.69.02Z"/>
          <path class="cls-1" d="m115.61,50.81c-.12-.62-.2-1.24-.27-1.87-.01-.12-.03-.23-.04-.35-3.71-23.01-20.95-41.49-43.3-47.01-.06.09-.13.17-.2.26-.05.06-.09.11-.16.14-.07.03-.14.04-.21.04-.18,0-.37-.03-.54-.09.25.23.67.13.92.35.17.15.24.43.46.5.05.02.12.02.15.06.04.05.03.12.07.16.03.03.07.03.1.04.13.02.26.04.38.06.13.02.29.06.32.19-.14-.03-.31.06-.35.2.23.06.46.13.69.19.08.02.17.05.25.07.6.17,1.21.34,1.8.56.38.14.76.31,1.14.45-.39-.03-.77-.15-1.1-.36-.04-.03-.09-.05-.13-.07-.06-.02-.11-.02-.17-.03-.1-.01-.19-.05-.29-.08-.44-.16-.89-.27-1.34-.35-.05,0-.11-.02-.16,0-.05.02-.09.08-.07.13.27.22.67.15,1.01.23-.26.17-.6.05-.89-.08-.2-.09-.4-.18-.6-.27-.06-.02-.14-.04-.16.02.22.17.47.29.72.41.18.09.36.17.53.26.13.06.26.12.38.19.26.13.53.25.79.38.05.02.1.05.15.05.07,0,.13-.02.19-.04.28-.08.58,0,.85.11.29.12.56.28.8.47-.38-.21-.78-.38-1.19-.51-.06-.02-.12-.04-.18-.02-.06.01-.12.06-.11.12,0,.07.09.11.16.14.4.15.78.38,1.09.67.04.04.08.08.1.13.02.05,0,.12-.06.14.04.03.08.06.13.08-.34.03-.69,0-1.02-.08.21,0,.41-.01.62-.02.03-.04,0-.1-.05-.13-.04-.02-.1-.02-.15-.02-.06-.17-.18-.32-.33-.41-.08-.05-.17-.08-.25-.13-.17-.11-.31-.3-.51-.32-.26-.03-.5-.14-.73-.25-.22-.1-.44-.2-.64-.33-.04-.03-.08-.05-.12-.08-.04-.02-.08-.05-.13-.07-.3-.14-.61-.25-.93-.33-.27-.37-.75-.5-1.2-.52-.04,0-.1,0-.12-.05-.01-.02,0-.05-.02-.07-.02-.03-.05-.03-.09-.03-.15,0-.3,0-.45,0,0,.08.1.12.18.12.08,0,.17,0,.22.06.02.02.03.05.04.08.03.04.07.07.12.09.16.09.33.17.49.26.04.02.09.05.11.09.01.03,0,.07.02.11.02.1.12.17.22.2.1.03.21.03.31.05.18.04.35.16.44.32.02.04.04.08.08.1.06.03.17.02.17.09.13-.08.3-.02.43.04.14.07.28.15.43.12.04,0,.08-.03.12-.02.04,0,.06.04.09.06.12.13.25.26.37.39-.17.03-.31-.13-.47-.22-.1-.06-.21-.08-.32-.1-.23-.04-.47-.08-.71-.11-.49-.07-.99-.14-1.48-.21-.06,0-.12-.02-.18,0-.05.02-.1.09-.07.14.02.05.08.06.13.07.17.04.35.08.52.11,0,.04-.02.09-.03.13-.06-.01-.13.01-.16.06.05.04.1.08.16.13-.02.06-.11.03-.16,0-.2-.14-.45-.29-.67-.21-.02.12-.15.18-.27.18-.12,0-.24-.02-.35.02.04.03.04.1,0,.14-.04.03-.1.04-.15.03.05.06,0,.16-.07.2-.06.05-.14.08-.18.15-.02-.09.03-.19.11-.23,0-.05-.01-.09-.02-.14-.06,0-.12.02-.16.06-.04,0-.04-.06-.01-.09.02-.03.06-.06.05-.1-.01-.03-.04-.03-.07-.04-.08-.03-.12-.12-.12-.2-.11.05-.22.11-.33.16-.01.05.06.09.1.06.03.02,0,.07-.03.08-.04,0-.07,0-.11-.02-.19-.07-.42.05-.48.24-.13.02-.26.05-.38.11,0,.04,0,.08,0,.12-.07,0-.14,0-.21,0,.07.11.13.21.2.32-.1.02-.18-.02-.27.04-.11.07-.25.04-.37,0-.12-.05-.22-.12-.35-.15-.07-.02-.17-.06-.14-.13.01-.03.05-.04.09-.05.11-.02.23-.05.34-.07-.17-.19-.42-.3-.68-.34-.25-.04-.51-.03-.77,0,0,.12.17.14.28.18.27.11.3.55.58.61.06.01.12,0,.17.04.1.07.05.26.15.33-.28-.14-.61-.16-.9-.06-.03.01-.07.03-.09.05-.03.04-.03.09-.07.12-.07.06-.21.01-.25.09-.02.04,0,.09-.04.12-.03.03-.07.01-.11.03-.05.03-.04.1,0,.14.03.04.09.06.14.08.12.05.23.12.32.21-.09.03-.2.03-.3.02-.27-.02-.54-.06-.8-.11-.2-.04-.42-.08-.61,0-.05.02-.09.07-.07.11.01.03.05.04.08.05.22.06.44.12.66.18.05.01.11.03.15.07.04.04.05.11,0,.15-.3,0-.59-.09-.88-.17-.16-.04-.31-.09-.46-.17-.19-.1-.35-.24-.5-.39.06-.15-.08-.32-.23-.38-.15-.07-.32-.07-.47-.15-.16-.08-.3-.24-.48-.24.02-.06.11-.05.17-.03.53.16,1.09.25,1.65.27.07,0,.14,0,.21.02.06.01.11.03.17.04.36.09.75.05,1.08-.12.11-.06.23-.17.2-.29-.03-.11-.17-.15-.26-.22-.06-.05-.09-.11-.15-.16-.06-.05-.14-.07-.21-.08-.2-.05-.41-.1-.61-.15-.33-.08-.67-.16-.98-.29-.09-.04-.18-.08-.27-.1-.1-.02-.21-.02-.32-.02-.41,0-.81-.03-1.21-.11.04-.04.02-.11-.03-.14-.05-.03-.11-.03-.16-.03-.09,0-.2,0-.27.06-.02.02-.05.05-.08.06-.02,0-.05,0-.08,0-.19-.02-.37-.04-.56-.06-.02,0-.04,0-.05-.01-.07-.05.03-.15.11-.15.08,0,.19.01.23-.06.02-.05-.01-.12-.07-.14-.05-.02-.11-.02-.17-.02-.08,0-.15.01-.23.02-.07-.14-.3-.15-.38-.01-.07.03-.16,0-.21-.06.05-.05.11-.09.17-.1-.14-.1-.33-.05-.46.05.03.1-.11.21-.2.15.02-.1-.15-.11-.21-.04-.07.07-.12.18-.22.18.04-.11.08-.22.12-.32-.19-.02-.39.06-.53.19-.04-.03-.08-.06-.12-.09-.02.05-.06.1-.11.12-.01-.12-.2-.16-.27-.07.09.06.18.11.27.17-.26.08-.54.08-.79.01,0,.05-.02.09-.02.14-.12,0-.22.09-.26.2-.01-.07-.03-.13-.04-.2-.1.02-.19.08-.25.16-.08-.03-.13-.12-.1-.2-.06-.06-.17-.05-.22.02-.04.07,0,.18.08.2-.05.02-.1.03-.15.02,0-.09-.12-.16-.2-.11.04.06.09.11.13.17-.17-.11-.42-.08-.57.06.06.02.13.04.19.05-.07.12-.22.2-.37.18-.14-.02-.27-.13-.3-.27-.09.04-.17.11-.21.21-.09-.02-.19-.01-.28.01.04.04.07.09.11.13-.21,0-.42.08-.58.21.36-.08.73-.13,1.1-.15.04.02.03.1-.01.12-.04.03-.1.02-.15.02-.18,0-.36.07-.49.2.08.04.16.08.25.11-.12.06-.25.08-.39.06-.32.15-.61.38-.84.65-.04.05-.1.11-.17.11-.06,0-.1-.05-.16-.08-.14-.06-.32.07-.3.22,0,.05.03.1.01.15,0,.03-.03.05-.05.07-.18.18-.36.37-.6.45-.13.04-.27.06-.39.11-.12.06-.23.19-.19.32-.28-.18-.64.04-.9.25-.17-.05-.36-.03-.51.05.02.08.03.16.05.24-.19-.12-.44-.04-.64.04-.13.05-.27.12-.3.25-.01.06,0,.13-.05.17-.07.06-.2,0-.25.07-.04.05,0,.13,0,.2.03.21-.2.35-.4.42,0,.13,0,.26,0,.38.1-.08.23-.11.35-.07-.04.12-.19.13-.31.17-.12.03-.23.19-.13.26.08-.04.17-.06.26-.05-.11,0-.13.19-.03.23-.14,0-.29.07-.38.18.45.4,1.13.5,1.68.27.17-.07.38-.13.52-.25.29-.23.68-.32,1.04-.25-.1.35-.03.72.13,1.05.15.33.38.61.62.88.06.07.12.14.2.18.12.06.26.04.38.02.32-.04.65-.08.97-.12.08,0,.16-.02.22-.06.07-.05.12-.13.16-.21.18-.34.35-.69.53-1.03.07-.13.11-.34-.03-.39.23.05.48-.06.6-.26.05.02.1.04.16.07.09-.11.22-.17.35-.18-.08-.1-.03-.27.1-.3-.07-.16-.17-.3-.29-.43-.03.07-.14.02-.2-.04-.06-.06-.18-.08-.19,0-.04-.1-.14-.17-.25-.16.03-.14.07-.27.1-.41.06-.05.11-.11.14-.18-.03-.03-.06-.07-.09-.1-.02-.11.07-.22.17-.27.1-.06.21-.08.32-.13.19-.1.32-.28.51-.39.13-.08.27-.11.41-.16.44-.16.84-.45,1.13-.82.05-.06.09-.12.16-.16.06-.04.14-.05.21-.06.33-.05.71-.08.94.15-.44.3-.88.6-1.32.9-.17.11-.33.23-.51.33-.12.03-.14.19-.09.3.05.11.15.19.19.31.08.21-.06.44-.12.66-.01.04-.02.08-.01.12.05.23.5.02.62.22.04.07.02.17.08.22.03.02.07.03.11.03.41.03.83-.01,1.23-.14.11-.03.21-.07.32-.1.08-.02.17-.03.25-.04.36-.04.72-.08,1.07-.12.16-.02.4.04.36.2.26-.02.53,0,.79.08,0,.11-.17.1-.28.08-.35-.06-.66.27-1.02.31-.12.01-.24-.01-.37-.03-.62-.09-1.26,0-1.83.24-.06.17.01.37.16.47.12.08.3.1.37.23.04.07.04.17.03.25-.01.17-.04.37-.19.45-.13.07-.3.02-.43-.07-.12-.09-.23-.21-.37-.27-.23-.11-.54-.02-.68.19-.08.12-.13.28-.26.33-.15.16-.05.41.05.6.1.19.19.45.04.6-.17.17-.48.02-.71.12.09,0,.07.16,0,.22-.27.25-.74.23-.99-.04-.05-.05-.1-.12-.17-.15-.06-.03-.13-.03-.2-.02-.33.03-.64.17-.95.29-.39.14-.8.24-1.21.28-.24.03-.5,0-.69-.15,0-.08.04-.15.09-.21-.17-.08-.4-.03-.52.11-.22-.08-.5.04-.58.26-.22.04-.45.02-.66-.03.02-.09.05-.18.11-.26-.23.02-.47-.04-.67-.16.05-.15-.1-.29-.09-.44.01-.21.28-.28.4-.45.02-.03.04-.07.07-.1.04-.05.1-.09.15-.13.19-.16.31-.41.3-.66,0-.05,0-.1.01-.15.03-.09.14-.16.11-.24-.36-.1-.66.39-1.03.35,0,.05-.02.1-.03.15-.05,0-.1-.05-.12-.1-.13.02-.25.1-.32.21.06.05.18.03.22-.04.03.03.03.07.02.11-.08.11-.24.14-.36.07.01.08-.12.1-.13.18,0,.05.03.09.05.14.03.08-.03.16-.06.25-.03.08,0,.2.09.2,0,.1.06.2.13.28-.14.09-.2.29-.14.44.01.04.04.08.03.12,0,.04-.02.08-.03.12s0,.09.05.1c-.02.07-.09.13-.16.14s-.15,0-.23,0c.02.1,0,.2-.02.29-.17.02-.34-.07-.41-.23-.15,0-.3,0-.45,0-.03,0-.07,0-.09.03-.02.03,0,.08-.02.12-.01.03-.05.04-.08.05-.12.04-.25.05-.38.03-.07,0-.14-.03-.22-.03-.11,0-.21.04-.31.08-.05.02-.1.04-.14.08-.04.04-.05.1-.02.15.07,0,.15.03.19.09-.1.12-.25.21-.41.23.08-.16-.03-.37-.2-.4-.02,0-.04,0-.06,0-.02.02-.02.05-.02.08,0,.15.01.37-.13.42-.14.06-.29.12-.38.23-.04.05-.08.12-.15.14-.05.02-.1,0-.15.02-.07.02-.11.08-.16.14-.2.23-.53.28-.83.34-.3.06-.63.15-.78.41-.04.07-.06.15-.11.21-.26.4-1.01.23-1.22.66-.22,0-.44,0-.66,0-.04,0-.09,0-.13-.03-.03-.03-.04-.07-.06-.1-.07-.12-.25-.11-.39-.07-.09.12.12.26.12.4,0,.14-.21.22-.22.36-.2-.08-.41.11-.62.07-.16-.03-.25-.19-.33-.33-.26.15-.58.2-.88.15-.06-.01-.13-.03-.19-.01-.06.01-.12.06-.12.13,0,.08.08.13.08.21,0,.08-.07.13-.13.18-.06.05-.1.15-.04.19.44,0,.88.19,1.18.51.03.03.06.07.07.12.02.09-.06.17-.05.26,0,.06.06.11.1.15.12.11.23.22.35.33.02.02.04.04.05.07.02.06-.02.12-.04.18-.06.14-.02.3.08.41-.07.02-.15-.01-.18-.07-.06.13-.05.29.03.4-.1-.04-.2.06-.27.15-.13.17-.26.35-.33.56-.03.08-.05.18-.12.23-.05.04-.12.05-.17.09s-.11.2-.06.23c.04.03.04.09,0,.13-.03.04-.09.05-.14.05-.29.04-.58.03-.86-.05-.04-.01-.09-.02-.13-.05-.04-.02-.07-.05-.11-.07-.08-.04-.17-.02-.26,0-.31.05-.63.01-.95-.02-.21-.02-.42-.05-.63-.07-.07,0-.14-.02-.21-.02-.25-.03-.5-.06-.74-.13-.07-.02-.15-.05-.22-.08-.04-.02-.09-.04-.14-.04-.2-.02-.34.19-.52.27-.15.07-.31.04-.47.06s-.34.1-.36.26c-.01.09.04.18.05.28.06.36-.38.66-.33,1.02,0,.06.03.11.03.17,0,.14-.12.24-.16.37-.03.07-.03.16-.05.23-.06.15-.22.23-.37.29,0,.16-.05.33-.16.44-.04.04-.09.08-.14.11-.18.13-.33.29-.46.47-.05.07-.1.14-.12.22-.04.18.05.36.07.54.04.25-.04.5-.11.75-.04.17-.07.35-.1.52.2-.12.42.09.65.12.31.04.61-.26.91-.16.03.12.09.24.18.33-.03.05-.06.09-.09.14.06.04.12.09.18.13-.12.13-.07.34,0,.5.28.08.6,0,.82-.19.05-.04.09-.09.15-.12.09-.04.2-.03.3-.06.1-.03.19-.14.14-.22.06,0,.11,0,.17,0,.01.06.03.11.04.17.51-.05,1.04-.04,1.55.06.43-.22.71-.76,1.19-.76.09,0,.19.02.27-.03.05-.03.08-.07.11-.12.07-.1.13-.2.2-.3.16-.24.38-.51.66-.49.06-.15-.06-.3-.09-.46-.05-.24.1-.46.24-.66.04-.05.08-.1.11-.16.36-.08.5-.55.83-.69.08-.03.17-.05.2-.13.02-.04.02-.08.03-.12.05-.12.23-.11.36-.07,0-.12.14-.17.25-.19.13-.02.25-.04.38-.06.07-.01.14-.02.19-.06.05-.03.08-.08.12-.11.21-.18.62-.09.75-.34.06-.11.02-.25,0-.37-.03-.16-.03-.33.04-.49.06-.15.2-.28.36-.3.06,0,.13,0,.19-.03.05-.03.08-.08.13-.12.09-.09.24-.1.36-.06.12.04.22.12.32.2.21-.04.45-.08.6.07.04.04.07.1.12.13.04.02.09.03.14.03.21,0,.44.02.66.03.1-.08.19-.17.29-.25.13-.11.26-.22.38-.33.03-.02.05-.04.08-.06.07-.04.16-.03.23-.04.18-.03.32-.16.46-.26.14-.11.33-.2.5-.14.06.02.11.07.18.08.05,0,.1,0,.14.01.04.01.07.05.11.08.13.1.32.08.45.18.1.08.15.21.19.33.02.05.04.11.04.17,0,.08-.04.15-.01.22.02.06.07.1.09.15.02.04.03.08.04.12.04.12.14.23.26.27.05.02.09.02.14.04.04.02.08.06.12.09.09.09.18.22.28.29.18.15.35.29.53.44.04.03.08.07.14.07.04,0,.08-.01.12,0,.09.01.12.12.2.17.08.05.19.02.28.03.3.03.41.4.63.6.08.07.17.12.26.17.22.12.44.24.66.35.07.04.14.08.19.14.04.05.07.11.09.17.05.12.09.23.13.35.04.11.07.23.07.35,0,.36-.18.6-.26.93.08.02.04.16.06.23.2-.11.4-.24.58-.38.07-.06.15-.12.18-.21.03-.09.02-.21.1-.27.07-.06.17-.04.26-.08.1-.05.15-.18.13-.29s-.08-.21-.16-.3c-.06-.08-.08-.25-.11-.34-.06-.2.03-.3.16-.46.03-.03.05-.06.09-.08.05-.02.12-.01.18,0,.24.06.46.17.66.31.1.07.23.15.33.09.08-.05.09-.16.05-.25-.04-.08-.11-.14-.18-.2-.13-.11-.27-.21-.4-.32-.07-.05-.14-.11-.21-.16-.34-.22-.76-.28-1.16-.33-.06,0-.13-.02-.15-.07.17-.05.21-.31.09-.45-.12-.14-.33-.16-.5-.13-.13.02-.28.06-.37-.03-.03-.03-.04-.06-.07-.09-.04-.04-.08-.06-.13-.08-.2-.09-.4-.18-.6-.26,0-.11,0-.23,0-.34,0-.03,0-.07-.03-.1-.02-.02-.05-.02-.08-.03-.2-.08-.05-.45-.23-.56-.04-.02-.09-.03-.13-.04-.2-.04-.39-.17-.49-.35-.08-.14-.11-.3-.14-.46-.03-.19-.06-.42.07-.57.09-.11.24-.14.38-.18.12-.03.23-.05.35-.08.04,0,.09-.02.12,0,.03.02.05.05.06.08.08.18.16.36.25.54.14-.03.21-.21.33-.29.18-.13.48.02.48.24,0,.11-.06.23-.01.34.05.13.24.18.26.31,0,.04,0,.08,0,.13.02.12.17.16.28.2.15.06.27.17.34.31.19-.03.38.02.54.12.05.03.09.06.14.08.04.01.1.01.13.04.04.03.06.09.08.14.09.17.34.18.47.33.19.06.36.16.52.28.16.13.3.28.49.36.13.06.28.07.39.16.11.09.13.3,0,.35-.03.01-.06.01-.08.03-.03.02-.03.06-.03.1,0,.14,0,.26,0,.4,0,.25-.04.5,0,.75.03.25.14.51.36.63.19.1.42.09.59.22.1.08.17.19.23.3.23.42.46.84.69,1.26.16.28.31.57.38.89,0-.15.18-.27.32-.21.14.05.21.24.15.38.2-.01.35-.25.29-.44.07.17.25.29.44.27-.15-.26-.2-.57-.14-.87.15.1.38.06.49-.09-.15-.13-.25-.32-.28-.52.19.16.45.22.68.16-.15-.22-.19-.51-.11-.77-.1-.27-.3-.51-.56-.65-.06-.03-.13-.07-.16-.13-.08-.16.16-.33.14-.51-.01-.09-.09-.17-.07-.26.03-.19.34-.1.52-.17.13-.05.19-.2.31-.28.13-.08.29-.07.44-.05.27.03.54.06.8.1.13.02.27.03.36.13-.03.04,0,.08.05.09.05,0,.09-.02.13-.03.14-.05.3-.04.45-.05.15-.02.32-.09.36-.23.02-.05.02-.11.05-.15.02-.02.05-.04.08-.05.22-.1.48-.11.7-.02.06.02.12.05.18.05.06,0,.13-.02.16-.08.05-.11-.09-.2-.21-.21-.12,0-.25.02-.34-.06-.07-.06-.13-.19-.21-.15-.02-.17-.08-.34-.16-.49-.02-.04-.05-.08-.09-.12-.07-.06-.18-.1-.18-.19.01-.12.23-.12.24-.25,0-.03,0-.06-.02-.08-.05-.13-.08-.31.02-.4.09-.08.24-.06.33-.14.18-.16-.04-.49.1-.69.03-.03.06-.06.07-.1.01-.05-.02-.11-.03-.16,0-.08.05-.14.12-.18.07-.03.14-.04.22-.04.05,0,.09,0,.14,0,.02,0,.04,0,.05-.01.05-.02.05-.09.03-.14-.02-.05-.05-.1-.03-.15.02-.06.09-.09.11-.15.03-.13-.19-.21-.16-.34.02-.09.13-.1.22-.12.28-.06.47-.37.4-.64.11.02.23,0,.33-.05.02-.01.05-.03.07-.03.04,0,.06.04.1.06.04.03.1.02.15.02.17-.01.35-.03.52-.04-.06.09-.12.19-.19.28.12,0,.25,0,.36.01-.04,0,.48.11.45.12.23.02.46.07.67.17-.14,0-.28.05-.37.15-.03.03-.06.07-.09.09-.06.03-.15.01-.21.04-.08.03-.12.12-.09.2.16-.04.33.04.47.11.22.11.47.25.54.49.02.06.02.13.05.19.03.06.09.11.15.1.03,0,.05-.02.08-.04.16-.11.32-.22.48-.33.02-.02.05-.03.07-.05.13-.09.26-.18.35-.3.01-.02.02-.03.04-.04.05-.03.1,0,.15.03.18.09.4.05.6,0,.08-.09.02-.25-.1-.31-.11-.05-.25-.03-.37-.01-.04,0-.09.02-.13.04-.03.02-.06.06-.09.08-.14.09-.31-.05-.43-.17-.15-.14-.33-.24-.52-.3-.01-.15.13-.25.26-.32.26-.15.53-.3.83-.35.05,0,.11-.01.16-.04.04-.02.06-.06.1-.08.11-.07.26-.03.37-.11.05-.04.08-.1.13-.14.12-.09.29-.03.44-.02.32.02.64-.23.93-.1-.04.19-.27.25-.46.29-.19.04-.41.13-.42.32.11.06.22.12.33.18.05.03.12.1.07.14-.08,0-.15,0-.23-.01.05.08.02.19,0,.28-.02.06-.04.13-.09.18-.11.13-.32.1-.49.05-.02.12.08.22.16.3.13.12.27.25.4.37.03.03.07.06.11.07.05.01.1,0,.15,0,.11,0,.22.09.23.2.1,0,.21,0,.31-.01.03.13.2.13.33.14.21.02.4.16.57.28.26.2.53.39.79.59.05.04.1.07.16.09.04,0,.09,0,.13,0,.23.02.4.27.62.24.12.13.24.27.36.4.04.04.07.08.11.12.03.04.06.07.08.12.06.14-.02.29-.11.41-.13.17-.29.31-.47.42-.05-.03-.12-.03-.17,0,.04.05,0,.12-.04.16-.05.03-.11.04-.17.05-.12.01-.25.02-.37-.03-.03-.01-.06-.03-.09-.05-.05-.02-.1-.02-.15-.02-.43,0-.86,0-1.29,0-.14,0-.3,0-.41-.09-.06-.04-.1-.1-.17-.11-.04,0-.08,0-.12,0-.24.03-.5-.02-.7-.15-.1-.07-.2-.15-.33-.17-.12-.02-.23,0-.33.05-.1-.08-.2-.17-.29-.25-.04-.03-.08-.06-.12-.06-.03,0-.05.02-.08.03-.23.13-.51.11-.77.11-.38,0-.76.06-1.13.17-.04.01-.08.02-.11.04-.05.02-.09.06-.14.09-.1.08-.21.16-.32.23-.03.02-.06.04-.09.06-.13.09-.26.19-.42.18-.15,0-.28-.1-.43-.12-.24-.05-.48.09-.73.07-.08,0-.15-.03-.22-.04-.08,0-.16.01-.21.07s-.04.16.03.2c.07.03.16-.01.21.04,0,.27-.24.52-.51.53-.11,0-.21-.02-.32-.04-.27-.05-.54-.04-.81.01-.1.02-.2.05-.29.03-.09-.02-.16-.06-.25-.07-.12-.01-.24.06-.29.18,0,.07,0,.12-.02.19-.07.37-.14.74-.21,1.11.03.12.22.08.27-.03.05-.11,0-.23,0-.35-.01-.12.03-.27.14-.29.14-.03.23.14.27.28.04.14.08.28.12.42.08.19-.11.44-.31.42-.1.09-.02.27.1.32.13.05.27.02.4.03s.29.07.32.2c.01.07-.02.14-.03.22-.02.19.16.38.35.37-.11.12-.1.33.01.44.17-.15.38-.25.61-.29-.07.07-.14.13-.2.2.15.06.48.02.63.08.22.08.25.25.47.34.29.11.6.22.89.14.06-.02.12-.05.15-.1.05-.09-.01-.22.03-.32.05-.11.19-.13.31-.12.37.01.77-.02,1.08.17.39.23.48.51,1.02.39.39-.09.98-.3,1.12-.68.25-.11.56-.06.75.13.05.05.09.1.15.12.19.08.34-.17.39-.37.14-.02.23.16.2.29s-.12.25-.16.39c-.11.4.28.77.28,1.18,0,.38-.35.71-.32,1.09.01.16.09.32.08.48,0,.16-.18.33-.32.25.16.24.09.57-.04.83-.12.26-.3.51-.33.8,0,.06-.01.13-.04.18-.08.14-.28.13-.44.11-.34-.04-.78-.03-.95.26-.55-.49-1.35-.69-2.07-.5,0,.05-.01.11-.02.16-.34,0-.66.25-.77.58-.02-.13-.21-.15-.34-.09-.12.06-.24.16-.37.14-.18-.02-.27-.24-.43-.32-.32-.16-.8.27-1.02-.01-.06-.08-.08-.2-.16-.26-.06-.05-.15-.05-.22-.05-.6-.02-1.2-.03-1.81-.05.12-.13.02-.36-.14-.43-.16-.07-.35-.04-.52-.02-.18.02-.37.02-.51-.09-.06-.06-.11-.14-.19-.16-.08-.02-.16,0-.24,0-.35,0-.49-.59-.83-.55-.07,0-.13.04-.2.04-.08,0-.15-.06-.22-.1-.17-.08-.37-.04-.55,0-.27.06-.55.12-.82.18-.14.03-.29.07-.4.15-.12.09-.19.25-.13.38-.2.27-.3.62-.27.95.13,0,.21.16.18.28-.03.13-.12.22-.21.31-.21.21-.54.42-.78.24-.11.1-.21.2-.32.3-.15-.32-.41-.59-.73-.73-.16-.07-.33-.12-.5-.16l-1.13-.29c-.3-.08-.66-.22-.69-.53,0-.06-.13-.1-.2-.11.12-.09.04-.31-.11-.31.07-.13-.11-.28-.26-.28-.15,0-.31.06-.45.01-.21-.07-.33-.36-.55-.33-.06,0-.12.03-.17,0-.03-.02-.04-.06-.07-.09-.03-.03-.08-.03-.13-.03-.17,0-.35,0-.52-.01-.06,0-.11,0-.16.02-.04.02-.07.05-.11.07-.12.06-.25-.02-.36-.08-.11-.07-.27-.12-.36-.03-.03-.05-.06-.11-.09-.16-.11.08-.25.02-.36-.06-.11-.07-.23-.16-.36-.13.03-.08.12-.11.19-.16s.12-.16.06-.21c-.25,0-.5,0-.76.01-.08-.16-.16-.38-.03-.51.08-.09.24-.11.31-.21.04-.06.05-.13.11-.17.04-.03.09-.03.13-.05.07-.03.12-.11.15-.19.11-.26.14-.55.1-.83-.17,0-.26-.19-.32-.35-.04-.1-.08-.22-.04-.32.04-.1.2-.16.26-.08.08-.19.2-.35.34-.5-.21-.07-.47.02-.6.21-.07-.03-.07-.14-.05-.22.03-.08.07-.16.05-.23-.04-.15-.26-.14-.41-.1.04-.06-.06-.13-.13-.1s-.12.09-.19.1c-.06.01-.12,0-.17.02-.05.02-.08.07-.12.11-.21.2-.56-.01-.83.06-.11.03-.2.09-.31.12s-.24-.02-.27-.12c-.3.07-.64-.07-.95-.1-.24-.02-.48.04-.68.17-.05.04-.1.08-.16.1-.16.06-.33-.02-.48-.09-.21-.09-.44-.15-.67-.18-.07,0-.14-.02-.21-.01-.07,0-.13.02-.19.03-.08.02-.16.04-.24.05-.4.09-.8.18-1.2.25-.17.03-.35.06-.52.02-.13-.03-.29-.1-.39,0-.03.03-.05.08-.09.11-.08.05-.19,0-.28.02-.07.03-.11.12-.19.15-.05.02-.1,0-.15,0-.17-.01-.34.1-.39.26-.01.04-.02.08-.05.09-.03.02-.07,0-.11,0-.33-.12-.69.01-.98.2.08.07-.02.2-.12.25-.3.14-.64.19-.97.14-.5-.08-1.01-.38-1.47-.19-.11.04-.25.08-.29.19-.11-.06-.14-.19-.2-.3s-.17-.22-.29-.17c.01-.12.03-.24.04-.36-.12.04-.24.08-.35.12-.13.04-.28.1-.34.22-.03.06-.04.12-.08.17-.03.04-.08.06-.12.1-.05.05-.08.13-.1.2-.16.43-.5.79-.91.99-.09.04-.18.08-.27.11l-.99.38s-.09.04-.14.06c-.05.03-.09.07-.13.11-.09.07-.21.1-.29.18-.06.05-.09.12-.14.19-.17.24-.43.38-.66.56-.13.1-.26.23-.29.4-.02.09,0,.19-.01.28-.06.28-.42.41-.47.69-.02.09,0,.19.06.26.02.03.06.06.07.1.09.19-.2.41-.1.59-.21.03-.4.18-.47.39-.12.38-.74.42-1.02.71-.18.18-.34.45-.59.44-.08,0-.16-.03-.23,0-.07.02-.11.09-.18.12-.1.05-.22,0-.33,0-.11-.01-.26.04-.25.15-.07-.03-.13-.05-.2-.08-.13.2-.27.41-.4.61-.25.37-.51.76-.89.98-.04-.07-.14-.09-.22-.06-.07.03-.13.1-.17.17-.37.54-.6,1.19-1.1,1.61-.12.1-.25.19-.36.3-.1.12-.18.26-.25.4-.17.3-.36.59-.55.88-.12.17-.23.35-.35.52-.08.12-.17.25-.26.36-.1.11-.21.22-.29.34-.2.3-.22.7-.06,1.02.05.1.12.19.17.29.13.27.11.61-.06.86-.06.09-.14.17-.18.27-.09.21-.03.45,0,.67.07.47,0,.96-.18,1.41-.1.23-.29.47-.39.7-.11.25-.14.52-.14.79,0,.1,0,.2-.03.3-.04.09-.11.17-.18.24-.15.16-.28.35-.41.53-.08.11-.16.22-.24.34-.05.07-.09.14-.09.22,0,.07.04.13.07.19.14.24.31.5.27.77-.01.08-.04.17-.01.24.05.14.24.15.39.15.15,0,.34.06.35.21-.22-.04-.45-.08-.66,0-.21.08-.36.33-.26.53.29.12.63.24.89.06.1.07.07.25-.03.32-.1.07-.24.07-.37.04-.12-.03-.25-.07-.37-.06-.04,0-.08.01-.11.04-.07.07-.01.18.06.24.07.06.16.12.18.21.02.09-.04.2,0,.28.07.12.25.04.35-.06.1-.09.27-.19.36-.09.11.13-.09.35.01.48.03.04.08.06.11.1.06.08.01.18,0,.28-.02.16.06.32.14.46.12.22.24.43.37.65.04.07.08.13.13.18.05.04.1.07.15.1.15.09.27.21.36.36.12.19.17.41.22.62.08.34.17.68.25,1.02.02.07.04.14.05.22,0,.06.01.12.02.18.05.25.19.46.34.67.03.04.06.08.1.11.05.04.12.05.18.06.17.05.32.19.38.36-.04,0-.08-.02-.12-.03.16.14.39.42.54.56.03.02.05.05.08.07.16.14.32.28.47.43.07.06.14.13.22.19.08.07.17.14.27.13.06.33.38.53.56.8.04.06.08.13.13.19.04.04.08.07.13.1.12.08.24.16.36.24.1.07.21.14.31.21.17.11.34.21.52.31.06.03.11.07.17.1.05.03.09.05.15.05.13,0,.27-.16.37-.08,0-.11.13-.2.24-.16.03.01.07.04.1.01.02-.02.02-.05.03-.08.03-.09.16-.09.25-.06.09.03.2.07.27,0,.04-.04.05-.09.08-.13.08-.11.24-.09.37-.05.13.04.27.1.39.02.06-.04.09-.1.15-.13.09-.05.21-.02.31,0,.32.07.66.04.99.05.33,0,.68.06.93.27.04.03.08.07.14.08.05,0,.1-.02.14-.03.1-.03.21-.03.32,0,.14.05.25.15.37.22.12.08.29.12.41.04.05-.06.08-.14.07-.22.11.06.14-.08.26-.13.14-.06.31.09.43,0,.05-.04.08-.11.14-.13.07-.03.15.04.23.04.11,0,.19-.1.27-.18.08-.08.25-.11.28,0,.03-.07.07-.15.1-.22.26.01.53.03.79.04.02-.1.05-.2.07-.3.22.09.43-.16.67-.19.19-.03.44.07.54-.09.02-.04.03-.1.07-.12.03-.02.07-.02.11-.01.61.06,1.23.11,1.84.17.1,0,.21.02.3.04.33.08.59.32.83.56.14.14.29.29.29.49.19.05.18.32.23.51.04.17.15.32.26.46.13.16.28.35.49.34.07,0,.15-.03.22-.02.07,0,.14.03.21.06.22.07.47.03.66-.1.05-.04.1-.08.16-.1.14-.06.3.01.45.03.29.03.57-.12.85-.1.28.02.55.21.64.48.03.08,0,.15.01.23,0,.03.01.06.03.09.06.07.16,0,.25-.01.12-.02.23.06.3.15.07.09.13.2.21.29.09.09.22.16.27.28.03.06.03.13.03.19,0,.18.01.37.02.55,0,.04,0,.08-.03.11-.02.02-.04.02-.06.04-.12.07-.14.24-.12.38.02.14.04.3-.04.41-.04.05-.09.08-.11.14,0,.05.01.09.01.14,0,.09-.09.16-.16.22-.07.06-.12.18-.06.24.03.03.06.04.09.06.11.09.01.26.01.4,0,.11.07.24,0,.33-.04.04-.1.05-.14.09-.04.04-.04.11-.04.17,0,.14,0,.28,0,.42,0,.05,0,.11-.03.15-.05.09-.17.14-.15.23,0,.04.03.07.04.1,0,.06-.06.1-.1.14-.15.14-.15.4,0,.54.03.03.07.06.1.09.04.06.04.14.04.21-.01.23-.02.5.16.65.05.04.11.07.17.11.18.11.3.29.42.46.26.38.61.69.93,1.02.16.16.32.32.49.46.23.19.52.4.53.7.26.15.34.49.39.79.05-.05.15,0,.18.07.03.07.02.15.05.22.04.1.15.18.12.28-.02.05-.06.07-.08.12-.05.09.02.21.11.28.08.07.18.13.21.24.01.06,0,.13.01.2.05.16.3.18.37.33.05.11,0,.23.02.35.05.23.41.36.35.59-.02.08-.09.15-.05.22.02.05.08.06.11.1.04.05.03.13.02.19-.02.21.08.43.24.57-.12-.08-.3.02-.34.16-.05.14-.01.29.03.43.04.13.07.26.11.39.08.29.18.61.45.74.09.04.19.07.24.15.03.06.03.13.03.19,0,.21-.02.42-.02.62,0,.17-.01.35-.1.51-.11.2-.33.34-.36.56-.34.15-.64.41-.84.73.11.22-.17.45-.16.7,0,.11.06.21.07.32.02.31-.38.61-.21.86-.13.21-.29.47-.43.68-.04.06-.08.13-.09.2-.02.16.1.3.17.45.08.16.09.35.04.53-.13.15-.17.37-.1.56.07.02.14.04.21.07-.04.11.03.24.1.34.11.17.23.35.34.52.13.19.26.39.47.49.05.03.11.05.14.09.04.06.03.15.04.22.02.1.12.18.22.18-.08.17.01.39.18.45.04.02.09.03.11.06.06.08-.04.2-.02.3.01.04.04.08.07.11.11.11.21.21.32.32.14.14.29.32.24.51.23.02.34.28.38.51.04.01.07.03.11.04.11.15.22.3.33.45.03.04.05.07.07.11.01.04.01.09.01.13,0,.43,0,.86,0,1.29,0,.04,0,.08.02.11.05.11.22.09.3.18.03.04.04.09.05.13.05.3.05.61,0,.91-.02.15,0,.36.15.35.03,0,.05-.01.08,0,.06,0,.08.09.09.15.02.21.03.42.05.63.09.07.15.17.24.24.18.15.37.31.55.46.25.21.51.41.8.57.1.06.21.11.25.22.04.09.02.23.12.27.04.02.08.01.11.04.05.05,0,.13-.01.2-.05.19.14.34.29.48.14.13.25.29.31.47.02.06.04.13.1.17.07.05.19.03.24.11.02.03.02.07.03.11.02.13.08.25.12.37.03.13.03.28-.05.37-.06.06-.14.09-.21.14-.07.05-.12.14-.08.21.01.03.04.05.07.07.19.15.39.31.58.46-.04.08-.08.18-.01.24.02.02.05.03.08.04.14.04.27.09.41.14.18.06.36.13.49.26.1.1.21.26.35.23.06-.01.1-.05.15-.08.12-.07.28-.09.41-.04.02-.14.17-.22.31-.24.14-.01.28.02.42.02.12,0,.23-.02.35-.05.13-.03.27-.06.4-.09.08-.02.16-.03.23-.06.06-.03.12-.07.19-.09.15-.05.31-.01.46,0,.15.01.33-.02.42-.15.08.16.3.2.48.17.18-.03.36-.09.53-.04.11.03.25.1.31,0,.02-.03.02-.07.05-.1.03-.02.09,0,.06.03.16.05.25-.01.38-.12.05-.05.1-.11.17-.13.08-.03.17-.02.25,0,.33.06.71.07.99-.13.11-.08.2-.18.3-.26.16-.12.35-.18.53-.24.52-.19,1.01-.48,1.43-.85.1-.09.2-.18.32-.24.1-.05.21-.07.31-.13.11-.06.2-.16.29-.25.21-.22.42-.45.62-.67.33-.35.67-.71,1.07-.97.13-.08.27-.16.39-.25.2-.16.35-.39.49-.61.29-.45.59-.96.51-1.49-.01-.08-.03-.16-.03-.24,0-.4.44-.62.81-.75.42-.15.83-.29,1.25-.44.3-.1.62-.23.76-.51.12-.23.08-.51.11-.78.03-.33.16-.64.3-.94-.08-.02-.16-.03-.24-.05-.09-.03-.1-.16-.07-.25.04-.09.1-.17.11-.26,0-.08-.02-.15-.05-.22-.15-.36-.3-.72-.45-1.08-.06-.13-.04-.24.07-.33.52-.41,1.03-.81,1.55-1.22.12-.09.24-.19.36-.28.27-.21.54-.42.84-.58.13-.07.27-.13.41-.19.23-.1.45-.2.68-.29.28-.12.59-.24.88-.15.68-.87,1.8-1.49,2.02-2.57.11-.56-.06-1.14-.04-1.71.03-.83.44-1.71.07-2.46-.06-.11-.18-.23-.29-.18.08-.15-.04-.32-.16-.44-.11-.13-.21-.33-.09-.45-.09-.13-.17-.26-.26-.39-.1-.15-.2-.35-.1-.5.04-.06.11-.1.15-.16.16-.24-.27-.5-.24-.79.03-.24.37-.37.35-.62-.02-.27-.4-.3-.6-.48-.27-.25-.12-.68.04-1,.31-.62.63-1.23.94-1.85-.11-.17.21-.36.36-.5.15-.14.19-.37.2-.57.02-.21.03-.43.15-.59.12-.17.41-.23.53-.06.17-.44.48-.83.87-1.1.17-.11.38-.28.3-.47,1.2-1.48,2.49-2.9,3.84-4.24.29-.29.59-.58.86-.88.84-.94,1.45-2.05,2.06-3.16.07-.12.14-.26.13-.4,0-.12-.08-.24-.05-.36.03-.13.16-.2.25-.3.23-.23.22-.6.28-.92.15-.7.69-1.26.87-1.95.07-.26.08-.53.09-.8.03-.61.06-1.21.08-1.82-.2-.18-.56-.34-.69-.1-.03.06-.04.13-.07.19-.06.1-.18.15-.29.18-.35.11-.71.23-1.06.34-.54.17-1.07.34-1.61.51-.19.06-.28.29-.52.3-.22,0-.54-.13-.76-.09-.34.07-.58.57-.88.56-.33,0-.59,0-.85-.21-.29-.24-.55-.63-.91-.74-.07-.02-.16-.03-.21-.1-.07-.1.02-.24.09-.35.23-.35.12-.88-.23-1.11-.26-.17-.47-.46-.72-.64-.06-.04-.11-.08-.17-.12-.26-.19-.53-.39-.67-.68-.02-.05-.04-.1-.07-.15-.12-.18-.39-.26-.42-.47-.08.03-.16.05-.23.08-.08-.13-.17-.27-.31-.34-.14-.07-.34-.04-.41.1.05-.17-.1-.33-.26-.4-.16-.07-.35-.09-.48-.21-.09-.08-.14-.19-.19-.3-.11-.26-.22-.53-.32-.8-.03-.08-.06-.16-.09-.23-.1-.25-.19-.49-.32-.73-.17-.32-.41-.61-.68-.85-.19-.17-.4-.32-.63-.44-.1-.05-.2-.1-.28-.18-.08-.08-.13-.19-.18-.29-.22-.52-.35-1.09-.36-1.65,0-.22-.05-.5-.26-.53,0-.13.04-.25.12-.35-.17-.08-.29-.23-.33-.41-.02-.09-.02-.19-.06-.27-.03-.05-.07-.1-.12-.14-.27-.25-.58-.45-.92-.61-.2-.14-.34-.36-.36-.61-.01-.17,0-.38-.15-.45-.05-.02-.12-.04-.13-.09-.01-.04.03-.08.05-.12.06-.13-.05-.27-.15-.38-.24-.25-.43-.54-.57-.86-.26-.57-.64-1.07-.95-1.62-.04-.08-.09-.16-.13-.24-.15-.27-.3-.53-.49-.77-.17-.22-.37-.4-.55-.62-.24-.29-.44-.63-.58-.98-.03-.09-.07-.18-.13-.25-.05-.05-.12-.09-.16-.15s-.06-.15-.01-.2c.14-.06.29.06.36.18.08.13.12.28.23.38.06.05.14.09.19.16.05.07.06.16.08.24.09.35.41.58.7.79.1.07.23.15.35.13.2-.04.26-.3.26-.51,0-.21,0-.46.2-.55-.04.2-.08.41-.04.61.05.2.2.39.41.4.08,0,.17-.02.24.02.06.03.09.09.12.14.2.34.48.63.81.85.09.06.18.11.25.19.07.09.1.19.14.3.29.74,1.01,1.27,1.2,2.04.02.07.03.14.07.19.11.16.37.13.51.26.1.09.15.25.29.26.06,0,.11-.03.17-.02.13.02.13.2.18.32.06.13.2.2.3.3.06.05.11.11.15.18.11.16.2.33.25.51.05.14.07.29.1.44.02.12.04.23.07.35.11.47.28.92.53,1.33.04.08.09.15.16.21.12.09.27.1.41.14.37.09.69.33.88.66.39.68.75,1.46,1.34,1.97.14.12.31.21.45.34.68.57.66,1.6.84,2.47.09.46.25.91.41,1.35.11.31.23.63.34.94.06.15.11.31.23.43.19.18.47.21.73.22-.03-.22.31-.24.52-.31.25-.09.38-.35.56-.53.55-.55,1.56-.36,2.12-.9.13-.12.25-.29.42-.27.11,0,.23.1.33.05.07-.03.1-.12.12-.19.25-.65,1-.93,1.65-1.18.45-.17.92-.39,1.12-.82.15-.34.11-.77.36-1.05.14-.16.34-.23.54-.31.24-.09.48-.18.73-.27.26-.1.53-.2.73-.39.2-.19.32-.49.21-.75.18.2.53.04.66-.2.13-.24.14-.53.26-.76.13-.24.48-.39.66-.19.02-.33-.18-.64-.21-.97-.08-.83.89-1.45.93-2.29.03-.65-.5-1.17-.99-1.59-.19-.16-.41-.34-.65-.3-.11.01-.22.07-.33.08-.18.02-.35-.08-.49-.19-.45-.34-.8-.82-.97-1.35-.11-.34-.16-.7-.36-1-.22.44-.45.88-.69,1.32-.14.25-.28.5-.48.7-.56.55-1.45.56-2.24.53-.05-.61-.16-1.22-.35-1.8-.03-.1-.07-.21-.17-.26-.2-.11-.41.16-.43.39-.02.23.04.49-.1.67-.22-.44-.45-.88-.67-1.31-.1-.19-.19-.38-.33-.55-.29-.35-.71-.55-1.07-.83-.68-.51-1.14-1.31-1.25-2.15.26-.07.53-.14.79-.21.11-.03.22-.06.32-.08.04-.01.09-.02.13-.03.08-.07.16-.14.24-.2.22.23.38.52.48.82.23.08.44.23.59.42.21.27.31.61.55.85.49.51,1.35.41,1.92.83.15.11.27.24.44.32.16.08.39.07.5-.07.15.16.37.27.59.3.07-.19.21-.36.38-.46.1.03.18.11.23.2.13-.07.21-.24.17-.39.3-.14.67.04.86.31.19.27.24.61.29.93.26-.08.53-.05.8-.01.69.08,1.38.16,2.07.24.3.03.62.07.91-.04-.1,0-.21.02-.31.03.19-.11.68-.16.89-.14.1.01.19.04.29.02.1-.02.19-.11.16-.21.06-.13.25-.07.36.02.11.09.24.21.36.15.08-.04.11-.14.18-.19.05-.04.11-.05.17-.07.28-.07.55-.14.83-.2,0,.22.04.49.23.6.16.09.41.07.47.25.02.06.02.12.02.18.03.21.23.36.43.43.2.07.42.09.61.18.05.02.09.05.11.1.02.04,0,.09.02.14.03.15.25.18.35.29.09.1.1.27.22.33.06.03.13.02.2,0,.23-.06.43-.25.51-.48.08.36-.21.75-.58.78-.03.15.08.28.18.39.24.27.48.53.72.8.1.11.2.22.34.28.26.12.59-.01.76-.25.16-.24.17-.56.07-.83-.05-.14-.13-.28-.09-.42.04-.14.29-.19.32-.04,0,.04,0,.09-.02.13-.09.3.02.62.17.9.14.28.32.55.37.86.03.16.02.33.04.5.07.52.45.96.54,1.48,0,.03,0,.07-.02.08.88,1.83,1.7,3.76,2.4,5.67.04.1.07.19.12.28.06.11.15.2.23.3.14.03.17.23.1.36.06.02.12.04.17.08.05.04.08.11.06.17-.01.03-.03.06-.02.09.02.03.06.02.09.03.08.02.09.14.07.22-.02.08-.04.19.04.24.02.01.05.02.07.04.09.07-.03.23.03.33.02.03.05.05.07.07.07.06.1.15.08.24,0,.04-.03.07-.02.11.01.09.13.12.18.19.12.16-.11.4-.02.57.04.07.13.11.15.19.03.09.02.22.07.31.18.33.6.66.9.43-.03-.29-.06-.61.09-.86.06-.09.14-.17.18-.28.11-.26-.06-.56,0-.83.04-.25.25-.45.26-.7.01-.18-.07-.34-.13-.51-.2-.53-.18-1.11-.21-1.68-.05-.94-.23-1.88-.54-2.78-.03-.09-.07-.19-.06-.28,0-.12.05-.24.11-.35.13-.26.25-.53.38-.79.07-.16.15-.33.13-.5-.02-.14-.09-.26-.1-.4,0-.13.04-.25.09-.37.24-.71.13-1.48.21-2.22.06-.55.22-1.11.07-1.65-.04-.15-.11-.3-.11-.46,0-.34.27-.6.48-.86.21-.26.37-.66.15-.91.43.47.48,1.18.8,1.73.19.33.47.61.7.92.19.27.34.57.47.88.38.87.66,1.77.83,2.7.27-.48.17-1.08.05-1.61.37,1.34.74,2.68,1.11,4.02.11.4.22.8.28,1.21.05.35.05.7.08,1.06.06.83.22,1.65.44,2.45-.04-.44-.09-.88-.15-1.31ZM54.14,11.65c-.1-.02-.2-.04-.28,0-.08.04-.14.14-.24.13-.02,0-.04,0-.04-.02,0-.01,0-.02,0-.03,0-.06,0-.13.05-.18.05-.06.14-.06.19-.13.01-.02.02-.05.04-.06.03-.02.07,0,.09.01.03.02.05.04.09.05.03,0,.07-.01.07-.05,0-.01-.01-.03-.02-.04-.05-.06-.1-.14-.06-.2.02-.04.52.05.54.1.03.07-.04.1-.07.14-.04.06-.04.14-.08.2-.06.08-.17.08-.27.07Zm.79.23c-.08.02-.16.07-.22.14-.05.06-.09.14-.16.18-.02.01-.06.02-.08,0-.03-.03-.01-.08.01-.11.05-.08.1-.16.16-.24.02-.03.04-.05.06-.08.02-.02.05-.04.08-.07.07-.06.2-.18.28-.07.08.1-.03.23-.13.25Zm1.65-.77c.2.11-.23.12-.3.08-.02,0-.03-.02-.05-.03-.07-.05-.16-.03-.25-.03-.03,0-.08-.02-.07-.06,0-.02.04-.03.06-.03.17,0,.45-.03.61.06Zm4.27-1.13s0,.04-.02.05c-.02.02-.05,0-.08,0-.05-.02-.1-.04-.12-.09-.01-.02-.02-.05-.01-.08,0-.08.08-.25.19-.22.11.03.06.26.05.34Zm.23-4.08s-.09.06-.13.09c-.04.03-.1.02-.15,0-.02,0-.04-.01-.05-.03,0-.03.02-.05.04-.06.07-.03.3-.21.35-.07.02.07-.02.03-.06.06Zm-15.12,16.29c-.04.1-.02.21-.06.31-.02.07-.07.13-.08.2,0,.03,0,.07,0,.1,0,.03-.03.06-.06.07-.05,0-.08-.06-.08-.11,0-.09.06-.17.07-.25,0-.06,0-.11.01-.17,0-.05.03-.1.04-.15.02-.07.13-.47.23-.22.04.09-.03.15-.07.23Zm16.72-10s-.05-.02-.07-.03c-.08-.05-.17-.09-.26-.1-.03,0-.07-.01-.09-.04-.03-.04-.02-.09-.04-.14-.02-.05-.09-.07-.12-.12-.02-.04,0-.08-.02-.12-.03-.07-.15-.07-.16-.15,0-.03.01-.07.04-.09.18-.13.44-.03.49.19.02.12-.08.1-.11.19-.04.11.09.16.17.19.05.01.11.03.15.07.04.04.06.1.02.15Zm1.64-3.49s.05-.03.08-.03c.06,0,.11,0,.17,0,.07,0,.2.03.13.12-.05.07-.24,0-.3-.01-.02,0-.04-.01-.06-.03-.02-.02-.02-.04-.01-.06Zm-1.59.31s-.05-.01-.08-.04c-.02-.03-.06-.04-.09-.06-.07-.03-.14-.07-.21-.1-.02-.01-.05-.02-.06-.04s-.02-.05,0-.07c.02-.03.06-.02.09,0,.06.02.1.03.16.05.03.02.04.04.07.06.03.02.07.05.09.08.02.03.04.08.02.12Zm.1-1.57s-.02,0-.03,0c-.05-.01-.09-.03-.13-.05-.02-.02-.04-.04-.07-.05-.04,0-.09,0-.1-.03,0-.03.02-.05.04-.06.06-.03.13-.06.18-.02.02.02.06.02.06.02.02.02,0,.06.05.1.01.01.03.03.03.05,0,.02,0,.04-.02.05Zm.02-.83s.03-.02.05-.02c.07,0,.18,0,.22-.06.04-.05-.01-.12.07-.15.16-.06.03.2.21.17.02.02,0,.05,0,.06-.02.01-.04.02-.07.02-.03,0-.07,0-.1-.02-.02-.02-.02-.05-.05-.05-.02,0-.03.03-.02.05,0,.02,0,.05,0,.06-.01.01-.04.01-.06,0l-.18-.03s-.05-.01-.05-.03Zm1.85,4c-.07.07-.18.05-.28.04-.1-.01-.22,0-.25.1,0,.02,0,.05-.02.06-.03.03-.07,0-.1-.01-.22-.13-.41-.31-.6-.48-.12-.11-.23-.21-.35-.32,0,0-.02-.01-.02-.02-.01-.03.01-.06.04-.07.03,0,.06,0,.09.01-.05-.02,0-.12.03-.14.05-.03.11,0,.15-.02.06-.04.03-.09.1-.12.04-.02.12-.02.17-.02.11,0,.17.02.21.12.03.07,0,.1.08.13.06.03.14.02.2.05.1.04.2.09.3.13.03.01.06.02.07.05.03.04.02.1.06.13.02.02.06.01.08.03.02.01.03.03.04.05.04.1.08.22,0,.3Zm.27-1.87s-.02-.01-.03-.02c-.05-.04-.09-.09-.14-.13-.04-.04-.09-.09-.07-.15.04-.01.09,0,.12.02.09.06.15.08.26.1.05.01.17.03.2.07.12.16-.24.11-.31.11-.01,0-.02,0-.04,0Zm1.4,1.25c-.03.08-.11.06-.18.08-.06.02-.14.08-.19.04-.03-.02-.03-.07-.05-.09-.07-.08-.23.07-.31-.01,0,0-.01-.02,0-.03.08.02.17-.01.22-.07.02-.05-.03-.1-.08-.12-.05-.02-.11-.02-.16-.04-.06-.02-.11-.08-.18-.08-.06,0-.15.02-.17-.03,0-.02,0-.04,0-.06.01-.07.02-.13.03-.2.08-.03.18.03.19.12.06-.03.11-.07.16-.11.01-.01.02-.03.02-.04,0-.01,0-.02-.01-.03-.05-.08-.15-.12-.24-.1-.07.01-.15.05-.21.02-.02-.01-.04-.03-.05-.05-.04-.05-.09-.11-.13-.16.11.02.21.04.32.06.03,0,.06.01.08.03.01.01.02.03.03.03.02,0,.04,0,.05,0,.11,0,.22.06.27.16.01.02.02.05.04.07.02.03.06.04.09.06.09.06.13.18.22.26.05.05.12.07.17.12.04.04.09.12.07.19Zm.52,8.38s-.03,0-.04,0c-.02,0-.03-.02-.04-.03-.06-.06-.13-.12-.21-.15-.03-.01-.05-.02-.07-.04s-.02-.06,0-.07c.01,0,.03,0,.05,0,.14.02.25.15.39.14.08,0,.32-.09.3.08-.01.14-.29.08-.38.08Zm.41-7.69s-.03,0-.04,0c-.01,0-.02-.01-.03-.02-.04-.03-.08-.06-.12-.08-.03-.01-.07-.03-.09-.05-.03-.03-.03-.07,0-.1.03-.02.07,0,.1.01s.06.04.1.05c.09.02.3,0,.33.14.02.11-.16.05-.25.05Zm.67,1.03s-.04-.02-.05-.04c-.01-.02-.01-.04,0-.06.01-.01.03,0,.05-.01.06-.01.09-.1.06-.15-.03-.06-.1-.08-.16-.09-.06,0-.13,0-.19-.01,0-.07.09-.11.16-.11.07,0,.13.04.19.08.06.04.11.09.18.11.03,0,.06.01.08.03.02.02.02.04.04.05.03.02.06,0,.09.01.02,0,.03.03.05.04.08.04.12-.04.19.04.03.03.07.14.07.18.01.11-.03.11-.1.11-.07,0-.14-.02-.22-.02-.05,0-.09-.02-.14-.04-.1-.04-.2-.08-.3-.12Zm1.13,8.07s-.04.02-.07.02c-.14,0-.28,0-.42-.02-.02,0-.04,0-.05,0-.04.02-.03.08-.07.11-.1.08-.12-.07-.13-.12,0-.03,0-.08.03-.09.02,0,.03,0,.05,0,.02,0,.03-.02.04-.02.05-.03.12-.02.18-.01.08,0,.16,0,.24-.01.03,0,.05-.01.08,0,.03.01.05.06.08.07.02.01.05.01.06.03.01.02,0,.05-.02.06Zm5.45-.83c.02.06.03.13.02.19-.01.06-.06.12-.12.14-.02,0-.05,0-.06-.02,0-.01,0-.02,0-.03.03-.07.03-.14.02-.21-.01-.07-.05-.16,0-.22.03-.05.11-.18.18-.14.13.08-.03.2-.04.26,0,.01,0,.02,0,.03Zm-40.47,31.07s-.11.01-.16.01c-.06,0-.12.02-.15.07-.01.06-.07.1-.12.13-.05.03-.11.04-.17.05-.02,0-.04,0-.06,0-.05-.02-.06-.09-.03-.13.02-.05.07-.08.1-.12.04-.05.06-.12.12-.15.03-.01.06-.01.09-.01.09,0,.18,0,.28,0,.03,0,.07,0,.1.01.03.01.06.04.05.07,0,.03-.02.05-.05.07Zm1.21,9.75s0-.09,0-.13c0-.09-.03-.19-.12-.23-.04-.02-.09-.02-.11-.06-.01-.03,0-.07,0-.1-.01-.02-.03-.03-.05-.04-.05-.03-.08-.1-.06-.15.02-.05.11-.07.14-.02.03.05,0,.11.02.16.1.06.26-.03.34.06.02.03.03.07.06.09.03.04.09.04.14.04.11,0,.19-.02.26.08.04.06.06.3-.08.23-.02,0-.03-.02-.04-.03-.05-.04-.14-.04-.19,0-.04.04-.06.09-.09.14-.03.05-.08.09-.13.07-.04-.01-.07-.06-.07-.1Zm.88.67c-.01.08-.04.15-.05.23,0,.08,0,.15,0,.23,0,.16-.06.31-.11.46-.03.07-.05.15-.1.21-.05.06-.13.1-.21.08-.11-.03-.15-.17-.23-.25-.02-.03-.05-.05-.07-.08-.04-.06-.03-.16.03-.21.12.03.25,0,.35-.08-.04-.15.14-.27.14-.42,0-.04-.02-.08-.02-.13,0-.06.02-.11.04-.17.03-.1.05-.2.04-.3,0-.02,0-.05,0-.07.06-.12.18.05.19.11.03.11.02.28,0,.39Zm.81-9.4c-.01.05-.02.1-.04.16,0,.02-.01.05-.04.06-.02.01-.06,0-.07-.02-.02-.02-.02-.05-.03-.07-.03-.07-.08-.14-.14-.18-.02-.01-.04-.03-.06-.04-.04-.05-.02-.13-.03-.19,0-.06-.04-.11-.08-.15-.01-.01-.03-.02-.04-.03-.02-.02-.02-.06-.02-.09.07-.26.2.15.24.17.04.02.1.02.13.06.02.02.02.05.03.07.03.05.1.07.13.12.02.04.01.09,0,.14Zm13.9,2.73s-.03.05-.05.08c-.05.06-.1.11-.15.17-.01.02-.03.03-.05.04-.02,0-.03,0-.05,0-.04,0-.1,0-.13-.03-.02-.02-.02-.05-.04-.08-.02-.05-.07-.08-.12-.1-.01,0-.03-.02-.03-.03,0-.02,0-.05.03-.06.02-.01.04-.02.06-.03.05-.03.07-.11.11-.16.03-.04.09-.07.14-.08.08-.01.21-.03.25.04.04.07.06.19.03.26Zm5.36,18.18s-.06.03-.09.06c-.09.08-.04.23-.1.33-.02.03-.04.05-.07.05-.04,0-.08-.03-.1-.07-.02-.04-.02-.09-.02-.13,0-.21,0-.42,0-.62,0-.06,0-.14-.07-.16-.04-.01-.1,0-.11-.04,0-.02,0-.03,0-.05.02-.05.06-.08.11-.09.09,0,.06.07.09.11.05.06-.05.05.07.06.1,0,.16-.06.26,0,.15.1.17.43.02.54Zm7.65,18.65c-.01.08-.08.18-.16.15-.05-.02-.06-.08-.09-.13-.07-.12-.24-.13-.39-.12-.03-.07.02-.15.08-.21.07-.07.15-.13.24-.15.09-.03.2-.01.28.04.07.03.02.08.03.19.01.08.01.15,0,.23Zm3.41-3.98c0,.08-.02.18-.09.23-.11.07-.25-.02-.38,0-.08.01-.15.06-.22.11-.15.1-.31.13-.47.21-.11.05-.21.16-.34.18-.03-.11.04-.2.11-.27.17-.16.37-.29.59-.37.06-.02.13-.04.19-.08.05-.03.09-.08.14-.11.1-.06.23-.06.35-.06.03,0,.05,0,.08.02.05.03.05.1.04.15Zm9.25-30.97c.11-.07.14-.1.23-.21.06-.08.13-.14.24-.11.25.06.22.42-.03.45-.14.02-.28,0-.41-.03-.03,0-.06-.02-.06-.05,0-.02.02-.04.03-.05Zm-.95,9.18c.09-.12.14-.26.14-.41,0-.07-.01-.14.02-.2.1-.19.24.1.27.18.05.17,0,.35-.04.51-.02.07-.04.16,0,.22.03.03.06.04.1.06.12.07.16.25.3.27.04,0,.08,0,.11.03.01.02.02.04.02.06.02.15.02.31.01.47,0,.05,0,.1-.04.13-.03.04-.09.05-.12.02-.02-.02-.02-.04-.03-.06-.03-.14-.01-.3-.11-.4-.05-.05-.11-.07-.16-.11-.04-.04-.07-.09-.1-.14-.09-.16-.2-.3-.33-.42-.04-.04-.09-.08-.07-.13,0-.03.02-.05.04-.07Zm-6.64-18.64c.06.01.11.44.13.5,0,.03.02.07.04.1.04.05.11.07.12.13.02.06-.04.13-.1.14-.06.01-.13,0-.19-.03-.02,0-.05-.02-.07-.04-.02-.03-.02-.07-.02-.1,0-.09-.05-.73.09-.7Zm-.34,23.47s.06-.07.1-.1c.07-.06.17-.23.27-.12.07.07-.04.27-.09.31-.03.03-.07.05-.09.08-.09.12.02.31-.08.42-.03.03-.06-.02-.07-.06-.02-.13-.04-.27-.05-.4,0-.04-.01-.09,0-.13Zm-.7,9.12s-.02.02-.02.03c0,.01,0,.02,0,.03.02.06.04.12.01.17-.01.02-.03.04-.04.05-.04.04-.08.08-.12.12-.04.04-.08.08-.12.1-.05.02-.11.03-.15,0,0,0-.02,0-.02-.02-.02-.03.01-.07.02-.11,0-.03,0-.06,0-.1,0-.08.02-.15.05-.22.03-.09.07-.18.14-.25.08-.07.19-.08.29-.09.04,0,.08,0,.11.02.1.07-.11.21-.16.24Zm.2-6.83c-.08-.1-.13-.21-.14-.34,0-.13.05-.26.1-.39.01-.03.02-.05.05-.07.04-.02.09,0,.12.03.03.03.03.08.02.12.02.21-.05.42-.07.63,0,.01,0,.03-.02.04-.02.01-.05,0-.06-.03Zm1.15,5.15c-.02-.22-.16-.43-.36-.54-.08-.04-.17-.08-.21-.17-.03-.07,0-.15-.03-.22-.04-.1-.17-.12-.24-.2-.04-.04-.05-.1-.07-.16-.05-.27,0-.56-.09-.82-.02-.06-.06-.12-.07-.18-.03-.09-.03-.18-.03-.27,0-.43-.01-.87-.01-1.3,0-.55.26,0,.36.2.05.1-.01.21-.03.31-.02.11.07.25.17.2-.06.09.11.16.13.26.01.06-.04.12-.06.18-.06.22.32.38.25.59-.02.04-.05.08-.05.13,0,.07.07.12.12.17.12.12.13.32.03.45-.14-.02-.27.14-.23.27.04.12.17.17.28.23.11.06.23.16.2.28.14-.05.34-.09.4.05.01.02.02.05.04.07.03.02.06,0,.09.01.09.02.1.15.06.24-.04.09-.09.19-.04.27.06.08.2.07.23.16.04.11-.12.22-.08.33.04.1.21.09.25.2.03.08-.06.17-.05.26,0,.07.08.12.14.17.06.05.1.15.04.19-.17-.01-.34-.04-.49-.12-.15-.08-.26-.25-.23-.41,0-.06.03-.11.02-.17-.02-.14-.22-.26-.14-.38-.1-.1-.2-.19-.29-.29Zm2.71,1.15c-.08-.02-.07-.14-.13-.2-.11-.09-.28.1-.4.02-.05-.03-.06-.1-.1-.15-.13-.15-.27-.12-.3-.35-.02-.14,0-.28.17-.29.29-.02.64.46.77.67.04.06.09.11.1.17.01.07-.04.15-.1.13Zm2.13,1.98c.05.11-.04.23-.03.35,0,.06.02.11.04.16.06.14.11.29.17.43.03.07.06.16.05.23-.02.08-.1.15-.17.13.05.07.03.17-.01.25-.04.08-.11.14-.15.21-.08.15-.06.34.05.47.05.06.12.11.14.18.05.17-.15.37-.04.5.05.06.17.08.19.16.03.1-.11.19-.09.29.02.09.13.12.17.2.04.1-.07.21-.18.21-.11,0-.2-.06-.29-.12s-.2-.11-.3-.08c.03-.09,0-.21-.09-.26-.03-.02-.07-.04-.1-.07-.09-.12.11-.26.09-.41-.02-.15-.27-.22-.24-.37.01-.06.06-.1.06-.16,0-.07-.06-.12-.1-.17-.12-.16-.01-.39.09-.56.04-.06.07-.12.11-.17.05-.08.12-.17.21-.16.08-.24-.16-.47-.2-.72-.02-.18.06-.36.08-.55.02-.18-.07-.39-.27-.41-.02-.21-.09-.61.22-.51.22.07.4.38.44.6.02.07.02.15.06.22.03.05.07.08.09.13Zm-1.56-31.89c.04-.06.14-.04.2.01.1.09.15.23.2.36.06.15.09.31.1.47,0,.06,0,.13-.06.16-.06.03-.13,0-.16-.06-.03-.06-.03-.12-.03-.19,0-.07,0-.14-.02-.21-.02-.07-.07-.13-.13-.16-.04-.02-.09-.03-.11-.07,0-.02,0-.04,0-.05,0-.05,0-.11,0-.16,0-.03,0-.07.02-.1Zm-.68,3.58s.11-.02.15.03c.03.04.04.1.04.16.09-.02.19-.02.29,0,.02,0,.05,0,.07.03.02.02.02.06.02.09,0,.08.03.16.03.24,0,.03-.02.06-.05.06-.01,0-.03,0-.04-.02-.11-.08-.23-.15-.34-.23-.02-.01-.03-.02-.04-.04,0-.02,0-.04,0-.05-.01-.04-.07-.06-.1-.08-.06-.04-.08-.13-.02-.17Zm-.44,17.83c-.03-.26-.04-.59.18-.73.15-.09.35-.25.51-.28.16-.04.37-.02.54-.02.41,0,.82.07,1.08.42.05.07.09.15.09.24,0,.06-.03.12,0,.17.03.07.14.1.15.18,0,.07-.06.12-.09.18-.03.06-.02.13-.03.19-.03.29-.28.51-.54.64-.06.03-.12.06-.15.12-.02.03-.02.06-.03.1-.03.16-.04.38.11.45.08.04.2.03.24.11.04.09-.07.17-.16.18-.09,0-.19-.03-.28-.01.02.07-.03.15-.09.18-.07.03-.14.03-.22.02-.14,0-.28-.01-.42-.02-.1,0-.21-.01-.28-.08-.07-.05-.11-.15-.2-.15-.09,0-.15.11-.24.11-.04,0-.09-.04-.13-.02-.06.02-.07.11-.12.14-.05.02-.11-.02-.13-.08-.02-.06-.02-.12-.03-.17-.02-.07-.09-.13-.1-.2-.02-.09.01-.17.04-.26.07-.21.09-.45.06-.67-.01-.08-.03-.18.03-.24.03-.03.07-.04.1-.06.13-.08.14-.27.12-.43Zm-.48-26.82s.09-.07.13-.11c.05-.08.02-.49.2-.35.1.08.09.39.06.5,0,.02-.01.04-.03.06-.02.02-.05.02-.08.02-.07,0-.15,0-.22-.02-.03,0-.08-.02-.07-.05,0-.02.01-.03.02-.04Zm.03,42.45s.1,0,.13.03c.07.06.02.19-.07.22-.09.03-.19,0-.28-.02-.27-.06-.55-.05-.81.04.03.07.06.14.04.21-.02.07-.09.13-.16.12-.07-.02-.1-.1-.16-.14-.07-.06-.18-.05-.27-.05-.1-.26.15-.15.24-.17.18-.03.12-.15.25-.22.02-.01.05-.01.07-.01h1Zm-.29-18.64c.11.06.11.37.1.46,0,.04-.02.09-.04.13-.04.07-.12.1-.19.14-.12.07-.22.16-.3.27-.04.06-.08.13-.14.18-.05.05-.13.09-.2.07.01-.37.2-.71.42-1,.07-.09.21-.33.36-.25Zm-.76-22.5c.07,0,.09-.1.09-.17,0-.07-.02-.15.03-.2.06-.06.26-.05.3.02.07.09-.04.22-.1.29-.06.07-.14.14-.23.12.03.06-.03.13-.1.13-.07,0-.11-.08-.11-.14,0-.02.01-.04.03-.05.03-.02.06,0,.09,0Zm4.27-16.99s-.04.14-.08.15c-.03.01-.06-.01-.08-.04-.01-.03-.02-.06-.03-.09-.03-.07-.08-.15.01-.19.05-.02.17,0,.2.05.06.08,0,.06-.03.12Zm1.39-9.93c-.06,0-.11-.02-.16-.04-.01,0-.03,0-.04-.02-.01,0-.02-.02-.03-.04-.05-.09-.11-.18-.16-.27-.02-.03-.04-.08,0-.1.06.01.12.02.19.04.02,0,.04,0,.06.02.02.01.03.04.04.06.04.08.17.25.12.34Zm.1-3.77c-.07.03-.14.06-.21.09-.22.1,0,.23.03.37,0,.07-.05.14-.03.22,0,.02.01.04.01.05,0,.02-.02.04-.03.04,0,0-.01,0-.02,0-.07-.06-.14-.13-.19-.21,0-.01-.02-.03-.02-.04,0-.04.03-.08.04-.13,0-.06-.05-.13,0-.18,0,0,.02-.02.03-.02.03-.02.07-.04.09-.06.02-.03.04-.07.02-.1-.01-.04-.05-.06-.09-.08-.01,0-.03-.01-.04-.03,0-.02,0-.04.02-.05s.04-.01.06-.01c.07,0,.15,0,.21.03.02,0,.03.02.05.03.02,0,.05,0,.07,0,.03,0,.09,0,.08.05,0,.02-.07.03-.1.04Zm.35-7.02s-.05,0-.07,0c-.04-.01-.08-.02-.12-.02-.03,0-.06,0-.08.02-.02.02-.04.05-.02.08.05,0,.11.03.12.08.01.05-.02.11-.06.13-.03.01-.06.01-.08.02-.03,0-.05.03-.06.05,0,.03.02.07,0,.09,0,0-.02,0-.03,0-.03,0-.06-.03-.06-.06,0-.03.01-.07.04-.08.02,0,.04-.01.05-.02.04-.03.03-.09,0-.13-.02-.04-.05-.08-.05-.13.02-.13.31-.2.41-.21.01,0,.03,0,.04,0,0,0,.01.02.02.03,0,.03.01.05.01.08s-.02.05-.04.06Zm1.61,20.99c-.06.07-.23.07-.31.08-.02,0-.05,0-.06-.01-.02-.01-.02-.04-.03-.06-.03-.05-.1-.07-.16-.06-.06,0-.12.03-.18.03-.04,0-.09-.02-.1-.06-.01-.04.02-.08.05-.11.03-.02.07-.04.11-.06.03-.02.05-.06.09-.08.09-.05.21.02.28-.05.04-.04.05-.1.1-.12.02,0,.04,0,.06,0,.03,0,.06,0,.09.01.04,0,.08.02.09.05.02.04-.02.08-.05.11-.03.03-.07.06-.07.1,0,.09.18.12.09.23Zm8.14-7.56s.06-.02.09-.02c.12,0,.23,0,.35,0,.03-.02,0-.07-.04-.09-.04-.01-.08-.02-.11-.04-.01-.01-.02-.03-.03-.04-.03-.03-.08-.04-.08-.08,0-.02,0-.03.01-.05.01-.04,0-.08-.01-.12,0-.04,0-.09.04-.1.05-.01.09.04.12.08.09.09.24.09.31.22.02.04.02.09,0,.12-.01.02-.03.03-.04.04-.02.03,0,.07,0,.1,0,.05-.07.08-.12.08-.05,0-.11-.02-.16-.02-.11,0-.21.07-.31.03-.01,0-.03-.01-.03-.03-.02-.03,0-.06.03-.08Zm-.54.29c.06-.03.14,0,.19-.04.02-.02.03-.05.04-.08.05-.17.15-.02.14.08-.01.12-.1.23-.09.36,0,.12.1.21.18.3.13.15.25.33.22.53,0,.05-.05.1-.09.08,0,0-.02-.01-.02-.02-.07-.11-.15-.21-.22-.32-.05-.07-.09-.13-.12-.2-.05-.12-.05-.25-.11-.36-.03-.05-.07-.1-.09-.15-.03-.05-.04-.12,0-.17Zm-6.7-15.12s.08.09.13.1c.01,0,.03,0,.04.01.01.01.02.03.03.04.02.02.04.02.06.02.07.01.11.07.18.09.06.02.12-.02.18.03.05.04.06.12.02.17,0,.01-.02.03-.04.02,0-.05-.04-.1-.08-.13-.05-.03-.1-.03-.15,0,0-.03-.01-.07-.04-.09-.03-.02-.06-.03-.1-.03-.05-.01-.1-.02-.15-.03-.02,0-.05-.01-.06-.03-.02-.02-.02-.05-.03-.08-.02-.03-.05-.06-.08-.08-.03-.02-.05-.06-.05-.1.06,0,.1.03.14.07Zm1.41,23.26s0,.05,0,.07c0,.03-.03.06-.06.06-.03,0-.06-.01-.08-.04-.01-.02-.02-.04-.01-.07,0-.02.01-.04.01-.06,0-.02,0-.04-.02-.06-.04-.07-.09-.16-.18-.15-.02,0-.03,0-.05,0-.02,0-.03-.03-.03-.05,0-.02,0-.04,0-.07,0-.03-.02-.05-.04-.07-.02-.02-.03-.05-.04-.07,0-.03.02-.06.05-.06.05,0,.15.1.2.13.04.03.08.04.11.08.04.05.05.11.1.15.04.03.16.03.14.1,0,.05-.09.06-.1.1Zm6.31.08c-.09.02-.19,0-.28-.02-.14-.02-.3.02-.39.13-.03.03-.05.06-.09.07-.03,0-.06-.02-.1-.02-.06,0-.1.04-.15.08-.14.12-.36.15-.53.07-.07-.03-.12-.08-.19-.11-.23-.11-.52-.05-.72-.21-.08-.06-.13-.15-.2-.22-.07-.07-.16-.14-.26-.12-.07,0-.14.06-.21.05-.05,0-.08-.04-.13-.06-.16-.07-.39,0-.47-.16-.02-.04-.03-.08-.06-.11-.03-.02-.07-.03-.1-.05-.03-.02-.05-.05-.07-.08-.11-.18-.19-.38-.26-.58-.04-.11-.1-.2-.14-.32.08-.23.15-.49.07-.72-.02-.08-.06-.15-.07-.23-.03-.23.2-.41.43-.48-.13-.12-.29-.2-.46-.24-.05-.01-.11-.02-.15-.05-.03-.02-.05-.05-.08-.08-.09-.1-.21-.15-.31-.24-.05-.05-.09-.1-.14-.15-.18-.21-.41-.39-.67-.5-.06-.03-.13-.05-.19-.09-.04-.02-.08-.06-.12-.09-.11-.09-.22-.18-.33-.27-.11-.09-.21-.17-.32-.26-.05-.04-.1-.08-.13-.13-.03-.04-.05-.09-.07-.14-.08-.19-.16-.39-.24-.58-.03-.06-.05-.13-.09-.18-.03-.04-.08-.08-.12-.11-.17-.13-.34-.26-.5-.39.09-.1.14-.22.14-.35.02-.21,0-.41-.04-.62.16.01.32.03.47,0,.15-.03.3-.12.37-.26.01-.02.02-.05.01-.07-.01-.03-.05-.05-.07-.08-.03-.06.03-.13.1-.14.07-.01.14.01.2,0s.13-.09.09-.15c-.02-.03-.06-.04-.08-.07-.03-.07.07-.11.14-.15.1-.07.1-.21.18-.3.11-.14.33-.11.5-.05.17.06.35.15.52.07.04-.02.08-.05.13-.07.11-.03.23.04.32.11.14.11.28.21.42.32.03.02.06.05.08.08.04.07.01.15,0,.23,0,.08.03.18.11.18.19.05.41.08.54-.06.02-.02.04-.05.07-.05.06,0,.08.08.11.13.04.05.1.06.15.08.2.06.38.19.49.37-.14-.04-.3.06-.32.2-.11-.07-.28.02-.29.15,0,.06.03.13.03.19,0,.06-.03.14-.09.15-.09,0-.12-.11-.12-.2,0-.16,0-.33,0-.49-.08-.06-.2.04-.3.06-.1.01-.19-.05-.27-.1-.09-.04-.21-.06-.27.02-.2-.13-.48-.11-.65.05-.02.02-.04.04-.04.07,0,.03.01.05.02.07.09.16.19.31.28.47-.05.06-.14.02-.19-.03s-.12-.11-.19-.09c-.03,0-.05.03-.08.05-.07.06-.14.13-.2.19.16.09.32.18.48.27.02.01.04.02.06.03.16.09.32.18.45.3.04.04.07.07.1.12.04.08.04.18.07.26.03.09.1.17.19.16.08-.02.17-.11.22-.05.03.04.01.09.03.14.01.03.04.05.07.07.2.12.46.17.69.12-.02.35.12.7.38.94.06.06.13.11.21.12.03-.16-.03-.33-.16-.43.19-.04.36-.2.54-.15.08.02.15.07.22.12.26.2.51.4.77.59.05.04.1.09.1.15,0,.03-.03.06-.05.08-.06.08-.13.16-.22.21-.09.05-.21.06-.29,0-.04-.04-.1-.09-.14-.06-.03.02-.03.06-.05.09-.03.04-.1.04-.15.05-.07.03-.11.11-.12.18,0,.08.03.15.05.22.05.12.1.25.22.3.07.03.14.03.21.04.2.03.38.18.44.36.03.07.04.15.1.2.06.05.15.05.22.09.12.06.17.21.2.34.02.14.03.28.12.39.22.28.28.65.44.97.02.04.04.08.07.11.07.06.19.06.23.14.04.08-.04.18-.13.2Zm.41-4.65s-.07.02-.1.02c-.06,0-.11-.01-.17,0-.03,0-.05.02-.08.03-.03,0-.06,0-.08-.02-.02-.02-.01-.05,0-.08.04-.08.07-.11.07-.21,0-.06-.04-.1.03-.11.07,0,.31.18.34.23.02.04.02.1-.01.13Zm.16-2.29s-.1.02-.15,0c-.06-.02-.12-.04-.17-.08-.05-.03-.09-.08-.14-.1-.06-.03-.12-.03-.19-.03.02-.11.05-.23,0-.33-.02-.05-.06-.09-.1-.14-.07-.08-.13-.15-.2-.23-.05-.06-.1-.12-.1-.19,0-.03,0-.06.02-.09.01-.04.02-.08.03-.12,0-.03.02-.05.04-.07.07-.06.19.2.25.23.04.03.09.04.13.07.08.05.12.14.15.22.11.23.24.46.38.68.03.05.07.12.03.17Zm.81-1.28c-.14-.01-.3.01-.44.02-.02,0-.04,0-.06,0-.02,0-.03-.03-.03-.05,0-.02.03-.03.05-.03.13-.04.59-.2.65.03.03.11-.09.05-.17.04Zm3.62,1.52c-.14-.11-.28-.23-.45-.26-.04,0-.07,0-.11-.02-.03-.01-.07-.04-.07-.08,0-.04.04-.07.08-.08.04,0,.08,0,.12.02.29.11.49.33.75.48.04.02.09.04.13.07.08.05.14.14.22.19.02.02.05.03.07.05s.02.06,0,.08c-.11-.07-.22-.13-.33-.2-.14-.08-.27-.16-.4-.26Zm1.83,2.46s-.04,0-.07,0c-.08-.02-.15-.06-.2-.11-.02-.02-.04-.04-.06-.06-.09-.06-.23.02-.32-.04-.02-.01-.04-.03-.06-.04-.04-.02-.08-.02-.13-.02-.12,0-.26.02-.37,0-.1-.02-.16-.12-.02-.12l.39-.05s.06,0,.08,0c.03,0,.06.02.09.03.1.03.21-.02.3,0,.03.01.06.03.08.05.09.06.18.12.26.2.02.02.05.05.05.08,0,.03,0,.07-.03.09Zm.23-4.24s-.09.03-.13,0c-.04-.03-.06-.07-.09-.11-.1-.11-.27-.14-.38-.25-.06-.06-.09-.14-.12-.22-.03-.08-.06-.15-.09-.23-.02-.06-.05-.12-.05-.18,0-.08.03-.17.01-.25,0-.03-.02-.06-.01-.09,0-.04.06-.06.1-.06.04,0,.09,0,.13,0,.04-.01.07-.04.11-.06s.09-.03.12,0c.01.01.02.03.03.04.07.08.18.02.25.08.08.06-.02.1-.03.19,0,.04-.07.04-.1.02-.03-.02-.07-.06-.11-.05-.04,0-.06.05-.08.09-.02.04-.06.07-.09.05.03.06.06.11.08.17,0,0,0,.01,0,.02.02.04.04.08.06.11-.04,0-.08,0-.13.02-.01.05.05.08.1.09.1.03.18.08.27.14.06.04.12.11.09.17-.03,0-.07,0-.09.01-.03.06.03.12.08.16.05.04.1.11.06.17Zm.82-1.16s-.05-.03-.08-.04c-.08-.03-.17.06-.25.05-.08,0-.14-.09-.22-.12-.03-.01-.07-.03-.06-.06,0-.02.02-.03.04-.03.02,0,.04,0,.06,0,.06,0,.12-.05.16,0,0,0,.01.02.02.03.03.03.08.04.11.02.06-.03-.01-.21.04-.26.05-.04.13,0,.16.05.05.06.22.42,0,.36Zm.35-4.03s.06-.02.09,0c.03.02.06.04.09.03.09-.03.24.22.31.29.02.02.05.05.05.08,0,.03-.03.07-.06.06,0,0-.01,0-.02,0-.09-.07-.19-.13-.28-.2-.04-.03-.08-.06-.12-.1-.04-.03-.07-.08-.07-.13,0-.01,0-.02,0-.03Zm.44,2.51c-.08-.05-.2,0-.28-.05-.03-.02-.05-.04-.07-.06-.02-.01-.05-.02-.06-.04-.02-.02-.02-.05,0-.07.01-.01.03-.01.04,0,.08,0,.15.05.23.07.07.02.15-.03.22-.01.07.02.18.23.05.23-.04,0-.07-.04-.11-.06Zm.71,1.73c-.05,0-.09-.04-.13-.08-.06-.07-.13-.12-.22-.16-.03-.01-.05-.02-.07-.04-.02-.02-.03-.03-.04-.05-.03-.05-.06-.1-.1-.14-.02-.04-.05-.08-.03-.12,0-.03.33.18.36.21.03.04.05.08.08.13.06.09.09.08.18.12.03.01.05.05.04.08,0,.03-.03.06-.06.06Zm.63,17.41s-.03.07-.06.08c-.01,0-.03,0-.05,0-.03,0-.05,0-.08,0-.06,0-.13,0-.18-.04-.05-.04-.05-.11-.05-.17.04.01.09-.03.09-.07.01-.08-.08-.19-.04-.26.05-.07.11-.03.16,0,.09.08.23.34.2.46Zm.19-14.31c-.06.02-.13.02-.19.03-.04,0-.08.02-.12.01-.02,0-.04-.01-.07-.02-.06-.02-.12-.02-.18-.02-.02,0-.04,0-.06-.01-.01-.02,0-.04,0-.05.02-.01.04-.02.06-.02.06-.01.14-.04.15-.11,0-.01,0-.03,0-.04.03-.06.14-.04.17-.1.01-.03,0-.07,0-.1,0-.03.04-.05.07-.05.03,0,.06.02.07.04.01.01.02.03.03.04.02.01.04,0,.06.01.16.04.1.34-.03.38Zm5.61,17.79s-.03.03-.05.05c0,.01,0,.03-.01.04-.01.04-.05.08-.09.09-.04,0-.09,0-.12-.04-.04-.05-.03-.13-.07-.18-.02-.03-.04-.05-.08-.06-.01,0-.03,0-.04-.01-.02-.02-.02-.05-.02-.08,0-.04,0-.09.04-.11.02-.01.04-.01.07-.02.07-.03.07-.12.08-.19,0-.08.05-.12.11-.07.04.03.07.16.08.21.01.05.02.11.04.16.02.04.04.07.06.11s.02.08,0,.11Zm2.18-5.51c-.06-.02-.1-.08-.14-.14-.08-.12-.16-.24-.22-.37-.03-.06-.05-.12-.09-.17-.04-.05-.1-.09-.16-.09.02-.13-.01-.26-.06-.38-.01-.03-.03-.07-.03-.11,0-.08.07-.13.13-.08.05.04.07.18.08.24.01.04.03.09.05.13.13.27.26.53.39.8.03.06.05.12.04.18Zm3.02-3.09s-.04,0-.05-.02c0-.02,0-.04-.02-.06,0-.02-.02-.03-.02-.04,0-.02,0-.04-.02-.06,0,0-.02-.01-.02-.02-.03-.02-.03-.06-.03-.09,0-.05,0-.09,0-.14,0-.01,0-.02.01-.03.08-.05.12.07.13.12.02.1.02.2.02.3,0,.01,0,.03-.01.04Z"/>
          <path class="cls-1" d="m45.35,1.36c0,.24-.17.48-.4.56-.04.01-.07.02-.1.05-.02.02-.03.04-.05.06-.04.03-.1,0-.14-.02-.12-.07-.29-.15-.39-.05-.03.03-.04.06-.07.09-.04.04-.09.06-.13.08-.14.06-.29.12-.43.17-.04.02-.08.03-.13.05-.21.08-.42.17-.63.26-.09.04-.18.08-.27.1-.14.03-.46.02-.52.15.05,0,.09,0,.14-.01-.74.34-1.51.62-2.3.83-.16.04-.33.09-.46.19.15-.02.31-.03.46-.05-.33.19-.68.36-1.04.5.01-.07.02-.15.04-.22-.19.02-.36.17-.4.36-.51.21-1.02.42-1.53.63-.07.03-.14.06-.22.06-.11,0-.22-.04-.32,0-.05.02-.08.06-.12.08-.18.14-.43.15-.66.15.04.04.08.07.11.11-.37.41-1.12.17-1.55.53.06,0,.09.07.07.12-.02.05-.07.09-.12.11-.5.29-1,.57-1.49.86-.12.07-.24.14-.32.25-.22.14-.45.27-.67.41-.09.06-.19.11-.26.2-.05.06-.09.13-.14.19-.19.22-.54.27-.69.52.1.02.2.04.3.06-.21.09-.26.35-.3.57,0,.07-.02.13-.03.2.19-.09.36-.22.49-.38.06.05.16.01.23-.03.64-.36,1.29-.71,1.93-1.07.46-.26.92-.51,1.4-.75.24-.12.49-.24.73-.35.08-.04.16-.07.24-.1.06-.02.11-.04.17-.05.1-.03.19-.06.29-.09.46-.14.92-.29,1.38-.43-.04.25-.5.19-.57.43.33-.04.65-.2.88-.44.01.08.02.16.03.23.79-.34,1.61-.63,2.43-.92-.07,0-.11.12-.05.16.22,0,.45-.01.66-.02.65-.02,1.29-.16,1.89-.4.15-.06.3-.13.46-.13.1,0,.21.02.31,0s.21-.08.23-.18c-.36-.11-.75-.13-1.12-.04.25-.25.65-.33.98-.21.05-.11.14-.2.26-.25-.1-.08-.15-.21-.14-.34.12-.04.26.12.19.24.08-.03.17,0,.22.06-.09.12-.18.25-.27.37.13-.08.28.11.43.07.05-.01.08-.05.12-.08.14-.12.31-.2.44-.34.13-.13.22-.34.14-.5.05,0,.1,0,.16,0,.02.11.07.22.14.31.07-.13.21-.21.36-.2-.07-.03-.11-.11-.1-.18.09.12.26.18.4.13-.09-.15-.18-.29-.27-.44.11-.04.23-.03.33.03-.03.08.04.18.12.21s.18,0,.27,0c.15-.03.3-.07.45-.1-.05-.01-.05-.09-.02-.13s.1-.04.15-.04c.12,0,.24,0,.36-.01.09,0,.18,0,.25-.06.07-.05.09-.17.01-.22.15-.2.53.21.68.01-.01-.06-.07-.11-.14-.1.1-.12.25-.2.41-.22-.04-.08-.08-.15-.14-.22.37-.01.74-.03,1.11-.04-.02-.11-.1-.2-.2-.24-.05-.08.12-.11.19-.05.07.07.16.16.24.1-.03-.13.06-.26.18-.32.12-.06.25-.08.38-.09.02.06.06.1.12.12.16-.09.33-.18.49-.27.06-.03.13-.07.2-.07.07,0,.15.06.14.14.12-.07.26-.1.39-.13.54-.12,1.08-.24,1.61-.35-.39-.3-1.05.19-1.42-.13.27-.04.53-.08.8-.12-.06-.08-.11-.17-.17-.25-.27.02-.55.04-.82.07-.03,0-.06,0-.08,0-.14.01-.28.02-.41.05-.11.03-.23.07-.34.04-.03,0-.06-.02-.08-.02-.06,0-.12.03-.17.05-.12.05-.26.07-.39.03-.02-.05-.04-.1-.06-.15-.1.07-.23.14-.32.07-.03-.02-.05-.06-.08-.07-.03-.01-.06,0-.09,0-.4.03-.8.06-1.19.13-.48.08-.94.2-1.42.28-.31.05-.64.08-.92-.05-.12-.06-.22-.16-.28-.27-.15.03-.31.07-.46.1,0,.03,0,.05,0,.08Z"/>
          <path class="cls-1" d="m16.13,18.18c.3-.15.61-.3.91-.45.08-.04.15-.08.21-.14.06-.07.09-.17.15-.24.1-.14.27-.2.4-.31.17-.15.25-.36.36-.56.27-.49.7-.88,1.13-1.25.38-.34.77-.68,1.15-1.01-.04.1-.01.23.07.3.31-.45.88-.71,1.43-.64-.36.18-.71.39-1.04.63-.31.22-.59.46-.88.7-.05.04-.11.09-.16.13-.36.3-.72.6-1.07.9,0,.05.02.1.03.15.04.19.16.44.35.38-.27.23-.54.46-.81.7.11.17.39.14.54,0,.15-.14.23-.34.34-.51.11-.17.29-.34.49-.31-.06-.1-.09-.22-.1-.33.21-.11.43-.23.64-.34,0-.26.21-.51.47-.54-.02-.12-.12-.22-.23-.26,1-.84,2-1.69,3-2.53.09-.07.18-.15.29-.19.17-.07.37-.05.54-.12.17-.07.3-.31.16-.43-.06-.05-.14-.07-.19-.13-.08-.1,0-.26.11-.31.11-.06.25-.05.37-.07.14-.02.26-.08.39-.14.53-.25,1.11-.55,1.31-1.1.05-.13.07-.26.12-.39.13-.33.41-.57.65-.83.03-.04.07-.08.11-.12-4.14,2.65-7.91,5.81-11.24,9.39Z"/>
          <path class="cls-1" d="m9.45,89.65c-.07-.33-.15-.67-.22-1-.04-.19-.09-.39-.22-.53-.11-.13-.28-.2-.43-.29-.62-.39-.92-1.22-.69-1.91.2-.07.39-.13.59-.2.48-3.17-1.99-6.31-1.24-9.42.13-.52.34-1.01.47-1.52.46-1.8-.1-3.69-.74-5.44-.05-.14-.11-.28-.22-.37-.14-.11-.33-.12-.5-.19-.41-.16-.62-.6-.82-.98-.52-.97-1.3-1.81-2.23-2.4-.08.08-.16.16-.23.24-.28-1.06-.72-2.09-1.3-3.03-.11.28-.21.55-.32.83-.15-1.65-.3-3.3-.45-4.95-.11-1.2-.22-2.41-.61-3.56-.05-.16-.11-.32-.17-.48-.07,1.15-.11,2.31-.11,3.48,0,11.72,3.48,22.62,9.45,31.74Z"/>
        </g>
      </g>
      <g>
        <path class="cls-2" d="m185.95,114.72l-6.16-20.08h-35.92l-6.89,20.08h-21.55l34.75-97.35h23.6l34.31,97.35h-22.14Zm-24.19-75.5h-.15l-12.46,38.7h24.78l-12.17-38.7Z"/>
        <path class="cls-2" d="m215.57,114.72V17.37h20.38v79.61h48.23v17.74h-68.61Z"/>
        <path class="cls-2" d="m382.26,114.72l-.44-9.68c-4.69,8.21-15.83,13.05-29.17,13.05-26.98,0-44.13-25.07-44.13-52.19,0-28.73,16.42-51.75,47.94-51.75,23.16,0,41.05,13.78,42.52,33.28h-20.52c-1.03-9.09-10.85-16.42-21.99-16.42-16.27,0-27.12,12.61-27.12,35.77,0,15.98,8.06,34.16,26.98,34.16,13.34,0,23.75-10.12,23.75-22.28h-21.55v-16.27h40.61v52.34h-16.86Z"/>
        <path class="cls-2" d="m452.78,114.72v-44.71c0-10.85-3.67-14.22-12.32-14.22-9.53,0-14.81,7.92-14.81,17.59v41.34h-19.06V16.2h19.06v35.77c2.79-6.45,11.58-11.29,21.26-11.29,14.81,0,25.07,8.65,25.07,23.02v51.02h-19.21Z"/>
        <path class="cls-2" d="m525.5,114.72c-.59-1.76-1.03-4.25-1.17-6.45-4.54,4.98-12.17,8.36-21.84,8.36-16.42,0-24.04-8.06-24.04-19.79,0-20.82,13.93-23.16,33.13-25.8,9.53-1.32,12.17-3.23,12.17-8.21,0-4.69-4.69-7.48-12.17-7.48-8.65,0-12.17,4.25-13.05,10.7h-17.74c.29-14.95,8.5-25.36,31.67-25.36s30.79,10.26,30.79,28.44v45.59h-17.74Zm-1.32-35.33c-1.91,1.91-5.28,2.93-12.32,4.25-10.85,2.05-14.37,5.13-14.37,11.29,0,5.42,3.23,8.06,9.24,8.06,9.82,0,17.15-7.18,17.3-15.69l.15-7.92Z"/>
        <path class="cls-2" d="m595,64.43c-1.03-7.04-4.84-9.53-13.49-9.53-7.18,0-11.29,1.76-11.29,6.01s3.96,6.01,11.73,8.21c8.21,2.35,15.98,3.96,21.55,6.16,7.62,3.08,11.88,8.06,11.88,17.45,0,14.95-11,23.9-31.52,23.9-22.14,0-34.45-10.41-34.75-25.07h19.65c0,6.74,5.72,10.7,14.95,10.7,6.74,0,12.75-2.05,12.75-7.48,0-5.13-5.42-6.74-11.58-8.21-12.17-2.93-18.91-4.98-24.04-8.21-6.74-4.25-9.09-9.82-9.09-16.27,0-12.17,8.36-21.4,30.35-21.4,20.82,0,30.2,8.21,31.23,23.75h-18.33Z"/>
        <path class="cls-2" d="m667.13,64.43c-1.03-7.04-4.84-9.53-13.49-9.53-7.18,0-11.29,1.76-11.29,6.01s3.96,6.01,11.73,8.21c8.21,2.35,15.98,3.96,21.55,6.16,7.62,3.08,11.88,8.06,11.88,17.45,0,14.95-11,23.9-31.52,23.9-22.14,0-34.45-10.41-34.75-25.07h19.65c0,6.74,5.72,10.7,14.95,10.7,6.74,0,12.75-2.05,12.75-7.48,0-5.13-5.42-6.74-11.58-8.21-12.17-2.93-18.91-4.98-24.04-8.21-6.74-4.25-9.09-9.82-9.09-16.27,0-12.17,8.36-21.4,30.35-21.4,20.82,0,30.2,8.21,31.23,23.75h-18.33Z"/>
        <path class="cls-2" d="m741.02,114.72c-.59-1.76-1.03-4.25-1.17-6.45-4.54,4.98-12.17,8.36-21.84,8.36-16.42,0-24.04-8.06-24.04-19.79,0-20.82,13.93-23.16,33.13-25.8,9.53-1.32,12.17-3.23,12.17-8.21,0-4.69-4.69-7.48-12.17-7.48-8.65,0-12.17,4.25-13.05,10.7h-17.74c.29-14.95,8.5-25.36,31.67-25.36s30.79,10.26,30.79,28.44v45.59h-17.74Zm-1.32-35.33c-1.91,1.91-5.28,2.93-12.32,4.25-10.85,2.05-14.37,5.13-14.37,11.29,0,5.42,3.23,8.06,9.24,8.06,9.82,0,17.15-7.18,17.3-15.69l.15-7.92Z"/>
        <path class="cls-2" d="m871.06,118.67c0,18.62-11.88,30.2-27.42,30.2s-27.27-12.31-27.27-30.05v-13.05c-5.42,7.33-12.31,10.85-21.11,10.85-18.62,0-29.61-15.39-29.61-37.24,0-24.34,13.05-38.7,31.23-38.7,8.8,0,15.54,3.37,20.08,10.7l.15-8.8h18.33v76.38c0,9.82,3.37,13.05,9.38,13.05,5.57,0,8.36-3.81,8.36-13.34h17.89Zm-53.66-41.78c0-12.17-7.04-20.67-16.13-20.67s-16.27,8.94-16.27,21.84c0,14.81,5.28,22.28,16.42,22.28,10.56,0,15.98-7.77,15.98-23.46Z"/>
      </g>
    </g>
  </g>
</svg>